<svg width="525" height="526" viewBox="0 0 525 526" fill="none" xmlns="http://www.w3.org/2000/svg">
<path fill-rule="evenodd" clip-rule="evenodd" d="M36.5605 226.606L225.939 37.2269C246.131 17.035 278.869 17.035 299.06 37.2269L488.439 226.606C508.632 246.797 508.632 279.535 488.439 299.727L299.06 489.106C278.869 509.299 246.131 509.299 225.939 489.106L36.5605 299.727C16.3686 279.535 16.3686 246.797 36.5605 226.606ZM64.8617 235.043L234.377 65.5285C249.909 49.9959 275.091 49.9959 290.624 65.528L460.138 235.043C475.67 250.575 475.67 275.758 460.138 291.29L290.624 460.806C275.091 476.337 249.909 476.337 234.377 460.806L64.8617 291.29C49.3295 275.758 49.3295 250.575 64.8617 235.043Z" fill="url(#paint0_angular_318_345)"/>
<path fill-rule="evenodd" clip-rule="evenodd" d="M36.5605 226.606L225.939 37.2269C246.131 17.035 278.869 17.035 299.06 37.2269L488.439 226.606C508.632 246.797 508.632 279.535 488.439 299.727L299.06 489.106C278.869 509.299 246.131 509.299 225.939 489.106L36.5605 299.727C16.3686 279.535 16.3686 246.797 36.5605 226.606ZM64.8617 235.043L234.377 65.5285C249.909 49.9959 275.091 49.9959 290.624 65.528L460.138 235.043C475.67 250.575 475.67 275.758 460.138 291.29L290.624 460.806C275.091 476.337 249.909 476.337 234.377 460.806L64.8617 291.29C49.3295 275.758 49.3295 250.575 64.8617 235.043Z" fill="#EDF4FC"/>
<path d="M189.14 286.719H188.77C187.287 289.355 184.899 291.537 181.605 293.266C178.311 294.913 174.564 295.737 170.364 295.737C167.975 295.737 165.464 295.407 162.828 294.749C160.275 294.172 157.887 293.184 155.664 291.784C153.523 290.302 151.711 288.407 150.228 286.102C148.828 283.713 148.128 280.79 148.128 277.331C148.128 272.884 149.364 269.343 151.834 266.707C154.387 264.072 157.64 262.055 161.593 260.655C165.546 259.255 169.911 258.349 174.687 257.937C179.546 257.443 184.281 257.196 188.893 257.196V255.713C188.893 252.007 187.534 249.29 184.817 247.56C182.181 245.749 179.011 244.843 175.305 244.843C172.175 244.843 169.17 245.502 166.287 246.819C163.405 248.137 161.017 249.743 159.123 251.637L151.464 242.619C154.84 239.49 158.711 237.143 163.075 235.578C167.523 234.013 172.011 233.231 176.54 233.231C181.811 233.231 186.134 233.972 189.511 235.454C192.97 236.937 195.687 238.872 197.664 241.26C199.64 243.649 200.999 246.325 201.74 249.29C202.564 252.254 202.975 255.219 202.975 258.184V294.255H189.14V286.719ZM188.893 267.202H185.558C183.17 267.202 180.658 267.325 178.023 267.572C175.387 267.737 172.958 268.19 170.734 268.931C168.511 269.59 166.658 270.578 165.175 271.896C163.693 273.131 162.952 274.86 162.952 277.084C162.952 278.484 163.24 279.678 163.817 280.666C164.475 281.572 165.299 282.313 166.287 282.89C167.275 283.466 168.387 283.878 169.623 284.125C170.858 284.372 172.093 284.496 173.328 284.496C178.434 284.496 182.305 283.137 184.94 280.419C187.575 277.702 188.893 273.996 188.893 269.302V267.202ZM260.763 251.39C259.61 249.743 257.881 248.384 255.575 247.313C253.269 246.16 250.922 245.584 248.534 245.584C245.816 245.584 243.428 246.16 241.369 247.313C239.31 248.384 237.581 249.825 236.181 251.637C234.863 253.449 233.875 255.507 233.216 257.813C232.557 260.037 232.228 262.302 232.228 264.607C232.228 266.913 232.557 269.219 233.216 271.525C233.957 273.749 235.028 275.766 236.428 277.578C237.828 279.39 239.557 280.872 241.616 282.025C243.757 283.096 246.228 283.631 249.028 283.631C251.334 283.631 253.639 283.178 255.945 282.272C258.251 281.366 260.104 280.049 261.504 278.319L270.769 287.707C268.298 290.343 265.128 292.402 261.257 293.884C257.469 295.284 253.351 295.984 248.904 295.984C244.539 295.984 240.381 295.284 236.428 293.884C232.557 292.484 229.139 290.425 226.175 287.707C223.292 284.99 220.986 281.696 219.257 277.825C217.61 273.954 216.786 269.549 216.786 264.607C216.786 259.831 217.61 255.507 219.257 251.637C220.986 247.766 223.292 244.472 226.175 241.754C229.057 239.037 232.392 236.937 236.181 235.454C240.051 233.972 244.169 233.231 248.534 233.231C252.898 233.231 257.098 234.054 261.134 235.702C265.251 237.349 268.504 239.613 270.892 242.496L260.763 251.39ZM351.345 233.231C355.216 233.231 358.51 233.931 361.227 235.331C364.027 236.649 366.292 238.419 368.021 240.643C369.833 242.866 371.151 245.419 371.974 248.302C372.798 251.184 373.21 254.149 373.21 257.196V294.255H358.386V261.396C358.386 259.666 358.263 257.854 358.016 255.96C357.769 254.066 357.233 252.378 356.41 250.896C355.586 249.331 354.433 248.055 352.951 247.066C351.551 246.078 349.657 245.584 347.269 245.584C344.963 245.584 342.986 246.078 341.339 247.066C339.692 248.055 338.333 249.331 337.263 250.896C336.192 252.46 335.41 254.231 334.916 256.207C334.422 258.102 334.174 259.996 334.174 261.89V294.255H319.351V258.431C319.351 254.725 318.445 251.678 316.633 249.29C314.904 246.819 312.145 245.584 308.357 245.584C306.133 245.584 304.198 246.078 302.551 247.066C300.904 247.972 299.545 249.166 298.474 250.649C297.486 252.131 296.704 253.86 296.127 255.837C295.633 257.731 295.386 259.666 295.386 261.643V294.255H280.563V234.96H294.645V244.472H294.892C295.551 242.99 296.416 241.59 297.486 240.272C298.639 238.955 299.957 237.76 301.439 236.69C303.004 235.619 304.774 234.796 306.751 234.219C308.727 233.56 310.91 233.231 313.298 233.231C317.91 233.231 321.739 234.26 324.786 236.319C327.833 238.378 330.18 241.096 331.827 244.472C333.804 240.849 336.439 238.09 339.733 236.196C343.027 234.219 346.898 233.231 351.345 233.231Z" fill="#EDF4FC"/>
<defs>
<radialGradient id="paint0_angular_318_345" cx="0" cy="0" r="1" gradientUnits="userSpaceOnUse" gradientTransform="translate(262.499 263.166) rotate(45) scale(185.615)">
<stop stop-color="#FF6D6D"/>
<stop offset="0.171875" stop-color="#FDA44E"/>
<stop offset="0.348958" stop-color="#FFDC24"/>
<stop offset="0.526042" stop-color="#38CF6B"/>
<stop offset="0.713542" stop-color="#62B0FF"/>
<stop offset="0.875" stop-color="#816DFF"/>
<stop offset="1" stop-color="#FF6D6D"/>
</radialGradient>
</defs>
</svg>
