<svg width="2000" height="1314" viewBox="0 0 2000 1314" fill="none" xmlns="http://www.w3.org/2000/svg">
<rect y="896" width="2000" height="418" fill="#E1E4EA"/>
<path d="M297.732 897.683H1404.99L1120 1246.94L895.698 1246.94L657.121 897.927H557.664L694 1274.01L500 1313.68L332.267 897.927H297.732V897.683Z" fill="#82942E"/>
<path d="M1480.37 897.683L1306 1288.3L1401.1 1310.71L1736.51 1043.62L1909.5 897.683H1736.51H1480.37Z" fill="#82942E"/>
<rect x="297" width="1439.51" height="884.502" fill="#2685B5"/>
<rect y="1" width="2000" height="896" fill="#2685B5"/>
<path fill-rule="evenodd" clip-rule="evenodd" d="M2000 217H1227V633.6H423.915V896.705H1227V897H2000V217Z" fill="#E0E0E0"/>
<rect x="431.551" y="450.061" width="179.32" height="447.62" fill="#CAD0D6"/>
<rect y="239" width="634" height="658" fill="#CFD7DA"/>
<rect x="117" y="293" width="458" height="605" fill="#899EA5"/>
<rect x="204" y="335" width="272" height="563" fill="#C5CDD5"/>
<path d="M766.342 944.542H724.607L734.358 898.569V815.919H751.52L756.591 922.938L766.342 944.542Z" fill="#584A30"/>
<path d="M716.917 865.761V850.958L728.947 856.729L733.604 844.937L753.784 840.421H766.203L796.861 861.998L836.445 859.74L876.806 844.937L853.909 837.41L844.983 827.374L899.703 804.543L947.824 794.256L907.464 777.947V760.134L964.512 720.492L918.718 687.374L972.274 691.89L1001.38 676.836L993.618 618.126L972.274 600.062L860.118 618.126L828.296 595.545L924.928 506.979L880.298 477.373L808.892 499.452L759.993 460.312L714.2 502.713L609.418 496.692L556.639 574.972L576.819 610.85L538.399 659.022L486.397 669.309L500.368 687.374L564.013 710.205L628.046 794.256L646.286 830.636H683.154V844.937L666.854 856.729L689.363 872.786L716.917 865.761Z" fill="#776F0D"/>
<path fill-rule="evenodd" clip-rule="evenodd" d="M573.437 764.664C577.161 767.878 580.936 774.372 582.358 777.217L626.964 792.533L782.891 811.363L804.612 826.176L900.418 834.712L908.176 829.439L881.8 811.363H900.418L888.006 797.303H852.709L822.843 784.749L817.8 777.217H857.364L900.418 770.439L908.176 757.383L915.933 764.664L980.321 773.2L993.509 761.4L949.291 734.034L993.509 729.012L972.175 711.438L941.533 708.425H908.176L866.285 687.586L873.267 674.28L922.139 671.518L984.587 657.458L998.939 637.373V617.036L965.194 592.934L993.509 568.58L956.66 551.508H922.139L908.176 534.937L949.291 491.754L922.139 431.748L894.988 441.289L848.442 444.553L886.454 407.897L858.139 395.344L809.655 407.897L767.764 370.739L721.994 399.11L665.752 381.033H637.825V427.731L568.395 420.199C559.215 426.141 540.545 438.678 539.304 441.289C538.063 443.9 526.633 467.484 521.074 478.949L535.037 511.839L521.074 519.12C514.48 516.693 499.585 511.839 492.759 511.839C485.932 511.839 472.331 519.036 466.383 522.635L470.65 551.508L492.759 559.04L478.795 568.58L504.395 603.73L557.146 627.832L548.225 648.671L584.298 681.059L562.965 674.28L557.146 694.365L570.334 706.667C567.878 708.425 562.965 712.392 562.965 714.199C562.965 716.007 600.977 738.386 619.983 749.349L614.164 761.4L573.437 764.664ZM606.795 720.978C600.899 719.974 609.251 711.019 614.164 706.667H637.825L675.449 694.365L670.407 726.251L637.825 729.012C629.938 726.753 612.69 721.983 606.795 720.978ZM625.413 637.373L602.528 653.943H589.34L594.771 627.832L625.413 637.373ZM766.988 530.669L722.77 539.707C734.277 543.641 758.532 551.508 763.497 551.508C768.462 551.508 807.715 537.615 826.721 530.669C838.616 521.882 862.251 503.855 861.63 502.047C861.01 500.24 844.305 494.432 836.03 491.754L830.212 464.638L766.988 530.669ZM861.63 568.58L848.442 607.747L912.442 592.934L891.497 571.593L900.418 561.801L886.454 546.486L861.63 568.58ZM818.576 681.059L800.346 674.28L783.667 684.071L763.497 681.059L751.861 700.391H726.649C735.958 702.483 756.36 706.667 763.497 706.667C770.634 706.667 795.691 698.466 807.327 694.365L818.576 681.059Z" fill="#82942E"/>
<rect width="737" height="89" transform="matrix(1 0 0 -1 1263 367)" fill="#66B7D0"/>
<rect width="735" height="97" transform="matrix(1 0 0 -1 1265 484)" fill="#66B7D0"/>
<rect width="735" height="105" transform="matrix(1 0 0 -1 1265 616)" fill="#66B7D0"/>
<rect width="735" height="98" transform="matrix(1 0 0 -1 1265 746)" fill="#66B7D0"/>
<rect width="735" height="107" transform="matrix(1 0 0 -1 1265 873)" fill="#3790AC"/>
<rect width="170" height="417" transform="matrix(1 0 0 -1 254 788)" fill="#66B7D0"/>
<path fill-rule="evenodd" clip-rule="evenodd" d="M239.878 358H440.756V896.705H476.634V358H477V335H204V340V358V897.695H239.878V358Z" fill="#F1F1F1"/>
<path fill-rule="evenodd" clip-rule="evenodd" d="M1840.31 278H2000V246H1191V278H1536.62V356H1191V388H1536.62V484H1193V516H1536.62V616H1193V648H1536.62V739H1191V771H1536.62V872.788H1564.93V771H1812V873.278H1840.31V771H2000V739H1840.31V648H2000V616H1840.31V516H2000V484H1840.31V388H2000V356H1840.31V278ZM1812 278H1564.93V356H1812V278ZM1812 388H1564.93V484H1812V388ZM1812 516L1564.93 516V616H1812V516ZM1812 648H1564.93V739H1812V648Z" fill="#F1F1F1"/>
<rect width="169" height="90" transform="matrix(1 0 0 -1 255 885)" fill="#3790AC"/>
<path d="M1326.72 944.786H1292.55L1300.54 890.439V792.732H1314.59L1318.74 919.246L1326.72 944.786Z" fill="#584A30"/>
<path d="M1286.34 851.545V834.044L1296.24 840.867L1300.07 826.926L1316.69 821.586H1326.91L1352.15 847.096L1384.73 844.426L1417.96 826.926L1399.11 818.027L1391.76 806.162L1436.81 779.169L1476.42 767.008L1443.2 747.727V726.667L1490.16 679.801L1452.46 640.647L1496.55 645.986L1520.51 628.188L1514.12 558.779L1496.55 537.422L1404.22 558.779L1378.03 532.083L1457.57 427.375L1420.84 392.374L1362.05 418.476L1321.8 372.203L1284.1 422.332L1197.84 415.214L1154.39 507.76L1171 550.177L1139.38 607.128L1096.57 619.29L1108.07 640.647L1160.46 667.639L1213.18 767.008L1228.19 810.018H1258.54V826.926L1245.12 840.867L1263.65 859.851L1286.34 851.545Z" fill="#776F0D"/>
<path fill-rule="evenodd" clip-rule="evenodd" d="M1168.13 732.108C1171.2 735.908 1174.31 743.588 1175.48 746.953L1212.22 765.064L1340.63 787.331L1358.52 804.848L1437.42 814.942L1443.81 808.707L1422.09 787.331H1437.42L1427.2 770.705H1398.13L1373.53 755.86L1369.38 746.953H1401.96L1437.42 738.937L1443.81 723.498L1450.2 732.108L1503.23 742.203L1514.09 728.248L1477.67 695.887L1514.09 689.949L1496.52 669.166L1471.28 665.603H1443.81L1409.31 640.961L1415.06 625.225L1455.31 621.96L1506.74 605.333L1518.56 581.582V557.533L1490.77 529.031L1514.09 500.232L1483.74 480.043H1455.31L1443.81 460.448L1477.67 409.382L1455.31 338.424L1432.95 349.706L1394.62 353.565L1425.92 310.218L1402.6 295.374L1362.67 310.218L1328.17 266.278L1290.48 299.827L1244.16 278.451H1221.16V333.673L1163.98 324.766C1156.42 331.793 1141.05 346.618 1140.02 349.706C1139 352.793 1129.59 380.682 1125.01 394.24L1136.51 433.134L1125.01 441.744C1119.58 438.874 1107.31 433.134 1101.69 433.134C1096.07 433.134 1084.87 441.645 1079.97 445.9L1083.48 480.043L1101.69 488.95L1090.19 500.232L1111.27 541.798L1154.72 570.3L1147.37 594.942L1177.08 633.242L1159.51 625.225L1154.72 648.977L1165.58 663.525C1163.56 665.603 1159.51 670.294 1159.51 672.432C1159.51 674.57 1190.81 701.033 1206.47 713.997L1201.68 728.248L1168.13 732.108ZM1195.61 680.448C1190.75 679.261 1197.63 668.671 1201.68 663.525H1221.16L1252.15 648.977L1247.99 686.683L1221.16 689.949C1214.67 687.277 1200.46 681.636 1195.61 680.448ZM1210.94 581.582L1192.09 601.177H1181.23L1185.7 570.3L1210.94 581.582ZM1327.53 455.401L1291.12 466.089C1300.6 470.74 1320.57 480.043 1324.66 480.043C1328.75 480.043 1361.08 463.615 1376.73 455.401C1386.52 445.009 1405.99 423.692 1405.48 421.555C1404.97 419.417 1391.21 412.549 1384.39 409.382L1379.6 377.317L1327.53 455.401ZM1405.48 500.232L1394.62 546.548L1447.32 529.031L1430.07 503.795L1437.42 492.216L1425.92 474.105L1405.48 500.232ZM1370.02 633.242L1355.01 625.225L1341.27 636.804L1324.66 633.242L1315.08 656.103H1294.31C1301.98 658.577 1318.78 663.525 1324.66 663.525C1330.54 663.525 1351.17 653.826 1360.76 648.977L1370.02 633.242Z" fill="#82942E"/>
<path d="M965.155 682.293L927.363 720.277V903.483L990.286 966.598L1033.26 973.504H1063.57L1099.63 966.598L1159.87 925.353L1147.79 761.714L1087.55 682.293L1020.4 666.946L965.155 682.293Z" fill="#E8BB84"/>
<path d="M965.155 682.292L927.363 720.277V903.483L990.286 966.598L1033.26 973.504H1063.57L1099.63 966.598L1159.87 925.352L1130.9 776.677L1081.6 706.272L1030.19 689.774L965.155 682.292Z" fill="#F4D3A8"/>
<path d="M1120.55 903.1L1100.21 926.504L1093.5 995.758L1128.41 1017.24L1161.6 1010.91L1196.32 979.26L1203.42 933.986L1183.08 900.414L1148.75 890.63L1120.55 903.1Z" fill="#E8BB84"/>
<path d="M947.512 722.813H940.366L934.152 800.021L940.211 906.745L996.758 967.176L1028.29 971.836L1008.1 952.418L956.833 806.701L947.512 722.813Z" fill="#ECC799"/>
<path d="M1120.54 903.1L1100.21 926.504V983.288L1126.3 998.827H1152.01L1185.96 973.121L1203.42 933.986L1183.08 900.414L1148.75 890.63L1120.54 903.1Z" fill="#F4D3A8"/>
<path d="M997.768 964.487L987.025 984.63L906.645 1011.49L828.566 1017.63L816.864 984.63L833.554 957.581L846.599 924.585L869.428 903.291L941.943 906.936L997.768 964.487Z" fill="#E8BB84"/>
<path d="M900.122 984.63V999.018L890.722 1009.95L828.566 1017.63L816.864 984.63L833.554 957.581L846.599 924.585L869.428 903.291L890.722 957.581L900.122 984.63Z" fill="#F4D3A8"/>
<path d="M897.629 705.314L874.8 715.289L821.085 915.377L846.983 949.333L888.804 960.267L940.601 915.377L934.462 799.89L940.601 722.195L929.474 705.314H897.629Z" fill="#E8BB84"/>
<path d="M897.629 705.314L874.8 715.289L821.085 915.377L846.983 949.333L878.445 934.177L905.11 899.838L919.306 799.506L929.474 724.689V705.314H897.629Z" fill="#F4D3A8"/>
<path d="M1152.58 756.726L1143.95 771.306L1129.18 809.482L1140.5 873.556L1152.58 882.189L1172.92 908.854L1191.72 912.307L1214.35 893.891L1230.28 859.168L1227.21 802.959L1165.05 753.273L1152.58 756.726Z" fill="#E8BB84"/>
<path d="M1152.58 756.726L1143.95 771.306L1129.18 809.482L1140.5 873.556L1152.58 882.189L1171.96 885.642H1182.7L1205.72 878.16L1219.15 858.784L1227.21 802.959L1165.05 753.273L1152.58 756.726Z" fill="#F4D3A8"/>
<path d="M958.058 627.235L961.127 590.978L978.968 573.712L1018.3 562.01L1072.59 570.259L1117.67 600.761L1129.18 652.942L1117.67 683.444L1072.59 685.746L996.042 670.015L958.058 627.235Z" fill="#F4D3A8"/>
<path d="M957.674 593.855L940.792 591.553L933.694 585.606L931.584 572.177L937.339 561.626L957.674 538.414L986.833 542.059L1010.05 557.597L1006.59 571.026L977.433 573.136L957.674 593.855Z" fill="#F4D3A8"/>
<path d="M958.058 594.047L940.793 591.745L968.417 559.516L1010.24 557.981L1006.59 571.218L978.009 573.904L958.058 594.047Z" fill="#ECC799"/>
<path d="M1142.8 610.161L1126.49 616.108L1123.81 639.705L1140.11 666.946L1168.12 662.917L1178.29 630.688L1162.94 611.888L1142.8 610.161Z" fill="#ECC799"/>
<path d="M1142.8 610.161L1126.49 616.108L1123.81 639.705L1141.65 655.819L1166.97 651.982L1178.29 630.688L1162.94 611.888L1142.8 610.161Z" fill="#F4D3A8"/>
<path d="M983.709 634.73H964.911L996.136 669.994L1072.57 685.839L1117.62 683.043L1122.9 669.062L1109.85 674.188H1102.08L1085.46 662.537L1071.48 659.275L1049.89 651.507L1038.7 641.41L1008.72 645.915L983.709 634.73Z" fill="#E8BB84"/>
<path d="M1160.03 907.677L1163.45 896.492L1173.08 908.765L1190.17 912.027L1203.22 934.397L1193.74 956.146L1184.42 952.884L1171.99 939.213L1167.64 921.814L1160.03 907.677Z" fill="#ECC799"/>
<rect x="255" y="713" width="169" height="7" fill="#C4C4C4"/>
<rect x="297" y="787.607" width="126.915" height="7.07797" fill="#C4C4C4"/>
<rect x="255" y="627" width="169" height="7" fill="#C4C4C4"/>
<rect x="255" y="535" width="169" height="7" fill="#C4C4C4"/>
<rect x="255" y="443" width="169" height="7" fill="#C4C4C4"/>
</svg>
