<svg width="1928" height="973" viewBox="0 0 1928 973" fill="none" xmlns="http://www.w3.org/2000/svg">
<g id="Bear graphic frame" clip-path="url(#clip0_477_233)">
<g id="Bear Graphic Full">
<rect id="sidewalk" x="-7" y="681.496" width="1942" height="290" fill="#E1E4EA"/>
<g id="grass">
<path d="M1415.74 682.043L1241.31 953.407L1336.44 968.977L1671.96 783.426L1845 682.043H1671.96H1415.74Z" fill="#82942E"/>
<path d="M435.053 971.043L267 682.043H492.571L629.115 943.483L435.053 971.043Z" fill="#82942E"/>
<path d="M830.876 924.68L592.103 682.043H1340.6L1055.25 924.68L830.876 924.68Z" fill="#82942E"/>
</g>
<rect id="sky" x="-7" y="1.50391" width="1942" height="680" fill="#2685B5"/>
<path id="Union" fill-rule="evenodd" clip-rule="evenodd" d="M1935 1.54297H1162V418.143H358.915V681.248H1162V681.543H1935V1.54297Z" fill="#E0E0E0"/>
<rect id="Rectangle 78" x="366.551" y="234.604" width="179.32" height="447.62" fill="#CAD0D6"/>
<rect id="Rectangle 86" x="-7" y="23.4961" width="576" height="658" fill="#CFD7DA"/>
<rect id="Rectangle 41" x="52" y="77.543" width="458" height="605" fill="#899EA5"/>
<rect id="Rectangle 41_2" x="139" y="119.543" width="272" height="563" fill="#C5CDD5"/>
<g id="tree-left">
<path d="M701.342 729.085H659.607L669.358 683.112V600.461H686.52L691.591 707.48L701.342 729.085Z" fill="#584A30"/>
<path d="M651.917 650.304V635.501L663.947 641.272L668.604 629.48L688.784 624.964H701.203L731.861 646.541L771.445 644.283L811.806 629.48L788.909 621.953L779.983 611.917L834.703 589.085L882.824 578.798L842.464 562.49V544.676L899.512 505.035L853.718 471.916L907.274 476.433L936.38 461.379L928.618 402.669L907.274 384.604L795.118 402.669L763.296 380.088L859.928 291.521L815.298 261.916L743.892 283.995L694.993 244.855L649.2 287.256L544.418 281.235L491.639 359.515L511.819 395.393L473.399 443.565L421.397 453.852L435.368 471.916L499.013 494.748L563.046 578.798L581.286 615.179H618.154V629.48L601.854 641.272L624.363 657.329L651.917 650.304Z" fill="#776F0D"/>
<path fill-rule="evenodd" clip-rule="evenodd" d="M508.437 549.207C512.161 552.42 515.936 558.915 517.358 561.76L561.964 577.075L717.891 595.905L739.612 610.718L835.418 619.255L843.176 613.982L816.8 595.905H835.418L823.006 581.846H787.709L757.843 569.292L752.8 561.76H792.364L835.418 554.981L843.176 541.926L850.933 549.207L915.321 557.743L928.509 545.943L884.291 518.577L928.509 513.555L907.175 495.98L876.533 492.968H843.176L801.285 472.129L808.267 458.822L857.139 456.061L919.587 442.001L933.939 421.916V401.579L900.194 377.477L928.509 353.123L891.66 336.05H857.139L843.176 319.48L884.291 276.296L857.139 216.291L829.988 225.832L783.442 229.096L821.454 192.44L793.139 179.886L744.655 192.44L702.764 155.282L656.994 183.652L600.752 165.576H572.825V212.274L503.395 204.742C494.215 210.684 475.545 223.221 474.304 225.832C473.063 228.443 461.633 252.026 456.074 263.492L470.037 296.382L456.074 303.663C449.48 301.236 434.585 296.382 427.759 296.382C420.932 296.382 407.331 303.579 401.383 307.178L405.65 336.05L427.759 343.582L413.795 353.123L439.395 388.272L492.146 412.375L483.225 433.214L519.298 465.601L497.965 458.822L492.146 478.908L505.334 491.21C502.878 492.968 497.965 496.935 497.965 498.742C497.965 500.55 535.977 522.928 554.983 533.892L549.164 545.943L508.437 549.207ZM541.795 505.521C535.899 504.517 544.251 495.562 549.164 491.21H572.825L610.449 478.908L605.407 510.793L572.825 513.555C564.938 511.296 547.69 506.525 541.795 505.521ZM560.413 421.916L537.528 438.486H524.34L529.771 412.375L560.413 421.916ZM701.988 315.212L657.77 324.25C669.277 328.184 693.532 336.05 698.497 336.05C703.462 336.05 742.715 322.158 761.721 315.212C773.616 306.424 797.251 288.398 796.63 286.59C796.01 284.782 779.305 278.974 771.03 276.296L765.212 249.181L701.988 315.212ZM796.63 353.123L783.442 392.29L847.442 377.477L826.497 356.136L835.418 346.344L821.454 331.029L796.63 353.123ZM753.576 465.601L735.346 458.822L718.667 468.614L698.497 465.601L686.861 484.933H661.649C670.958 487.026 691.36 491.21 698.497 491.21C705.634 491.21 730.691 483.009 742.327 478.908L753.576 465.601Z" fill="#82942E"/>
</g>
<rect id="Rectangle 59" width="737" height="89" transform="matrix(1 0 0 -1 1198 151.543)" fill="#66B7D0"/>
<rect id="Rectangle 60" width="735" height="97" transform="matrix(1 0 0 -1 1200 268.543)" fill="#66B7D0"/>
<rect id="Rectangle 61" width="735" height="105" transform="matrix(1 0 0 -1 1200 400.543)" fill="#66B7D0"/>
<rect id="Rectangle 62" width="735" height="98" transform="matrix(1 0 0 -1 1200 530.543)" fill="#66B7D0"/>
<rect id="Rectangle 68" width="735" height="107" transform="matrix(1 0 0 -1 1200 657.543)" fill="#3790AC"/>
<rect id="Rectangle 67" width="170" height="417" transform="matrix(1 0 0 -1 189 572.543)" fill="#66B7D0"/>
<path id="Union_2" fill-rule="evenodd" clip-rule="evenodd" d="M174.878 142.543H375.756V681.248H411.634V142.543H412V119.543H139V124.543V142.543V682.238H174.878V142.543Z" fill="#F1F1F1"/>
<path id="Union_3" fill-rule="evenodd" clip-rule="evenodd" d="M1775.31 62.543H1935V30.543H1126V62.543H1471.62V140.543H1126V172.543H1471.62V268.543H1128V300.543H1471.62V400.543H1128V432.543H1471.62V523.543H1126V555.543H1471.62V657.331H1499.93V555.543H1747V657.821H1775.31V555.543H1935V523.543H1775.31V432.543H1935V400.543H1775.31V300.543H1935V268.543H1775.31V172.543H1935V140.543H1775.31V62.543ZM1747 62.543H1499.93V140.543H1747V62.543ZM1747 172.543H1499.93V268.543H1747V172.543ZM1747 300.543L1499.93 300.543V400.543H1747V300.543ZM1747 432.543H1499.93V523.543H1747V432.543Z" fill="#F1F1F1"/>
<rect id="Rectangle 70" width="169" height="90" transform="matrix(1 0 0 -1 190 669.543)" fill="#3790AC"/>
<g id="tree-right">
<path d="M1261.72 729.329H1227.55L1235.54 674.982V577.275H1249.59L1253.74 703.789L1261.72 729.329Z" fill="#584A30"/>
<path d="M1221.34 636.088V618.587L1231.24 625.41L1235.07 611.469L1251.69 606.129H1261.91L1287.15 631.639L1319.73 628.969L1352.96 611.469L1334.11 602.57L1326.76 590.705L1371.81 563.712L1411.42 551.551L1378.2 532.27V511.21L1425.16 464.344L1387.46 425.19L1431.55 430.529L1455.51 412.731L1449.12 343.322L1431.55 321.965L1339.22 343.322L1313.03 316.626L1392.57 211.918L1355.84 176.917L1297.05 203.019L1256.8 156.746L1219.1 206.875L1132.84 199.756L1089.39 292.303L1106 334.72L1074.38 391.671L1031.57 403.833L1043.07 425.19L1095.46 452.182L1148.18 551.551L1163.19 594.561H1193.54V611.469L1180.12 625.41L1198.65 644.394L1221.34 636.088Z" fill="#776F0D"/>
<path fill-rule="evenodd" clip-rule="evenodd" d="M1103.13 516.651C1106.2 520.451 1109.31 528.131 1110.48 531.496L1147.22 549.607L1275.63 571.874L1293.52 589.391L1372.42 599.485L1378.81 593.25L1357.09 571.874H1372.42L1362.2 555.248H1333.13L1308.53 540.403L1304.38 531.496H1336.96L1372.42 523.48L1378.81 508.041L1385.2 516.651L1438.23 526.746L1449.09 512.791L1412.67 480.43L1449.09 474.492L1431.52 453.709L1406.28 450.146H1378.81L1344.31 425.504L1350.06 409.768L1390.31 406.503L1441.74 389.876L1453.56 366.125V342.076L1425.77 313.574L1449.09 284.775L1418.74 264.586H1390.31L1378.81 244.991L1412.67 193.925L1390.31 122.967L1367.95 134.249L1329.62 138.108L1360.92 94.7615L1337.6 79.9166L1297.67 94.7615L1263.17 50.8208L1225.48 84.3701L1179.16 62.9935H1156.16V118.216L1098.98 109.309C1091.42 116.336 1076.05 131.161 1075.02 134.249C1074 137.336 1064.59 165.225 1060.01 178.783L1071.51 217.677L1060.01 226.287C1054.58 223.417 1042.31 217.677 1036.69 217.677C1031.07 217.677 1019.87 226.188 1014.97 230.443L1018.48 264.586L1036.69 273.493L1025.19 284.775L1046.27 326.341L1089.72 354.843L1082.37 379.485L1112.08 417.785L1094.51 409.768L1089.72 433.52L1100.58 448.068C1098.56 450.146 1094.51 454.837 1094.51 456.975C1094.51 459.113 1125.81 485.576 1141.47 498.54L1136.68 512.791L1103.13 516.651ZM1130.61 464.991C1125.75 463.804 1132.63 453.214 1136.68 448.068H1156.16L1187.15 433.52L1182.99 471.226L1156.16 474.492C1149.67 471.82 1135.46 466.179 1130.61 464.991ZM1145.94 366.125L1127.09 385.72H1116.23L1120.7 354.843L1145.94 366.125ZM1262.53 239.944L1226.12 250.632C1235.6 255.283 1255.57 264.586 1259.66 264.586C1263.75 264.586 1296.08 248.158 1311.73 239.944C1321.52 229.552 1340.99 208.235 1340.48 206.098C1339.97 203.96 1326.21 197.092 1319.39 193.925L1314.6 161.86L1262.53 239.944ZM1340.48 284.775L1329.62 331.091L1382.32 313.574L1365.07 288.338L1372.42 276.759L1360.92 258.648L1340.48 284.775ZM1305.02 417.785L1290.01 409.768L1276.27 421.347L1259.66 417.785L1250.08 440.646H1229.31C1236.98 443.12 1253.78 448.068 1259.66 448.068C1265.54 448.068 1286.17 438.369 1295.76 433.52L1305.02 417.785Z" fill="#82942E"/>
</g>
<g id="bear">
<path d="M905.291 466.836L867.499 504.82V688.026L930.422 751.141L973.394 758.047H1003.7L1039.77 751.141L1100.01 709.896L1087.92 546.257L1027.68 466.836L960.541 451.489L905.291 466.836Z" fill="#E8BB84"/>
<path d="M905.291 466.835L867.499 504.82V688.026L930.422 751.141L973.394 758.047H1003.7L1039.77 751.141L1100.01 709.895L1071.04 561.22L1021.74 490.815L970.324 474.317L905.291 466.835Z" fill="#F4D3A8"/>
<path d="M1060.68 687.643L1040.35 711.047L1033.63 780.301L1068.55 801.787L1101.73 795.456L1136.46 763.803L1143.56 718.529L1123.22 684.957L1088.88 675.173L1060.68 687.643Z" fill="#E8BB84"/>
<path d="M887.648 507.355H880.502L874.288 584.564L880.347 691.288L936.893 751.719L968.429 756.379L948.234 736.961L896.969 591.244L887.648 507.355Z" fill="#ECC799"/>
<path d="M1060.68 687.643L1040.35 711.047V767.831L1066.44 783.37H1092.14L1126.1 757.664L1143.55 718.529L1123.22 684.957L1088.88 675.173L1060.68 687.643Z" fill="#F4D3A8"/>
<path d="M937.904 749.03L927.161 769.173L846.781 796.031L768.702 802.17L757 769.173L773.69 742.124L786.735 709.128L809.564 687.834L882.079 691.479L937.904 749.03Z" fill="#E8BB84"/>
<path d="M840.258 769.173V783.561L830.858 794.496L768.702 802.17L757 769.173L773.69 742.124L786.735 709.128L809.564 687.834L830.858 742.124L840.258 769.173Z" fill="#F4D3A8"/>
<path d="M837.764 489.856L814.936 499.832L761.221 699.92L787.119 733.875L828.94 744.81L880.736 699.92L874.597 584.433L880.736 506.738L869.61 489.856H837.764Z" fill="#E8BB84"/>
<path d="M837.764 489.856L814.936 499.832L761.221 699.92L787.119 733.875L818.58 718.72L845.246 684.381L859.442 584.049L869.61 509.232V489.856H837.764Z" fill="#F4D3A8"/>
<path d="M1092.72 541.269L1084.08 555.849L1069.31 594.025L1080.63 658.099L1092.72 666.732L1113.05 693.397L1131.85 696.85L1154.49 678.434L1170.41 643.711L1167.34 587.502L1105.19 537.816L1092.72 541.269Z" fill="#E8BB84"/>
<path d="M1092.72 541.269L1084.08 555.849L1069.31 594.025L1080.63 658.099L1092.72 666.732L1112.09 670.185H1122.84L1145.86 662.703L1159.29 643.327L1167.34 587.502L1105.19 537.816L1092.72 541.269Z" fill="#F4D3A8"/>
<path d="M898.194 411.778L901.263 375.521L919.104 358.255L958.431 346.553L1012.72 354.802L1057.8 385.304L1069.31 437.485L1057.8 467.987L1012.72 470.289L936.178 454.558L898.194 411.778Z" fill="#F4D3A8"/>
<path d="M897.81 378.398L880.928 376.096L873.83 370.149L871.719 356.72L877.475 346.169L897.81 322.957L926.969 326.601L950.182 342.14L946.728 355.569L917.569 357.679L897.81 378.398Z" fill="#F4D3A8"/>
<path d="M898.194 378.59L880.928 376.288L908.553 344.059L950.374 342.524L946.729 355.761L918.145 358.447L898.194 378.59Z" fill="#ECC799"/>
<path d="M1082.93 394.704L1066.63 400.651L1063.94 424.248L1080.25 451.489L1108.26 447.46L1118.42 415.231L1103.08 396.431L1082.93 394.704Z" fill="#ECC799"/>
<path d="M1082.93 394.704L1066.63 400.651L1063.94 424.248L1081.78 440.362L1107.11 436.525L1118.42 415.231L1103.08 396.431L1082.93 394.704Z" fill="#F4D3A8"/>
<path d="M923.844 419.273H905.047L936.272 454.537L1012.7 470.382L1057.75 467.586L1063.04 453.605L1049.99 458.731H1042.22L1025.6 447.08L1011.62 443.818L990.023 436.05L978.838 425.953L948.855 430.458L923.844 419.273Z" fill="#E8BB84"/>
<path d="M1100.17 692.22L1103.58 681.035L1113.21 693.308L1130.3 696.57L1143.35 718.94L1133.88 740.689L1124.55 737.427L1112.13 723.756L1107.78 706.357L1100.17 692.22Z" fill="#ECC799"/>
</g>
<rect id="Rectangle 59_2" x="190" y="497.543" width="169" height="7" fill="#C4C4C4"/>
<rect id="Rectangle 79" x="232" y="572.15" width="126.915" height="7.07797" fill="#C4C4C4"/>
<rect id="Rectangle 73" x="190" y="411.543" width="169" height="7" fill="#C4C4C4"/>
<rect id="Rectangle 74" x="190" y="319.543" width="169" height="7" fill="#C4C4C4"/>
<rect id="Rectangle 75" x="190" y="227.543" width="169" height="7" fill="#C4C4C4"/>
</g>
</g>
<defs>
<clipPath id="clip0_477_233">
<rect width="1928" height="973" fill="white"/>
</clipPath>
</defs>
</svg>
