<svg width="414" height="481" viewBox="0 0 414 481" fill="none" xmlns="http://www.w3.org/2000/svg">
<path d="M148.791 144.836L110.999 182.82V366.026L173.922 429.141L216.894 436.047H247.204L283.27 429.141L343.508 387.896L331.422 224.257L271.184 144.836L204.041 129.489L148.791 144.836Z" fill="#E8BB84"/>
<path d="M148.791 144.836L110.999 182.82V366.026L173.922 429.141L216.894 436.047H247.204L283.27 429.141L343.508 387.896L314.54 239.22L265.237 168.815L213.824 152.317L148.791 144.836Z" fill="#F4D3A8"/>
<path d="M304.181 365.643L283.846 389.047L277.132 458.301L312.046 479.787L345.235 473.456L379.957 441.803L387.055 396.529L366.721 362.957L332.381 353.173L304.181 365.643Z" fill="#E8BB84"/>
<path d="M131.148 185.355H124.002L117.788 262.564L123.847 369.288L180.393 429.719L211.929 434.379L191.734 414.961L140.469 269.244L131.148 185.355Z" fill="#ECC799"/>
<path d="M304.181 365.643L283.846 389.047L283.846 445.831L309.936 461.37H335.642L369.598 435.664L387.055 396.529L366.721 362.957L332.381 353.173L304.181 365.643Z" fill="#F4D3A8"/>
<path d="M181.404 427.03L170.661 447.173L90.2806 474.031L12.2022 480.17L0.5 447.173L17.19 420.124L30.235 387.128L53.0639 365.834L125.579 369.479L181.404 427.03Z" fill="#E8BB84"/>
<path d="M83.758 447.173V461.561L74.3579 472.496L12.2022 480.17L0.5 447.173L17.19 420.124L30.235 387.128L53.0639 365.834L74.3579 420.124L83.758 447.173Z" fill="#F4D3A8"/>
<path d="M81.2644 167.856L58.4355 177.832L4.72066 377.92L30.6189 411.875L72.4398 422.81L124.236 377.92L118.097 262.433L124.236 184.738L113.11 167.856H81.2644Z" fill="#E8BB84"/>
<path d="M81.2644 167.856L58.4355 177.832L4.72066 377.92L30.6189 411.875L62.0805 396.72L88.7461 362.381L102.942 262.049L113.11 187.232V167.856H81.2644Z" fill="#F4D3A8"/>
<path d="M336.218 219.269L327.585 233.849L312.813 272.025L324.132 336.099L336.218 344.732L356.553 371.397L375.353 374.85L397.99 356.434L413.912 321.711L410.843 265.502L348.687 215.816L336.218 219.269Z" fill="#E8BB84"/>
<path d="M336.218 219.269L327.585 233.849L312.813 272.025L324.132 336.099L336.218 344.732L355.593 348.185H366.336L389.357 340.703L402.786 321.327L410.843 265.502L348.687 215.816L336.218 219.269Z" fill="#F4D3A8"/>
<path d="M141.694 89.7781L144.763 53.5206L162.604 36.2551L201.931 24.5529L256.222 32.802L301.304 63.3044L312 118.362L301.304 145.987L256.222 148.289L179.678 132.558L141.694 89.7781Z" fill="#F4D3A8"/>
<path d="M141.31 56.398L124.428 54.0959L117.33 48.1489L115.219 34.7202L120.975 24.169L141.31 0.956543L170.469 4.60148L193.682 20.1404L190.228 33.5691L161.069 35.6794L141.31 56.398Z" fill="#F4D3A8"/>
<path d="M141.694 56.5896L124.428 54.2876L152.053 22.0586L193.874 20.5239L190.229 33.7608L162.351 36.5L141.694 56.5896Z" fill="#ECC799"/>
<path d="M326.434 72.7044L310.128 78.6514L306.537 102L323.748 129.489L351.757 125.46L361.924 93.2311L346.577 74.4309L326.434 72.7044Z" fill="#ECC799"/>
<path d="M326.434 72.7044L310.128 78.6514L306.537 102L325.283 118.362L350.606 114.525L361.924 93.2311L346.577 74.4309L326.434 72.7044Z" fill="#F4D3A8"/>
<path d="M167.344 97.2728H148.547L179.772 132.537L256.204 148.382L301.255 145.586L306.537 131.605L293.487 136.731H285.72L269.098 125.08L255.116 121.818L233.523 114.05L222.338 103.953L192.355 108.458L167.344 97.2728Z" fill="#E8BB84"/>
<path d="M343.665 370.22L347.083 359.035L356.714 371.308L373.803 374.57L386.852 396.94L377.376 418.689L368.055 415.427L355.627 401.756L351.277 384.357L343.665 370.22Z" fill="#ECC799"/>
</svg>
