<svg width="300" height="364" viewBox="0 0 300 364" fill="none" xmlns="http://www.w3.org/2000/svg">
<path d="M105.361 125.208L78.5095 152.196V282.364L123.216 327.207L153.748 332.114H175.284L200.908 327.207L243.707 297.902L235.12 181.637L192.321 125.208L144.616 114.304L105.361 125.208Z" fill="#E8BB84"/>
<path d="M105.361 125.208L78.5095 152.195V282.363L123.216 327.207L153.748 332.114H175.284L200.908 327.207L243.707 297.902L223.125 192.268L188.096 142.245L151.567 130.524L105.361 125.208Z" fill="#F4D3A8"/>
<path d="M215.766 282.091L201.318 298.72L196.547 347.925L221.354 363.191L244.934 358.693L269.605 336.203L274.648 304.036L260.2 280.183L235.802 273.232L215.766 282.091Z" fill="#E8BB84"/>
<path d="M92.8254 153.997H87.7481L83.3331 208.854L87.6378 284.681L127.814 327.617L150.22 330.929L135.872 317.132L99.4479 213.6L92.8254 153.997Z" fill="#ECC799"/>
<path d="M215.765 282.091L201.317 298.72V339.065L219.854 350.106H238.119L262.244 331.841L274.647 304.036L260.199 280.183L235.801 273.232L215.765 282.091Z" fill="#F4D3A8"/>
<path d="M128.532 325.707L120.9 340.019L63.7891 359.101L8.3144 363.463L0 340.019L11.8582 320.8L21.1267 297.357L37.3466 282.227L88.8686 284.817L128.532 325.707Z" fill="#E8BB84"/>
<path d="M59.1549 340.019V350.242L52.4761 358.011L8.3144 363.463L0 340.019L11.8582 320.8L21.1267 297.357L37.3466 282.227L52.4761 320.8L59.1549 340.019Z" fill="#F4D3A8"/>
<path d="M57.3831 141.564L41.1632 148.652L2.99878 290.814L21.3995 314.94L51.1132 322.709L87.9147 290.814L83.553 208.761L87.9147 153.559L80.0092 141.564H57.3831Z" fill="#E8BB84"/>
<path d="M57.3831 141.564L41.1632 148.652L2.99878 290.814L21.3995 314.94L43.753 304.172L62.6989 279.774L72.7852 208.488L80.0092 155.331V141.564H57.3831Z" fill="#F4D3A8"/>
<path d="M245.507 210.476L255.998 204.571L278.65 186.329L294.448 142.882L290.078 133.277L287.038 109.645L276.697 100.842L256.226 104.132L234.093 119.841L216.014 155.517L236.608 208.17L245.507 210.476Z" fill="#E8BB84"/>
<path d="M100.318 86.0895L102.499 60.3285L115.175 48.0614L143.117 39.747L181.69 45.6079L213.721 67.2799L221.899 104.354L213.721 126.026L181.69 127.661L127.306 116.485L100.318 86.0895Z" fill="#F4D3A8"/>
<path d="M100.045 62.3729L88.0507 60.7373L83.0076 56.5119L81.5083 46.9708L85.5973 39.4742L100.045 22.9817L120.763 25.5714L137.256 36.6119L134.802 46.153L114.084 47.6523L100.045 62.3729Z" fill="#F4D3A8"/>
<path d="M100.318 62.5091L88.0511 60.8734L107.679 37.9748L137.392 36.8843L134.803 46.2892L114.494 48.1974L100.318 62.5091Z" fill="#ECC799"/>
<path d="M231.576 73.9586L219.991 78.1839L218.082 94.949L229.668 114.304L249.568 111.442L256.792 88.5429L245.888 75.1853L231.576 73.9586Z" fill="#ECC799"/>
<path d="M231.576 73.9586L219.991 78.1839L218.082 94.949L230.758 106.398L248.75 103.672L256.792 88.5429L245.888 75.1853L231.576 73.9586Z" fill="#F4D3A8"/>
<path d="M118.543 91.4144H105.188L127.373 116.47L181.678 127.728L213.686 125.741L217.439 115.807L208.168 119.45H202.649L190.839 111.172L180.905 108.854L165.563 103.335L157.616 96.1606L136.313 99.3614L118.543 91.4144Z" fill="#E8BB84"/>
<path d="M221.878 187.375L214.682 168.82L216.069 155.294L233.844 120.091L256.214 104.224L276.936 100.843L286.907 109.774L289.508 128.762L287.688 144.456L271.127 183.386L244.595 210.265L237.572 206.97L233.844 198.646L221.878 187.375Z" fill="#F4D3A8"/>
<path d="M243.121 127.028L234.104 119.831L223.179 141.594L216.069 155.38L214.855 169.253L218.15 177.837L228.641 181.565L239.046 182.866L246.763 173.762L253.786 160.409L246.763 135.872L243.121 127.028Z" fill="#ECC799"/>
<path d="M250.578 115.323L238.786 123.039L238.959 123.82L247.023 138.039L252.052 140.467L257.688 136.912L261.416 129.976L257.688 121.392L250.578 115.323Z" fill="#ECC799"/>
<path d="M254.917 41.2633L245.273 41.1412C245.232 40.5715 245.191 39.8594 245.151 39.0048C245.151 38.1096 245.151 37.2347 245.151 36.3801C245.151 33.9385 245.415 31.9038 245.944 30.276C246.473 28.6483 247.491 27.3054 248.996 26.2474C250.543 25.1487 252.842 24.2127 255.894 23.4395C257.644 22.9919 259.088 22.6053 260.228 22.2798C261.367 21.9135 262.262 21.5066 262.914 21.0589C263.565 20.6113 264.012 20.0009 264.256 19.2277C264.541 18.4139 264.684 17.3151 264.684 15.9315C264.684 13.0016 263.524 11.2314 261.204 10.621C260.065 10.2955 258.559 10.0513 256.687 9.88855C254.816 9.72577 252.984 9.64439 251.194 9.64439C249.688 9.64439 248.081 9.70543 246.372 9.8275C244.662 9.90889 243.055 10.092 241.549 10.3769C240.044 10.6617 238.823 11.1094 237.887 11.7198C236.951 12.3302 236.483 13.1644 236.483 14.2224C236.483 15.1584 236.788 16.1757 237.399 17.2744C238.05 18.3325 238.843 19.2684 239.779 20.0823L230.928 25.1487C229.545 23.7244 228.426 22.0152 227.571 20.0213C226.717 18.0273 226.289 15.9112 226.289 13.6731C226.289 12.2081 226.595 10.7024 227.205 9.15606C227.856 7.6097 228.914 6.18543 230.379 4.88323C231.885 3.54034 233.919 2.50266 236.483 1.77017C238.355 1.20046 240.573 0.773177 243.136 0.488321C245.7 0.162774 248.386 0 251.194 0C253.595 0 256.016 0.142427 258.458 0.427281C260.899 0.712138 263.178 1.22081 265.294 1.95329C268.835 3.1741 271.235 4.96462 272.497 7.32485C273.799 9.64439 274.45 12.3912 274.45 15.5653C274.45 19.7567 273.575 23.175 271.825 25.8201C270.116 28.4652 267.186 30.2557 263.036 31.1917C262.059 31.3951 261.021 31.5782 259.923 31.741C258.824 31.9038 257.847 32.1683 256.993 32.5345C256.138 32.9008 255.568 33.5315 255.284 34.4268C254.958 35.4441 254.795 36.9091 254.795 38.8217C254.795 39.2286 254.795 39.6356 254.795 40.0425C254.836 40.4495 254.877 40.8564 254.917 41.2633ZM250.156 55.2416C248.325 55.2416 246.901 54.6719 245.883 53.5324C244.907 52.393 244.418 51.0501 244.418 49.5038C244.418 47.8353 244.968 46.4518 246.066 45.353C247.165 44.2136 248.549 43.6439 250.217 43.6439C251.967 43.6439 253.351 44.1729 254.368 45.2309C255.426 46.289 255.955 47.6929 255.955 49.4427C255.955 51.1926 255.426 52.5965 254.368 53.6545C253.351 54.7126 251.947 55.2416 250.156 55.2416Z" fill="black"/>
</svg>
