<svg width="1942" height="971" viewBox="0 0 1942 971" fill="none" xmlns="http://www.w3.org/2000/svg">
<g id="Bear graphic frame">
<g id="Bear Graphic Full">
<g id="Group 36">
<rect id="sidewalk" y="681" width="1942" height="290" fill="#E1E4EA"/>
<g id="grass">
<path d="M1426.41 680.921L1251.53 952.285L1346.91 967.855L1683.29 782.304L1856.78 680.921H1683.29H1426.41Z" fill="#82942E"/>
<path d="M443.194 969.921L274.707 680.921H500.861L637.757 942.361L443.194 969.921Z" fill="#82942E"/>
<path d="M840.039 923.558L600.65 680.921H1351.08L1064.99 923.558L840.039 923.558Z" fill="#82942E"/>
</g>
</g>
<rect id="sky" width="1942" height="681" fill="#2685B5"/>
<path id="Union" fill-rule="evenodd" clip-rule="evenodd" d="M1942 1H1168V417.748H365.25V680.853H1168V681H1942V1Z" fill="#E0E0E0"/>
<rect id="Rectangle 78" x="373.551" y="233.1" width="179.32" height="447.62" fill="#CAD0D6"/>
<rect id="Rectangle 86" x="3.5" y="22.4961" width="573" height="659" fill="#CFD7DA"/>
<rect id="Rectangle 41" x="59.5" y="76.4961" width="458" height="605" fill="#899EA5"/>
<g id="tree-left">
<path d="M708.342 727.581H666.607L676.358 681.608V598.958H693.52L698.591 705.976L708.342 727.581Z" fill="#584A30"/>
<path d="M658.917 648.8V633.997L670.947 639.768L675.604 627.976L695.784 623.46H708.203L738.861 645.037L778.445 642.779L818.806 627.976L795.909 620.449L786.983 610.413L841.703 587.581L889.824 577.295L849.464 560.986V543.173L906.512 503.531L860.718 470.412L914.274 474.929L943.38 459.875L935.618 401.165L914.274 383.1L802.118 401.165L770.296 378.584L866.928 290.018L822.298 260.412L750.892 282.491L701.993 243.351L656.2 285.752L551.418 279.731L498.639 358.011L518.819 393.889L480.399 442.061L428.397 452.348L442.368 470.412L506.013 493.244L570.046 577.295L588.286 613.675H625.154V627.976L608.854 639.768L631.363 655.825L658.917 648.8Z" fill="#776F0D"/>
<path fill-rule="evenodd" clip-rule="evenodd" d="M515.437 547.703C519.161 550.917 522.936 557.411 524.358 560.256L568.964 575.571L724.891 594.401L746.612 609.214L842.418 617.751L850.176 612.478L823.8 594.401H842.418L830.006 580.342H794.709L764.843 567.788L759.8 560.256H799.364L842.418 553.477L850.176 540.422L857.933 547.703L922.321 556.239L935.509 544.439L891.291 517.073L935.509 512.051L914.175 494.477L883.533 491.464H850.176L808.285 470.625L815.267 457.319L864.139 454.557L926.587 440.497L940.939 420.412V400.075L907.194 375.973L935.509 351.619L898.66 334.546H864.139L850.176 317.976L891.291 274.792L864.139 214.787L836.988 224.328L790.442 227.592L828.454 190.936L800.139 178.382L751.655 190.936L709.764 153.778L663.994 182.148L607.752 164.072H579.825V210.77L510.395 203.238C501.215 209.18 482.545 221.717 481.304 224.328C480.063 226.939 468.633 250.523 463.074 261.988L477.037 294.878L463.074 302.159C456.48 299.732 441.585 294.878 434.759 294.878C427.932 294.878 414.331 302.075 408.383 305.674L412.65 334.546L434.759 342.079L420.795 351.619L446.395 386.769L499.146 410.871L490.225 431.71L526.298 464.097L504.965 457.319L499.146 477.404L512.334 489.706C509.878 491.464 504.965 495.431 504.965 497.238C504.965 499.046 542.977 521.424 561.983 532.388L556.164 544.439L515.437 547.703ZM548.795 504.017C542.899 503.013 551.251 494.058 556.164 489.706H579.825L617.449 477.404L612.407 509.29L579.825 512.051C571.938 509.792 554.69 505.021 548.795 504.017ZM567.413 420.412L544.528 436.982H531.34L536.771 410.871L567.413 420.412ZM708.988 313.708L664.77 322.746C676.277 326.68 700.532 334.546 705.497 334.546C710.462 334.546 749.715 320.654 768.721 313.708C780.616 304.921 804.251 286.894 803.63 285.086C803.01 283.278 786.305 277.47 778.03 274.792L772.212 247.677L708.988 313.708ZM803.63 351.619L790.442 390.786L854.442 375.973L833.497 354.632L842.418 344.84L828.454 329.525L803.63 351.619ZM760.576 464.097L742.346 457.319L725.667 467.11L705.497 464.097L693.861 483.43H668.649C677.958 485.522 698.36 489.706 705.497 489.706C712.634 489.706 737.691 481.505 749.327 477.404L760.576 464.097Z" fill="#82942E"/>
</g>
<rect id="Rectangle 59" width="737" height="89" transform="matrix(1 0 0 -1 1205 150.039)" fill="#66B7D0"/>
<rect id="Rectangle 60" width="735" height="97" transform="matrix(1 0 0 -1 1207 267.039)" fill="#66B7D0"/>
<rect id="Rectangle 61" width="735" height="105" transform="matrix(1 0 0 -1 1207 399.039)" fill="#66B7D0"/>
<rect id="Rectangle 62" width="735" height="98" transform="matrix(1 0 0 -1 1207 529.039)" fill="#66B7D0"/>
<rect id="Rectangle 68" width="735" height="107" transform="matrix(1 0 0 -1 1207 656.039)" fill="#3790AC"/>
<path id="Union_2" fill-rule="evenodd" clip-rule="evenodd" d="M181.878 140.496H382.756V681.496H418.634V123.801H418.5V117.496H146.5V123.801H146V681.496H181.878V140.496Z" fill="#F1F1F1"/>
<path id="Union_3" fill-rule="evenodd" clip-rule="evenodd" d="M1782.31 61.0391H1942V29.0391H1133V61.0391H1478.62V139.039H1133V171.039H1478.62V267.039H1135V299.039H1478.62V399.039H1135V431.039H1478.62V522.039H1133V554.039H1478.62V655.827H1506.93V554.039H1754V656.317H1782.31V554.039H1942V522.039H1782.31V431.039H1942V399.039H1782.31V299.039H1942V267.039H1782.31V171.039H1942V139.039H1782.31V61.0391ZM1754 61.0391H1506.93V139.039H1754V61.0391ZM1754 171.039H1506.93V267.039H1754V171.039ZM1754 299.039L1506.93 299.039V399.039H1754V299.039ZM1754 431.039H1506.93V522.039H1754V431.039Z" fill="#F1F1F1"/>
<g id="Frame 4">
<rect width="170" height="513" transform="translate(196 154.039)" fill="#C4C4C4"/>
<rect id="Rectangle 67" width="170" height="97" transform="matrix(1 0 0 -1 196 251.039)" fill="#66B7D0"/>
<rect id="Rectangle 71" width="170" height="97" transform="matrix(1 0 0 -1 196 355.039)" fill="#66B7D0"/>
<rect id="Rectangle 72" width="170" height="97" transform="matrix(1 0 0 -1 196 459.039)" fill="#66B7D0"/>
<rect id="Rectangle 73" width="170" height="97" transform="matrix(1 0 0 -1 196 563.039)" fill="#66B7D0"/>
<rect id="Rectangle 70" width="170" height="97" transform="matrix(1 0 0 -1 196 667.039)" fill="#3790AC"/>
</g>
<g id="tree-right">
<path d="M1268.72 727.825H1234.55L1242.54 673.478V575.771H1256.59L1260.74 702.285L1268.72 727.825Z" fill="#584A30"/>
<path d="M1228.34 634.584V617.084L1238.24 623.906L1242.07 609.965L1258.69 604.625H1268.91L1294.15 630.135L1326.73 627.465L1359.96 609.965L1341.11 601.066L1333.76 589.201L1378.81 562.208L1418.42 550.047L1385.2 530.766V509.706L1432.16 462.84L1394.46 423.686L1438.55 429.025L1462.51 411.228L1456.12 341.818L1438.55 320.461L1346.22 341.818L1320.03 315.122L1399.57 210.414L1362.84 175.413L1304.05 201.515L1263.8 155.242L1226.1 205.372L1139.84 198.253L1096.39 290.799L1113 333.216L1081.38 390.167L1038.57 402.329L1050.07 423.686L1102.46 450.678L1155.18 550.047L1170.19 593.057H1200.54V609.965L1187.12 623.906L1205.65 642.89L1228.34 634.584Z" fill="#776F0D"/>
<path fill-rule="evenodd" clip-rule="evenodd" d="M1110.13 515.147C1113.2 518.947 1116.31 526.627 1117.48 529.992L1154.22 548.103L1282.63 570.37L1300.52 587.887L1379.42 597.981L1385.81 591.746L1364.09 570.37H1379.42L1369.2 553.744H1340.13L1315.53 538.899L1311.38 529.992H1343.96L1379.42 521.976L1385.81 506.537L1392.2 515.147L1445.23 525.242L1456.09 511.288L1419.67 478.926L1456.09 472.988L1438.52 452.205L1413.28 448.642H1385.81L1351.31 424L1357.06 408.265L1397.31 404.999L1448.74 388.372L1460.56 364.621V340.572L1432.77 312.07L1456.09 283.271L1425.74 263.082H1397.31L1385.81 243.487L1419.67 192.421L1397.31 121.463L1374.95 132.745L1336.62 136.604L1367.92 93.2575L1344.6 78.4127L1304.67 93.2575L1270.17 49.3169L1232.48 82.8662L1186.16 61.4896H1163.16V116.712L1105.98 107.805C1098.42 114.832 1083.05 129.657 1082.02 132.745C1081 135.832 1071.59 163.721 1067.01 177.279L1078.51 216.173L1067.01 224.783C1061.58 221.913 1049.31 216.173 1043.69 216.173C1038.07 216.173 1026.87 224.684 1021.97 228.939L1025.48 263.082L1043.69 271.989L1032.19 283.271L1053.27 324.837L1096.72 353.339L1089.37 377.981L1119.08 416.281L1101.51 408.265L1096.72 432.016L1107.58 446.564C1105.56 448.642 1101.51 453.333 1101.51 455.471C1101.51 457.609 1132.81 484.072 1148.47 497.037L1143.68 511.288L1110.13 515.147ZM1137.61 463.487C1132.75 462.3 1139.63 451.71 1143.68 446.564H1163.16L1194.15 432.016L1189.99 469.722L1163.16 472.988C1156.67 470.316 1142.46 464.675 1137.61 463.487ZM1152.94 364.621L1134.09 384.216H1123.23L1127.7 353.339L1152.94 364.621ZM1269.53 238.44L1233.12 249.128C1242.6 253.779 1262.57 263.082 1266.66 263.082C1270.75 263.082 1303.08 246.654 1318.73 238.44C1328.52 228.048 1347.99 206.731 1347.48 204.594C1346.97 202.456 1333.21 195.588 1326.39 192.421L1321.6 160.356L1269.53 238.44ZM1347.48 283.271L1336.62 329.587L1389.32 312.07L1372.07 286.834L1379.42 275.255L1367.92 257.144L1347.48 283.271ZM1312.02 416.281L1297.01 408.265L1283.27 419.843L1266.66 416.281L1257.08 439.142H1236.31C1243.98 441.616 1260.78 446.564 1266.66 446.564C1272.54 446.564 1293.17 436.866 1302.76 432.016L1312.02 416.281Z" fill="#82942E"/>
</g>
<g id="bear">
<path d="M912.291 465.332L874.499 503.316V686.522L937.422 749.637L980.394 756.543H1010.7L1046.77 749.637L1107.01 708.392L1094.92 544.753L1034.68 465.332L967.541 449.985L912.291 465.332Z" fill="#E8BB84"/>
<path d="M912.291 465.332L874.499 503.316V686.522L937.422 749.637L980.394 756.543H1010.7L1046.77 749.637L1107.01 708.392L1078.04 559.716L1028.74 489.311L977.324 472.813L912.291 465.332Z" fill="#F4D3A8"/>
<path d="M1067.68 686.139L1047.35 709.543L1040.63 778.797L1075.55 800.283L1108.73 793.952L1143.46 762.299L1150.56 717.025L1130.22 683.453L1095.88 673.669L1067.68 686.139Z" fill="#E8BB84"/>
<path d="M894.648 505.852H887.502L881.288 583.06L887.347 689.784L943.893 750.215L975.429 754.875L955.234 735.457L903.969 589.74L894.648 505.852Z" fill="#ECC799"/>
<path d="M1067.68 686.139L1047.35 709.543L1047.35 766.327L1073.44 781.866H1099.14L1133.1 756.16L1150.56 717.025L1130.22 683.453L1095.88 673.669L1067.68 686.139Z" fill="#F4D3A8"/>
<path d="M944.904 747.526L934.161 767.669L853.781 794.527L775.702 800.666L764 767.669L780.69 740.62L793.735 707.624L816.564 686.33L889.079 689.975L944.904 747.526Z" fill="#E8BB84"/>
<path d="M847.258 767.669V782.057L837.858 792.992L775.702 800.666L764 767.669L780.69 740.62L793.735 707.624L816.564 686.33L837.858 740.62L847.258 767.669Z" fill="#F4D3A8"/>
<path d="M844.764 488.353L821.936 498.328L768.221 698.416L794.119 732.372L835.94 743.306L887.736 698.416L881.597 582.929L887.736 505.234L876.61 488.353H844.764Z" fill="#E8BB84"/>
<path d="M844.764 488.353L821.936 498.328L768.221 698.416L794.119 732.372L825.58 717.216L852.246 682.877L866.442 582.545L876.61 507.728V488.353H844.764Z" fill="#F4D3A8"/>
<path d="M1099.72 539.765L1091.08 554.345L1076.31 592.521L1087.63 656.595L1099.72 665.228L1120.05 691.893L1138.85 695.346L1161.49 676.93L1177.41 642.207L1174.34 585.998L1112.19 536.312L1099.72 539.765Z" fill="#E8BB84"/>
<path d="M1099.72 539.765L1091.08 554.345L1076.31 592.521L1087.63 656.595L1099.72 665.228L1119.09 668.681H1129.84L1152.86 661.199L1166.29 641.823L1174.34 585.998L1112.19 536.312L1099.72 539.765Z" fill="#F4D3A8"/>
<path d="M905.194 410.274L908.263 374.017L926.104 356.751L965.431 345.049L1019.72 353.298L1064.8 383.8L1075.5 438.858L1064.8 466.483L1019.72 468.785L943.178 453.054L905.194 410.274Z" fill="#F4D3A8"/>
<path d="M904.81 376.894L887.928 374.592L880.83 368.645L878.719 355.216L884.475 344.665L904.81 321.453L933.969 325.098L957.182 340.637L953.728 354.065L924.569 356.175L904.81 376.894Z" fill="#F4D3A8"/>
<path d="M905.194 377.086L887.928 374.784L915.553 342.555L957.374 341.02L953.729 354.257L925.851 356.996L905.194 377.086Z" fill="#ECC799"/>
<path d="M1089.93 393.2L1073.63 399.147L1070.04 422.496L1087.25 449.985L1115.26 445.956L1125.42 413.727L1110.08 394.927L1089.93 393.2Z" fill="#ECC799"/>
<path d="M1089.93 393.2L1073.63 399.147L1070.04 422.496L1088.78 438.858L1114.11 435.021L1125.42 413.727L1110.08 394.927L1089.93 393.2Z" fill="#F4D3A8"/>
<path d="M930.844 417.769H912.047L943.272 453.033L1019.7 468.879L1064.75 466.082L1070.04 452.101L1056.99 457.227H1049.22L1032.6 445.576L1018.62 442.314L997.023 434.546L985.838 424.449L955.855 428.954L930.844 417.769Z" fill="#E8BB84"/>
<path d="M1107.17 690.716L1110.58 679.531L1120.21 691.804L1137.3 695.066L1150.35 717.436L1140.88 739.185L1131.55 735.923L1119.13 722.252L1114.78 704.853L1107.17 690.716Z" fill="#ECC799"/>
</g>
</g>
</g>
</svg>
