<svg width="347" height="531" viewBox="0 0 347 531" fill="none" xmlns="http://www.w3.org/2000/svg">
<path fill-rule="evenodd" clip-rule="evenodd" d="M171.378 0.42342C168.228 1.87142 167.967 7.94142 170.985 9.57642L172.079 10.1694L171.949 90.3204C171.877 134.403 171.924 172.24 172.054 174.403L172.289 178.336L173.485 178.223L174.68 178.109L174.882 163.226C174.993 155.039 175.103 117.228 175.127 79.2014L175.172 10.0594L176.29 8.86142C179.972 4.91642 176.095 -1.74358 171.378 0.42342ZM174.116 3.61942C175.736 4.90842 174.327 7.82642 172.611 6.73642C171.436 5.99042 171.269 4.43642 172.278 3.63442C173.195 2.90442 173.218 2.90442 174.116 3.61942ZM157.978 17.0884C154.641 17.7644 152.875 22.6604 155.003 25.3324C155.56 26.0304 154.745 28.5264 131.933 96.0984C109.331 163.042 105.073 175.793 104.596 177.96L104.383 178.928L111.038 179.168C114.698 179.3 121.915 179.518 127.076 179.652L136.459 179.896L136.663 186.258C136.867 192.647 137.863 247.536 138.493 287.133C138.678 298.798 138.973 314.872 139.148 322.853C139.322 330.835 139.564 344.607 139.685 353.458C139.855 365.812 140 369.551 140.309 369.551C141.154 369.551 149.461 367.283 149.728 366.979C149.884 366.802 149.785 366.167 149.504 365.55L148.999 364.44L146.282 364.942C144.789 365.217 143.405 365.447 143.207 365.451C142.804 365.459 142.539 356.329 142.243 332.156C142.065 317.626 141.76 300.728 141.111 269.458C140.661 247.758 140.175 218.129 139.963 199.319C139.863 190.519 139.699 181.788 139.599 179.918L139.417 176.517L131.502 176.298C127.15 176.177 120.223 176.004 116.109 175.914C111.995 175.823 108.57 175.682 108.498 175.601C108.426 175.519 109.162 173.204 110.132 170.455C111.656 166.14 157.334 31.0324 158.211 28.2494C158.426 27.5644 158.765 27.2254 159.237 27.2244C160.315 27.2224 161.977 25.9074 162.583 24.5764C164.23 20.9574 161.421 16.3904 157.978 17.0884ZM187.001 17.2114C182.451 18.3044 182.898 27.2154 187.504 27.2244C187.975 27.2254 188.314 27.5644 188.53 28.2494C189.407 31.0324 235.085 166.14 236.609 170.455C237.579 173.204 238.312 175.522 238.238 175.606C238.164 175.69 231.212 175.914 222.79 176.103C214.367 176.292 207.403 176.53 207.314 176.631C207.225 176.731 207.102 179.952 207.04 183.787C206.979 187.622 206.78 199.216 206.599 209.551C206.418 219.886 206.129 238.221 205.957 250.295C205.785 262.37 205.491 278.026 205.305 285.086C205.117 292.146 204.821 308.639 204.647 321.737C204.258 350.839 203.954 364.555 203.686 365.049C203.556 365.287 201.418 364.98 197.76 364.197L192.038 362.972L191.875 359.568L191.711 356.164L190.729 356.895C188.763 358.358 188.684 362.805 190.565 366.016C191.766 368.068 191.873 368.162 191.874 367.182C191.875 366.273 191.984 366.141 192.611 366.288C193.017 366.383 196.33 367.187 199.975 368.075C203.619 368.962 206.657 369.616 206.726 369.527C206.795 369.438 206.946 362.249 207.064 353.551C207.181 344.853 207.42 331.123 207.594 323.039C207.768 314.956 208.061 298.714 208.244 286.946C208.428 275.179 208.722 258.184 208.9 249.179C209.078 240.174 209.371 223.765 209.552 212.714C209.732 201.663 209.971 189.757 210.081 186.257L210.282 179.894L219.829 179.651C237.42 179.203 242.312 178.957 242.311 178.52C242.306 177.699 237.925 164.568 214.774 96.0004L191.197 26.1704L191.862 24.9314C193.089 22.6444 192.395 18.5554 190.64 17.7314C189.402 17.1504 188.055 16.9584 187.001 17.2114ZM159.778 20.9004C160.567 21.7964 160.58 21.9854 159.924 23.0504C159.098 24.3884 156.831 23.8084 156.831 22.2584C156.831 20.4834 158.667 19.6374 159.778 20.9004ZM189.4 20.9834C190.293 22.4314 189.645 23.8774 188.104 23.8774C186.645 23.8774 185.947 22.0544 186.962 20.9004C187.821 19.9244 188.767 19.9564 189.4 20.9834ZM157.182 53.9244C154.716 55.3534 153.857 58.9824 155.419 61.3814L156.136 62.4844L138.369 115.645L120.602 168.807L135.725 168.904L150.849 169L151.063 175.973C151.181 179.809 151.366 184.178 151.476 185.684L151.674 188.421L152.822 187.116C154.225 185.522 154.444 182.871 154.054 172.214L153.812 165.644H139.437C131.531 165.644 125.065 165.602 125.069 165.551C125.073 165.5 132.714 142.614 142.05 114.692L159.023 63.9274L160.287 63.4304C161.904 62.7944 162.938 61.6814 163.404 60.0774C164.651 55.7854 160.704 51.8834 157.182 53.9244ZM185.788 53.7824C181.949 55.7554 182.315 61.8694 186.365 63.4024L187.715 63.9144L204.69 114.686C214.026 142.611 221.668 165.5 221.672 165.551C221.675 165.602 215.209 165.644 207.304 165.644H192.928L192.687 172.22C192.302 182.692 192.542 185.553 193.935 187.135L195.066 188.421L195.265 185.684C195.374 184.178 195.56 179.809 195.678 175.973L195.892 169L211.017 168.904L226.143 168.807L208.374 115.645L190.605 62.4844L191.264 61.4704C193.914 57.3984 189.851 51.6944 185.788 53.7824ZM160.128 57.0064C160.845 57.4434 160.99 59.1884 160.368 59.8954C159.817 60.5214 158.611 60.4514 158 59.7574C156.57 58.1314 158.3 55.8944 160.128 57.0064ZM188.74 57.2064C189.778 58.3854 189.002 60.3424 187.496 60.3424C186.515 60.3424 185.98 59.6644 185.98 58.4254C185.98 56.8024 187.711 56.0374 188.74 57.2064ZM105.222 195.039C105.222 199.235 105.27 200.951 105.328 198.853C105.386 196.756 105.386 193.323 105.328 191.226C105.27 189.128 105.222 190.844 105.222 195.039ZM281.752 195.039C281.752 199.235 281.799 200.951 281.858 198.853C281.917 196.756 281.917 193.323 281.858 191.226C281.799 189.128 281.752 190.844 281.752 195.039ZM2.33313 189.638C-1.12426 191.345 -0.618154 197.993 3.05137 199.073L4.04599 199.366L20.1597 265.017C44.2787 363.282 44.4213 363.863 50.7138 388.9C53.9282 401.691 57.3892 415.672 58.4049 419.97C63.069 439.708 64.2221 444.535 64.2943 444.626C64.3374 444.681 72.2433 442.887 81.8629 440.64C117.587 432.295 127.028 430.261 127.017 430.912C127.011 431.238 127.698 451.528 128.544 476.002L130.082 520.5L128.84 521.793C125.778 524.98 127.68 530.663 131.809 530.667C135.998 530.671 137.77 525.182 134.67 521.807L133.143 520.144L131.516 473.22C130.622 447.411 129.857 426.25 129.817 426.195C129.729 426.076 112.578 430.066 100.826 432.941C91.5045 435.223 66.7201 440.694 66.5555 440.507C66.4974 440.441 65.3426 436.128 63.9888 430.923C62.1378 423.809 61.0816 420.442 59.7331 417.365C57.449 412.155 55.9844 405.612 55.9633 400.53C55.9527 397.936 52.9433 385.387 25.8035 274.775L7.15923 198.789L7.97692 197.421C10.6994 192.863 6.77106 187.446 2.33313 189.638ZM340.008 189.815C337.848 191.312 337.26 194.905 338.766 197.425L339.586 198.797L320.897 274.965C310.618 316.857 300.957 356.218 299.426 362.434C294.556 382.224 291.111 397.521 291.111 399.363C291.111 405.949 288.849 414.85 285.731 420.528C285.451 421.039 284.107 425.721 282.747 430.932C281.388 436.143 280.23 440.456 280.177 440.517C280.02 440.696 254.998 435.163 245.915 432.941C234.163 430.066 217.012 426.076 216.924 426.195C216.884 426.25 216.118 447.412 215.223 473.221L213.595 520.147L212.028 521.854L210.462 523.558L210.606 525.828C210.804 528.932 211.979 530.349 214.533 530.562C218.959 530.935 221.164 525.19 217.898 521.79L216.655 520.495L218.195 476C219.043 451.527 219.73 431.238 219.725 430.912C219.712 430.261 229.156 432.296 264.878 440.64C274.497 442.887 282.406 444.681 282.453 444.626C282.498 444.572 284.249 437.244 286.343 428.342C288.436 419.439 292.233 403.951 294.781 393.923C297.328 383.895 309.151 336.017 321.055 287.528L342.698 199.365L343.691 199.072C347.404 197.98 347.86 191.294 344.335 189.622C342.783 188.885 341.253 188.953 340.008 189.815ZM5.66026 193.02C6.33184 193.782 6.30984 194.395 5.57488 195.426C4.32853 197.175 1.96257 195.222 3.04785 193.34C3.65078 192.295 4.88833 192.143 5.66026 193.02ZM343.693 193.34C344.778 195.222 342.412 197.175 341.166 195.426C340.431 194.395 340.409 193.782 341.08 193.02C341.852 192.143 343.09 192.295 343.693 193.34ZM15.4489 199.471C10.8094 201.907 12.8541 209.583 17.9944 209.028L19.8243 208.831L32.5783 221.377C45.3323 233.924 55.8779 244.054 56.7845 244.631C57.1806 244.882 57.2668 244.609 57.2668 243.114V241.291L52.4363 236.358C49.779 233.644 41.7816 225.679 34.6635 218.658L21.7229 205.893L21.8232 204.28C22.0653 200.394 18.6281 197.801 15.4489 199.471ZM328.003 199.143C326.037 199.812 324.711 202.074 324.908 204.42L325.031 205.89L309.627 221.054C301.155 229.394 291.113 239.404 287.312 243.297C283.511 247.191 277.998 252.696 275.061 255.53C266.408 263.879 266.441 263.839 266.889 265.272C267.456 267.085 267.925 266.72 278.011 256.626C280.082 254.553 285.536 249.247 290.129 244.836C294.722 240.424 304.882 230.515 312.705 222.815L326.929 208.816L328.613 209.041C329.832 209.204 330.577 209.102 331.309 208.672C336.155 205.825 333.221 197.367 328.003 199.143ZM18.3139 202.494C19.0717 202.955 19.1721 204.783 18.4767 205.439C16.9839 206.846 14.86 204.49 16.1548 202.865C16.8273 202.02 17.3791 201.926 18.3139 202.494ZM330.586 202.865C331.448 203.947 330.916 205.598 329.65 205.764C328.466 205.919 327.793 205.26 327.793 203.943C327.793 202.183 329.514 201.519 330.586 202.865ZM151.419 240.621C151.419 256.788 151.46 263.348 151.509 255.198C151.558 247.048 151.558 233.82 151.509 225.803C151.46 217.785 151.419 224.453 151.419 240.621ZM184.751 223.224C186.688 223.29 189.856 223.29 191.793 223.224C193.729 223.158 192.145 223.105 188.272 223.105C184.399 223.105 182.815 223.158 184.751 223.224ZM25.3343 225.928C19.9211 227.241 20.9712 236.353 26.4803 235.873L27.9547 235.745L37.6156 245.082C45.6139 252.81 55.069 261.738 56.8575 263.25C57.1709 263.515 57.2668 263.153 57.2668 261.7V259.804L52.6 255.083C50.0325 252.486 43.9979 246.532 39.1885 241.852L30.4438 233.342L30.6296 231.56C31.0133 227.881 28.4634 225.168 25.3343 225.928ZM319.346 225.948C317.152 226.476 315.822 228.783 316.111 231.559L316.297 233.342L302.967 246.305C277.081 271.478 277.439 271.094 279.28 271.72C281.011 272.31 281.306 272.049 306.832 247.323L318.786 235.743L320.26 235.872C322.866 236.101 324.886 234.014 324.925 231.054C324.973 227.45 322.502 225.189 319.346 225.948ZM27.1572 229.285C27.9142 229.746 28.0154 231.574 27.3192 232.23C25.8272 233.637 23.7033 231.281 24.9981 229.655C25.6705 228.811 26.2215 228.716 27.1572 229.285ZM321.743 229.655C322.605 230.738 322.073 232.389 320.808 232.555C319.623 232.71 318.95 232.05 318.95 230.733C318.95 228.974 320.671 228.31 321.743 229.655ZM192.963 230.472C191.692 230.937 191.443 232.936 191.609 241.328L191.711 246.501L192.89 246.964L194.07 247.427L194.281 242.722C194.566 236.372 194.55 230.008 194.249 230.054C194.114 230.075 193.536 230.263 192.963 230.472ZM89.7662 232.525L99.8303 232.632L99.9289 239.975L100.027 247.319L100.018 239.877L100.007 232.435L89.8542 232.427L79.7012 232.418L89.7662 232.525ZM266.296 232.525L276.36 232.632L276.458 239.975L276.557 247.319L276.547 239.877L276.537 232.435L266.384 232.427L256.232 232.418L266.296 232.525ZM31.0758 254.306C27.4864 256.37 28.6042 263.877 32.5017 263.877C32.845 263.877 33.6099 266.085 35.1115 271.412C36.2795 275.556 39.5213 287.067 42.3141 296.993C45.1078 306.919 49.2386 321.319 51.4936 328.993L55.5936 342.946L55.5232 337.923L55.4519 332.9L52.5763 322.295C49.5933 311.293 36.8393 265.655 36.2857 264.003C36.0278 263.23 36.1176 262.866 36.7935 261.953C39.7915 257.905 35.2893 251.884 31.0758 254.306ZM310.396 255.275C308.742 257.154 308.556 260.074 309.967 261.98C310.43 262.606 310.739 263.246 310.654 263.404C310.569 263.562 307.817 273.235 304.539 284.9C290.354 335.385 290.408 335.173 290.674 339.423C290.788 341.259 290.979 342.76 291.098 342.76C291.353 342.76 300.16 312.366 307.163 287.319C313.99 262.901 313.695 263.877 314.244 263.877C316.064 263.877 317.964 261.293 317.967 258.815C317.97 254.29 313.219 252.068 310.396 255.275ZM34.3413 257.551C35.8403 259.255 33.9426 261.826 32.2341 260.406C31.0529 259.425 31.7976 256.807 33.2569 256.807C33.4928 256.807 33.9804 257.142 34.3413 257.551ZM314.507 257.301C315.688 258.282 314.943 260.9 313.484 260.9C312.899 260.9 311.745 259.541 311.745 258.853C311.745 257.391 313.456 256.429 314.507 257.301ZM105.158 286.106L105.084 293.638L85.0237 293.737L64.9632 293.836L85.0342 293.926C101.092 293.998 105.136 293.921 105.265 293.54C105.353 293.278 105.383 289.804 105.329 285.819L105.233 278.574L105.158 286.106ZM281.688 286.106L281.614 293.638L261.553 293.737L241.493 293.836L261.564 293.926C277.622 293.998 281.667 293.921 281.795 293.54C281.883 293.278 281.912 289.804 281.859 285.819L281.763 278.574L281.688 286.106ZM173.128 279.768C173.536 279.857 174.126 279.853 174.439 279.76C174.751 279.667 174.419 279.594 173.698 279.598C172.977 279.603 172.721 279.679 173.128 279.768ZM233.774 295.978C229.556 299.922 229.123 300.366 229.307 300.574C229.404 300.685 234.2 301.75 239.964 302.941C245.727 304.132 250.935 305.224 251.536 305.368C253.56 305.853 252.074 304.926 248.534 303.498C246.644 302.734 244.433 301.731 243.622 301.269C242.811 300.807 240.633 300.046 238.78 299.577L235.412 298.725L236.556 297.394L237.7 296.062L237.026 294.853C236.655 294.188 236.33 293.648 236.302 293.653C236.275 293.658 235.138 294.704 233.774 295.978ZM110.102 295.292L109.398 296.513L110.393 297.643L111.387 298.773L109.05 299.377C107.443 299.792 106.067 300.472 104.642 301.557C103.503 302.423 102.289 303.319 101.944 303.546C101.599 303.774 104.904 303.244 109.287 302.368C113.67 301.493 117.323 300.7 117.404 300.608C117.549 300.444 115.33 298.196 112.285 295.419L110.806 294.071L110.102 295.292ZM153.645 306.081C153.864 318.532 153.761 317.898 155.334 316.471L156.503 315.412L156.501 309.458C156.498 298.975 156.321 297.622 154.767 296.203L153.451 295.002L153.645 306.081ZM191.75 296.44L190.478 297.716L190.311 306.226L190.146 314.736L191.347 315.777C192.008 316.349 192.625 316.729 192.721 316.621C192.923 316.391 193.353 295.125 193.154 295.148C193.081 295.157 192.449 295.738 191.75 296.44ZM280.323 301.24C278.734 302.184 278.529 302.717 277.061 309.73L276.459 312.607L277.547 313.55L278.635 314.493L279.294 311.975C279.655 310.591 280.333 307.616 280.8 305.365C281.266 303.114 281.709 301.063 281.784 300.807C281.951 300.237 282.069 300.202 280.323 301.24ZM65.1269 301.349C65.1269 301.618 66.8204 309.041 66.912 309.173C66.9445 309.22 67.4542 309.053 68.043 308.8C69.2049 308.303 69.2515 307.738 68.3995 304.435C68.1055 303.293 65.1269 300.485 65.1269 301.349ZM87.2347 304.25C87.0543 304.321 85.0862 304.753 82.861 305.21L78.8157 306.041L79.012 307.439C79.4248 310.37 79.9802 311.553 81.3823 312.487L82.7361 313.389L82.3039 311.052C81.767 308.142 81.1922 308.524 88.6316 306.842C95.6309 305.258 95.8395 305.071 91.2722 304.476C87.9899 304.048 87.7796 304.036 87.2347 304.25ZM254.258 371.412C254.258 387.477 254.299 394.049 254.348 386.016C254.397 377.984 254.397 364.839 254.348 356.807C254.299 348.774 254.258 355.346 254.258 371.412ZM184.751 347.503C186.688 347.569 189.856 347.569 191.793 347.503C193.729 347.437 192.145 347.384 188.272 347.384C184.399 347.384 182.815 347.437 184.751 347.503ZM286.174 358.235C285.737 358.764 284.976 359.469 284.483 359.801C283.641 360.368 280.083 371.319 279.169 376.159C278.949 377.328 280.044 378.176 281.197 377.728C281.73 377.521 287.524 357.272 287.049 357.272C287.005 357.272 286.611 357.705 286.174 358.235ZM266.373 361.719C264.207 362.717 262.556 371.246 263.884 374.574L264.478 376.063L265.001 374.016C265.564 371.815 267.342 364.068 267.671 362.388C267.884 361.297 267.603 361.153 266.373 361.719ZM155.193 379.806C155.193 383.46 155.488 384.011 156.177 381.643C156.525 380.441 155.882 376.249 155.348 376.249C155.263 376.249 155.193 377.849 155.193 379.806ZM131.612 378.324C126.659 379.017 120.911 379.88 118.84 380.242L115.073 380.9L114.969 382.348L114.864 383.796L118.08 383.532C119.848 383.386 125.493 382.703 130.623 382.014C135.753 381.324 140.027 380.847 140.121 380.954C140.214 381.06 140.342 382.623 140.404 384.428L140.518 387.709L139.586 387.928C139.074 388.048 136.296 388.571 133.414 389.09C127.105 390.226 117.835 392.136 116.138 392.65C114.382 393.181 114.235 395.598 115.958 395.598C117.17 395.598 129.781 393.4 136.033 392.1C141.125 391.041 140.596 390.582 140.728 396.163L140.835 400.762L139.744 400.96C139.145 401.069 135.117 401.759 130.794 402.494C123.746 403.693 114.193 405.554 114.067 405.754C114.041 405.796 113.932 406.474 113.825 407.26L113.631 408.69L115.661 408.44C118.637 408.075 134.972 405.312 137.835 404.69C139.186 404.396 140.476 404.156 140.701 404.156C140.998 404.156 141.11 405.076 141.11 407.516C141.11 409.886 140.99 410.916 140.701 411.009C140.476 411.082 136.018 411.929 130.794 412.892C125.57 413.854 119.009 415.141 116.213 415.75L111.132 416.858L110.374 418.353C109.958 419.175 109.666 419.905 109.727 419.973C109.974 420.254 139.279 414.985 140.669 414.41C141.175 414.2 141.224 415.638 142.587 471.133C143.96 527.03 143.912 520.758 142.967 521.331C139.505 523.436 140.924 530.134 144.924 530.571C149.747 531.097 152.073 523.372 147.749 521.191C146.756 520.69 146.833 522.422 145.693 475.227C145.136 452.202 144.465 427.588 144.201 420.528C143.937 413.467 143.642 401.495 143.547 393.923C143.452 386.351 143.298 379.444 143.204 378.574C142.995 376.617 143.71 376.633 131.612 378.324ZM203.657 377.038C203.652 377.116 203.508 384.044 203.337 392.435C203.167 400.826 202.809 413.467 202.542 420.528C202.275 427.588 201.602 452.202 201.046 475.227C199.908 522.419 199.985 520.69 198.992 521.191C194.667 523.372 196.994 531.097 201.816 530.571C205.817 530.134 207.236 523.436 203.774 521.331C202.835 520.76 202.784 527.498 204.159 470.76C205.496 415.619 205.544 414.191 206.07 414.409C207.384 414.953 237.046 420.309 237.278 420.046C237.329 419.988 237.009 419.255 236.569 418.416L235.769 416.891L230.443 415.734C225.674 414.698 212.302 412.124 207.596 411.336L205.794 411.034L205.7 407.595C205.592 403.676 205.331 403.913 208.905 404.69C211.794 405.318 228.11 408.076 231.144 408.449L233.239 408.707L233.041 407.315C232.931 406.55 232.793 405.869 232.733 405.801C232.514 405.552 223.593 403.794 215.947 402.494C211.624 401.759 207.608 401.071 207.023 400.965L205.958 400.773V395.953C205.958 393.302 206.008 391.133 206.069 391.133C206.129 391.133 208.229 391.564 210.735 392.091C217.073 393.424 229.484 395.596 230.767 395.597C232.503 395.598 232.37 393.185 230.603 392.65C228.817 392.109 219.417 390.188 213.163 389.085C210.191 388.561 207.428 388.051 207.023 387.951C206.32 387.778 206.285 387.6 206.285 384.191V380.613L207.841 380.861C211.954 381.518 225.804 383.294 228.639 383.528L231.832 383.793V382.428C231.832 381.672 231.649 380.989 231.422 380.898C230.74 380.624 222.269 379.313 214.801 378.326C205.028 377.034 203.667 376.877 203.657 377.038ZM156.172 438.089C156.17 443.267 156.478 463.993 156.856 484.145C157.43 514.68 157.472 520.812 157.106 520.951C152.841 522.56 154.557 530.671 159.162 530.667C163.605 530.663 165.425 523.893 161.662 521.371L160.566 520.636L159.993 487.791C159.291 447.528 158.852 430.912 158.477 430.404C158.32 430.191 157.738 429.714 157.184 429.344L156.176 428.672L156.172 438.089ZM189.217 429.99L188.034 430.904L187.859 434.74C187.763 436.849 187.343 457.04 186.925 479.608L186.166 520.643L185.074 521.375C181.316 523.893 183.14 530.663 187.578 530.667C192.184 530.671 193.9 522.56 189.635 520.951C189.268 520.812 189.312 514.497 189.897 483.028C190.282 462.262 190.553 441.628 190.5 437.174L190.401 429.076L189.217 429.99ZM171.783 439.749C171.665 442.545 171.569 461.895 171.569 482.751V520.672L170.451 521.87C167.266 525.283 169.477 530.969 173.833 530.573C178.198 530.174 179.576 523.224 175.705 521.128L174.56 520.508L174.75 484.564C174.854 464.795 174.828 445.482 174.692 441.645L174.446 434.667H173.222H171.998L171.783 439.749ZM132.923 524.342C134.058 525.632 133.412 527.412 131.808 527.412C130.229 527.412 129.52 525.604 130.613 524.362C131.458 523.401 132.089 523.395 132.923 524.342ZM146.372 523.983C147.267 524.527 147.212 526.369 146.278 527.112C145.341 527.857 145.174 527.842 144.386 526.946C142.94 525.305 144.563 522.883 146.372 523.983ZM160.162 524.214C161.016 525.093 160.916 526.443 159.942 527.167C158.199 528.464 156.506 525.536 158.213 524.177C159.133 523.445 159.42 523.451 160.162 524.214ZM174.444 524.177C176.152 525.536 174.458 528.464 172.715 527.167C171.771 526.464 171.656 525.261 172.438 524.279C173.101 523.448 173.501 523.427 174.444 524.177ZM188.527 524.177C190.235 525.536 188.541 528.464 186.799 527.167C185.854 526.464 185.739 525.261 186.521 524.279C187.184 523.448 187.584 523.427 188.527 524.177ZM202.355 524.342C203.839 526.028 202.17 528.471 200.463 527.112C199.14 526.06 199.708 523.654 201.291 523.609C201.516 523.604 201.995 523.933 202.355 524.342ZM216.127 524.362C217.221 525.604 216.512 527.412 214.933 527.412C213.328 527.412 212.682 525.632 213.818 524.342C214.651 523.395 215.282 523.401 216.127 524.362Z" fill="#EDF4FC"/>
<path fill-rule="evenodd" clip-rule="evenodd" d="M171.957 176.288C171.924 177.333 171.991 179.216 172.107 180.474L172.318 182.761H173.581H174.844V180.426V178.091L173.553 178.231L172.26 178.371L172.139 176.38L172.017 174.389L171.957 176.288ZM110.733 179.297C111.048 179.391 111.564 179.391 111.88 179.297C112.195 179.203 111.937 179.127 111.306 179.127C110.676 179.127 110.418 179.203 110.733 179.297ZM235.356 179.304C235.764 179.393 236.353 179.389 236.666 179.296C236.979 179.203 236.646 179.13 235.926 179.134C235.205 179.138 234.949 179.215 235.356 179.304ZM153.952 185.014C153.915 185.537 153.377 186.522 152.758 187.203L151.632 188.443L151.502 186.997C151.431 186.202 151.441 187.813 151.525 190.575C151.609 193.338 151.704 195.636 151.734 195.681C151.765 195.726 152.34 194.816 153.011 193.657L154.232 191.551L154.127 187.807C154.069 185.748 153.99 184.491 153.952 185.014ZM192.574 187.865L192.529 191.667L193.84 193.969L195.15 196.272L195.152 193.889C195.153 192.578 195.217 190.082 195.294 188.343C195.376 186.487 195.341 185.844 195.21 186.787L194.986 188.393L193.949 187.159C193.379 186.48 192.845 185.506 192.765 184.994C192.685 184.482 192.599 185.774 192.574 187.865ZM206.695 200.436C206.699 201.254 206.767 201.546 206.845 201.083C206.923 200.62 206.92 199.95 206.838 199.594C206.756 199.239 206.692 199.617 206.695 200.436ZM139.883 200.808C139.886 201.627 139.954 201.918 140.032 201.455C140.11 200.992 140.107 200.322 140.025 199.966C139.943 199.611 139.879 199.989 139.883 200.808ZM85.9848 202.761C89.4404 202.821 95.1881 202.821 98.7573 202.761C102.327 202.701 99.4993 202.652 92.4745 202.652C85.4497 202.651 82.5292 202.701 85.9848 202.761ZM262.515 202.761C265.97 202.821 271.718 202.821 275.287 202.761C278.857 202.701 276.03 202.652 269.004 202.652C261.979 202.651 259.059 202.701 262.515 202.761ZM173.013 215.933C171.891 216.552 171.531 262.566 172.636 264.157C173.917 266.001 174.407 264.811 174.628 259.32C174.905 252.457 174.908 222.052 174.633 218.352C174.415 215.435 174.281 215.235 173.013 215.933ZM206.379 219.785C206.382 220.808 206.445 221.182 206.52 220.617C206.596 220.051 206.594 219.214 206.516 218.756C206.438 218.299 206.377 218.761 206.379 219.785ZM140.235 221.273C140.236 222.706 140.296 223.246 140.367 222.474C140.438 221.702 140.436 220.53 140.364 219.869C140.292 219.209 140.234 219.84 140.235 221.273ZM137.256 221.831C137.256 222.547 137.324 222.84 137.406 222.482C137.488 222.124 137.488 221.538 137.406 221.18C137.324 220.822 137.256 221.115 137.256 221.831ZM191.727 229.677C191.598 231.536 191.58 233.155 191.685 233.274C191.789 233.393 191.875 232.903 191.875 232.185C191.875 230.984 191.98 230.843 193.185 230.433C194.484 229.991 194.495 229.973 194.495 228.142V226.296H193.227H191.959L191.727 229.677ZM140.57 240.436C140.57 242.175 140.626 242.887 140.695 242.017C140.764 241.147 140.764 239.724 140.695 238.854C140.626 237.985 140.57 238.696 140.57 240.436ZM137.591 240.25C137.594 241.068 137.661 241.359 137.739 240.897C137.818 240.434 137.815 239.764 137.732 239.408C137.65 239.052 137.587 239.431 137.591 240.25ZM57.2175 242.957C57.2967 244.368 57.2219 244.913 56.9719 244.738C56.0063 244.06 56.8583 245.017 59.2173 247.26C62.3252 250.216 62.1791 250.182 62.1791 247.949C62.1791 246.19 62.136 246.114 59.6415 243.541L57.103 240.924L57.2175 242.957ZM194.256 242.668C194.256 243.589 194.321 243.966 194.399 243.506C194.476 243.045 194.476 242.292 194.399 241.831C194.321 241.371 194.256 241.747 194.256 242.668ZM191.304 246.761C191.337 250.717 191.391 250.854 192.913 250.854H194.204L194.103 249.118C194.011 247.502 193.925 247.352 192.858 246.947C191.927 246.594 191.67 246.273 191.496 245.241C191.353 244.392 191.288 244.896 191.304 246.761ZM281.269 249.273L280.139 250.668L281.368 249.386C282.511 248.193 282.747 247.878 282.497 247.878C282.442 247.878 281.889 248.506 281.269 249.273ZM278.81 251.692L277.847 252.901L278.912 251.808C279.497 251.207 279.976 250.663 279.976 250.599C279.976 250.311 279.706 250.564 278.81 251.692ZM205.748 258.296C205.748 260.24 205.804 261.036 205.871 260.064C205.938 259.092 205.938 257.501 205.871 256.529C205.804 255.557 205.748 256.352 205.748 258.296ZM140.897 259.04C140.897 260.78 140.954 261.492 141.022 260.622C141.092 259.752 141.092 258.329 141.022 257.459C140.954 256.589 140.897 257.301 140.897 259.04ZM137.911 257.924C137.911 258.64 137.979 258.934 138.061 258.575C138.143 258.217 138.143 257.631 138.061 257.273C137.979 256.915 137.911 257.208 137.911 257.924ZM208.654 258.668C208.654 259.385 208.722 259.678 208.803 259.32C208.886 258.961 208.886 258.375 208.803 258.017C208.722 257.659 208.654 257.952 208.654 258.668ZM56.7017 259.256C57.4005 260.212 57.5273 263.797 56.8443 263.272C56.0935 262.695 58.3591 264.937 60.2964 266.689L62.1791 268.392V266.586C62.1791 264.913 62.0647 264.657 60.6238 263.116C57.9559 260.263 56.1128 258.449 56.7017 259.256ZM264.501 265.784C261.102 269.377 261.009 269.556 261.892 270.859L262.463 271.701L264.915 269.439C267.979 266.613 268.567 265.977 267.815 266.299C266.825 266.724 266.382 264.312 267.257 263.254C268.73 261.473 267.592 262.517 264.501 265.784ZM84.6276 269.409C85.8757 272.03 90.7308 276.215 91.5045 275.336C91.6295 275.195 89.0752 272.56 85.6195 269.265L83.6761 267.413L84.6276 269.409ZM276.458 272.268L273.43 275.413H275.433C277.25 275.413 281.614 272.576 281.614 271.395C281.614 271.303 281.388 271.441 281.112 271.701C280.711 272.079 280.341 272.083 279.272 271.719L277.935 271.264L278.854 270.175C280.491 268.234 279.552 269.053 276.458 272.268ZM205.408 276.529C205.408 277.859 205.467 278.403 205.54 277.738C205.613 277.073 205.613 275.985 205.54 275.32C205.467 274.654 205.408 275.199 205.408 276.529ZM141.208 276.529C141.208 277.654 141.27 278.115 141.345 277.552C141.42 276.989 141.42 276.068 141.345 275.506C141.27 274.943 141.208 275.403 141.208 276.529ZM208.326 276.901C208.326 277.617 208.394 277.91 208.476 277.552C208.559 277.194 208.559 276.608 208.476 276.25C208.394 275.892 208.326 276.185 208.326 276.901ZM138.238 277.273C138.238 277.989 138.306 278.282 138.388 277.924C138.471 277.566 138.471 276.98 138.388 276.622C138.306 276.264 138.238 276.557 138.238 277.273ZM191.779 290.169C190.537 291.715 190.536 291.716 190.633 294.633L190.729 297.55L191.972 296.249L193.217 294.947L193.119 291.785L193.022 288.622L191.779 290.169ZM153.555 291.856V295.079L154.784 296.231L156.012 297.383L156.109 294.513L156.206 291.643L154.881 290.138L153.555 288.633V291.856ZM108.031 293.381C108.031 295.045 108.172 295.526 108.877 296.278C109.342 296.774 109.677 297.013 109.621 296.808C109.379 295.923 110.762 294.019 111.304 294.492C111.591 294.743 111.23 294.316 110.503 293.544C108.189 291.092 108.031 291.082 108.031 293.381ZM237.424 292.392L236.302 293.534L237.007 294.827C237.48 295.698 237.606 296.264 237.393 296.56C237.219 296.801 237.452 296.608 237.911 296.129C238.642 295.369 238.734 295.007 238.646 293.255L238.546 291.251L237.424 292.392ZM172.475 295.031C173.064 295.114 173.949 295.112 174.441 295.027C174.933 294.942 174.451 294.875 173.37 294.877C172.289 294.879 171.887 294.948 172.475 295.031ZM64.1507 297.459C64.1587 298.043 65.0582 301.748 65.0978 301.361C65.1295 301.05 67.7631 302.896 68.1512 303.502C68.5103 304.062 68.4619 303.741 67.7771 301.02C67.0747 298.23 67.0061 298.35 69.5886 297.879L71.1861 297.588L69.7127 297.319C67.198 296.859 64.1437 296.936 64.1507 297.459ZM276.864 297.338L275.555 297.575L277.152 297.873C279.706 298.348 279.666 298.3 279.137 300.279C278.882 301.235 278.671 302.062 278.67 302.118C278.668 302.173 279.275 301.865 280.021 301.433C281.126 300.792 281.432 300.74 281.689 301.147C281.932 301.532 281.964 301.507 281.834 301.039C281.741 300.706 281.789 300.288 281.941 300.109C282.094 299.931 282.319 299.157 282.443 298.389L282.669 296.994L280.422 297.047C279.186 297.076 277.585 297.207 276.864 297.338ZM156.274 299.599C156.274 300.724 156.335 301.185 156.411 300.622C156.486 300.059 156.486 299.138 156.411 298.575C156.335 298.013 156.274 298.473 156.274 299.599ZM190.335 299.599C190.335 300.724 190.397 301.185 190.472 300.622C190.547 300.059 190.547 299.138 190.472 298.575C190.397 298.013 190.335 298.473 190.335 299.599ZM172.115 298.358C171.995 298.495 171.897 302.095 171.897 306.358V314.11H173.162C174.699 314.11 174.844 313.419 174.844 306.11C174.844 299.085 174.666 298.11 173.38 298.11C172.804 298.11 172.235 298.222 172.115 298.358ZM104.265 300.24C103.004 300.551 98.73 301.513 94.7674 302.378C87.0261 304.069 87.1159 303.98 92.4745 304.653C93.5553 304.789 94.6133 305.057 94.8263 305.25C95.3377 305.713 100.717 304.512 101.809 303.691C102.259 303.352 103.497 302.419 104.56 301.616C105.622 300.813 106.727 300.043 107.015 299.904C107.892 299.481 106.814 299.613 104.265 300.24ZM243.458 301.162C244.179 301.595 246.43 302.634 248.461 303.472C250.492 304.309 252.144 305.155 252.133 305.353C252.12 305.55 254.659 306.258 257.774 306.925C260.888 307.592 263.754 308.225 264.141 308.332C264.838 308.523 264.841 308.553 264.351 310.991C263.802 313.726 263.95 314.094 265.607 314.105C266.401 314.11 268.669 306.721 268.078 306.051C267.937 305.891 242.867 300.331 242.414 300.359C242.267 300.368 242.737 300.73 243.458 301.162ZM69.093 307.617C69.0684 308.135 68.6855 308.532 67.8968 308.856C67.0615 309.199 66.7816 309.506 66.8961 309.954C66.9832 310.296 67.2948 311.538 67.5879 312.715C68.1213 314.854 68.1213 314.854 69.4081 314.854C70.225 314.854 70.6906 314.685 70.6835 314.389C70.6598 313.418 69.1274 306.891 69.093 307.617ZM192.947 311.878C192.947 312.799 193.01 313.175 193.088 312.715C193.167 312.254 193.167 311.501 193.088 311.04C193.01 310.58 192.947 310.957 192.947 311.878ZM79.6782 311.642C79.7988 312.229 79.9819 313.191 80.0858 313.782C80.1896 314.372 80.4035 314.854 80.5611 314.854C80.7186 314.854 80.8462 315.315 80.8445 315.878C80.8418 316.79 84.3477 333.657 87.2444 346.668L88.3208 351.506L88.3508 345.923L88.3807 340.341L85.7604 327.412C84.3195 320.301 83.14 314.232 83.14 313.925C83.14 313.617 83.0071 313.366 82.8434 313.366C82.6806 313.366 82.5855 313.073 82.633 312.715C82.6797 312.357 82.6559 312.273 82.5785 312.529C82.3452 313.298 80.9862 312.607 79.908 311.172C79.5163 310.65 79.4872 310.709 79.6782 311.642ZM153.638 312.436C153.642 313.254 153.709 313.546 153.788 313.083C153.866 312.62 153.863 311.95 153.781 311.594C153.699 311.239 153.635 311.617 153.638 312.436ZM276.231 313.046C275.156 316.685 275.197 317.497 276.504 318.458L277.609 319.271L278.172 316.989C278.834 314.311 278.934 313.827 278.75 314.2C278.675 314.351 278.112 314.039 277.497 313.507C276.661 312.783 276.343 312.667 276.231 313.046ZM156.503 314.783C156.503 315.153 155.917 315.948 155.201 316.551C153.916 317.631 153.899 317.677 153.896 320.064C153.893 323.347 154.158 323.708 155.454 322.189C156.432 321.042 157.502 314.11 156.701 314.11C156.592 314.11 156.503 314.413 156.503 314.783ZM190.182 317.439C190.385 322.434 192.874 324.437 192.838 319.577L192.816 316.901L191.442 315.765L190.068 314.629L190.182 317.439ZM142.205 331.785C142.206 333.422 142.263 334.045 142.333 333.17C142.403 332.295 142.402 330.955 142.331 330.193C142.261 329.431 142.204 330.147 142.205 331.785ZM204.445 333.087C204.445 335.44 204.497 336.403 204.563 335.227C204.628 334.05 204.628 332.124 204.563 330.947C204.497 329.771 204.445 330.734 204.445 333.087ZM139.222 332.715C139.222 333.431 139.288 333.724 139.371 333.366C139.453 333.008 139.453 332.422 139.371 332.064C139.288 331.706 139.222 331.999 139.222 332.715ZM55.5662 338.535L55.4659 343.32L57.8142 351.32L60.1635 359.32L60.189 354.719L60.2145 350.119L58.0448 342.068C56.8522 337.64 55.8285 333.957 55.7713 333.884C55.7141 333.811 55.6226 335.904 55.5662 338.535ZM288.41 343.043C286.673 349.525 286.526 350.354 286.526 353.673V357.273H285.415C284.515 357.273 284.268 357.443 284.107 358.169C283.998 358.661 283.819 359.331 283.709 359.657C283.389 360.604 284.013 360.35 285.457 358.946C286.194 358.228 286.86 357.768 286.936 357.922C287.012 358.077 287.032 358.005 286.982 357.762C286.932 357.52 287.007 357.268 287.149 357.204C287.412 357.086 290.837 345.28 290.909 344.25C290.931 343.943 291.095 343.553 291.275 343.384C291.488 343.185 291.459 343.01 291.193 342.888C290.944 342.773 290.777 341.948 290.765 340.777C290.711 335.252 290.422 335.53 288.41 343.043ZM269.647 348.249L269.659 354.11L276.62 354.122L283.579 354.133L276.709 354.021L269.839 353.909L269.736 348.149L269.633 342.389L269.647 348.249ZM195.251 345.18C195.254 346.408 195.314 346.865 195.387 346.197C195.461 345.528 195.459 344.523 195.384 343.964C195.309 343.405 195.249 343.952 195.251 345.18ZM204.086 350.017C204.089 351.04 204.152 351.415 204.228 350.849C204.303 350.284 204.301 349.447 204.224 348.989C204.145 348.531 204.084 348.994 204.086 350.017ZM139.555 350.017C139.559 350.836 139.626 351.127 139.705 350.664C139.783 350.201 139.78 349.531 139.698 349.176C139.616 348.82 139.552 349.199 139.555 350.017ZM142.533 351.506C142.534 353.143 142.592 353.766 142.66 352.891C142.73 352.016 142.729 350.676 142.659 349.914C142.588 349.152 142.531 349.868 142.533 351.506ZM207.017 350.947C207.017 351.664 207.083 351.957 207.166 351.599C207.249 351.24 207.249 350.654 207.166 350.296C207.083 349.938 207.017 350.231 207.017 350.947ZM190.525 350.837C189.781 350.968 189.639 351.215 189.46 352.694C189.192 354.922 189.26 360.055 189.539 358.66C189.653 358.092 190.188 357.299 190.729 356.896L191.711 356.165L191.875 359.573C191.987 361.916 192.17 363.011 192.456 363.076C192.686 363.128 192.723 363.086 192.538 362.982C192.329 362.864 192.202 360.484 192.202 356.684C192.202 352.015 192.106 350.589 191.793 350.631C191.567 350.662 190.997 350.755 190.525 350.837ZM265.762 358.598C265.24 360.837 264.733 362.92 264.636 363.227C264.539 363.534 264.819 363.318 265.258 362.748C265.75 362.109 266.434 361.68 267.04 361.631C267.93 361.559 268.059 361.38 268.417 359.692C268.95 357.189 268.968 357.273 267.878 357.273C267.004 357.273 266.906 357.145 266.813 355.9C266.728 354.749 266.558 355.185 265.762 358.598ZM150.609 363.854C148.963 364.162 148.907 364.241 149.463 365.463C149.748 366.087 149.891 366.76 149.784 366.958C149.528 367.429 149.739 367.412 152.082 366.769C153.163 366.472 154.231 366.224 154.457 366.217C154.769 366.206 154.879 367.985 154.923 373.738C154.96 378.455 155.054 380.299 155.175 378.668L155.369 376.064L155.96 378.207C156.555 380.362 156.35 382.552 155.497 383.15C155.33 383.268 155.193 384.777 155.193 386.504V389.645H156.539H157.885L157.767 380.042C157.672 372.247 157.557 370.297 157.158 369.679C156.888 369.261 155.945 367.722 155.063 366.259C153.362 363.436 153.225 363.363 150.609 363.854ZM189.256 368.275L189.255 372.766L190.319 374.343L191.383 375.92L191.59 374.876C192.276 371.415 191.919 368.328 190.565 366.017L189.257 363.785L189.256 368.275ZM82.839 373.127C82.8126 378.502 83.3064 381.521 85.9566 392.187C86.5208 394.459 87.1088 394.364 87.7602 391.894C88.0717 390.713 84.3336 372.181 82.9913 368.25C82.9217 368.045 82.8531 370.24 82.839 373.127ZM260.923 379.94L258.738 390.141L259.409 392.181C260.254 394.746 260.129 395.04 262.627 384.622C263.756 379.915 264.745 375.813 264.825 375.506C264.937 375.081 264.9 375.061 264.671 375.423C264.234 376.111 263.565 374.316 263.313 371.785C263.115 369.797 263.046 370.034 260.923 379.94ZM278.224 379.238C277.927 380.453 277.684 381.544 277.684 381.661C277.684 383.049 280.469 381.444 280.968 379.769L281.528 377.892L280.734 377.818C280.298 377.777 279.676 377.582 279.353 377.386C278.839 377.073 278.698 377.304 278.224 379.238ZM203.439 380.529C203.441 381.757 203.502 382.214 203.575 381.545C203.648 380.877 203.646 379.872 203.572 379.313C203.497 378.754 203.438 379.301 203.439 380.529ZM172.388 382.203C173.275 383.227 174.074 384.064 174.164 384.064C174.255 384.064 173.603 383.227 172.715 382.203C171.828 381.18 171.029 380.343 170.938 380.343C170.849 380.343 171.501 381.18 172.388 382.203ZM112.044 381.191L109.996 381.563V382.999C109.996 384.418 110.011 384.435 111.224 384.395C112.978 384.338 116.534 383.812 115.612 383.746C114.915 383.697 114.852 383.547 114.965 382.203C115.105 380.534 115.295 380.599 112.044 381.191ZM231.773 382.173C231.888 383.549 231.828 383.697 231.129 383.746C230.207 383.812 233.763 384.338 235.516 384.395C236.73 384.435 236.744 384.419 236.744 382.995V381.555L235.06 381.301C234.134 381.162 232.988 380.959 232.511 380.851C231.673 380.66 231.65 380.703 231.773 382.173ZM269.634 392.994C269.634 397.394 269.682 399.194 269.74 396.994C269.798 394.794 269.798 391.194 269.74 388.994C269.682 386.794 269.634 388.594 269.634 392.994ZM206.034 392.25C206.034 392.966 206.101 393.259 206.184 392.901C206.266 392.543 206.266 391.957 206.184 391.599C206.101 391.24 206.034 391.534 206.034 392.25ZM143.526 396.157C143.527 398.408 143.58 399.281 143.645 398.097C143.71 396.912 143.71 395.071 143.644 394.004C143.578 392.937 143.525 393.906 143.526 396.157ZM112.371 393.267L109.996 393.829V395.272C109.996 396.409 110.118 396.709 110.569 396.687C111.763 396.629 116.35 395.686 115.646 395.643C114.814 395.593 114.535 393.228 115.319 392.868C116.081 392.519 114.801 392.692 112.371 393.267ZM231.422 392.837C232.202 393.255 231.929 395.593 231.094 395.639C230.221 395.688 232.21 396.148 234.861 396.511L236.744 396.768V395.302V393.835L234.697 393.388C231.49 392.687 230.983 392.602 231.422 392.837ZM203.133 397.645C203.133 399.896 203.188 400.769 203.253 399.585C203.318 398.401 203.317 396.559 203.251 395.492C203.185 394.425 203.132 395.394 203.133 397.645ZM288.206 408.704C286.698 414.901 285.399 420.222 285.319 420.529C284.964 421.906 286.394 419.322 287.689 416.25C289.755 411.346 291.332 403.261 291.051 399.011C290.967 397.722 290.451 399.477 288.206 408.704ZM55.9887 400.436C55.9333 405.254 57.4032 412.024 59.6081 417.107C60.5226 419.216 61.313 420.89 61.3649 420.828C61.4486 420.728 56.4746 400.071 56.141 399.134C56.0679 398.929 56.0002 399.515 55.9887 400.436ZM140.859 405.273C140.859 405.989 140.926 406.282 141.008 405.924C141.091 405.566 141.091 404.98 141.008 404.622C140.926 404.264 140.859 404.557 140.859 405.273ZM205.706 405.273C205.706 405.989 205.774 406.282 205.857 405.924C205.938 405.566 205.938 404.98 205.857 404.622C205.774 404.264 205.706 404.557 205.706 405.273ZM111.098 406.112C109.502 406.461 109.404 406.549 109.225 407.811C108.978 409.532 108.877 409.48 111.855 409.157C113.265 409.005 114.249 408.814 114.042 408.733C113.802 408.639 113.729 408.05 113.839 407.115C114.036 405.453 114.06 405.463 111.098 406.112ZM233.006 406.988C233.156 407.892 233.096 408.424 232.824 408.615C232.601 408.772 233.549 409.02 234.934 409.167C237.861 409.479 237.763 409.531 237.514 407.796C237.331 406.513 235.517 405.645 233.018 405.645C232.89 405.645 232.885 406.25 233.006 406.988ZM143.838 408.808C143.839 410.24 143.899 410.781 143.969 410.009C144.041 409.237 144.039 408.065 143.967 407.404C143.894 406.744 143.836 407.375 143.838 408.808ZM202.793 409.366C202.793 410.901 202.851 411.529 202.921 410.761C202.992 409.994 202.992 408.738 202.921 407.971C202.851 407.203 202.793 407.831 202.793 409.366ZM107.897 417.364C106.315 417.757 105.764 418.107 104.88 419.28C103.6 420.978 103.511 421.426 104.51 421.15C104.916 421.038 106.166 420.831 107.288 420.691C109.262 420.443 109.355 420.383 110.153 418.834C111.357 416.501 111.363 416.505 107.897 417.364ZM236.657 418.63C237.543 420.431 237.576 420.455 239.523 420.7C240.607 420.835 241.841 421.043 242.266 421.16C242.944 421.348 242.996 421.29 242.691 420.672C241.647 418.56 240.813 417.865 238.704 417.351C235.631 416.603 235.654 416.588 236.657 418.63ZM144.134 419.04C144.134 419.757 144.202 420.05 144.283 419.692C144.366 419.334 144.366 418.747 144.283 418.389C144.202 418.031 144.134 418.324 144.134 419.04ZM202.438 419.227C202.441 420.045 202.508 420.336 202.587 419.873C202.665 419.411 202.662 418.741 202.58 418.385C202.499 418.029 202.434 418.408 202.438 419.227ZM205.379 419.413C205.379 420.129 205.446 420.422 205.529 420.064C205.611 419.706 205.611 419.12 205.529 418.761C205.446 418.403 205.379 418.696 205.379 419.413ZM155.916 430.644C155.978 437.973 155.996 438.2 156.162 433.639L156.339 428.704L157.568 429.653L158.796 430.602V428.775C158.796 425.727 158.518 424.89 157.133 423.761L155.848 422.713L155.916 430.644ZM189.426 424.056C188.148 425.298 188.121 425.377 187.997 428.177L187.87 431.032L189.135 430.054L190.401 429.075L190.58 433.825C190.741 438.1 190.766 437.784 190.825 430.668C190.862 426.32 190.855 422.768 190.81 422.775C190.766 422.783 190.142 423.359 189.426 424.056ZM261.062 425.995C261.377 426.088 261.893 426.088 262.208 425.995C262.523 425.901 262.265 425.824 261.635 425.824C261.005 425.824 260.747 425.901 261.062 425.995ZM171.897 432.064V434.668H173.207H174.516V432.064V429.459H173.207H171.897V432.064ZM158.872 435.785C158.872 436.501 158.94 436.794 159.021 436.436C159.104 436.078 159.104 435.492 159.021 435.134C158.94 434.775 158.872 435.068 158.872 435.785ZM187.693 435.785C187.693 436.501 187.761 436.794 187.843 436.436C187.925 436.078 187.925 435.492 187.843 435.134C187.761 434.775 187.693 435.068 187.693 435.785ZM171.674 439.134C171.674 440.464 171.733 441.008 171.806 440.343C171.878 439.678 171.878 438.589 171.806 437.924C171.733 437.259 171.674 437.803 171.674 439.134ZM174.618 439.32C174.62 440.547 174.681 441.005 174.754 440.336C174.827 439.667 174.825 438.663 174.75 438.104C174.676 437.544 174.617 438.092 174.618 439.32Z" fill="#EDF4FC"/>
<path fill-rule="evenodd" clip-rule="evenodd" d="M169.296 186.489C161.182 187.778 155.698 192.59 153.191 200.623C151.567 205.825 151.539 206.586 151.66 242.295L151.771 275.598L152.522 278.382C156.419 292.837 171.055 299.257 184.289 292.318C192.162 288.19 194.841 281.283 195.07 264.528L195.211 254.202H188.327H181.443L181.323 263.97C181.225 271.988 181.109 273.971 180.672 275.043C178.079 281.421 169.446 281.418 166.847 275.039C166.047 273.076 165.584 211.953 166.339 207.826C167.114 203.579 169.623 201.381 173.698 201.381C179.832 201.381 181.394 204.339 181.394 215.944V222.946H188.311H195.227L195.063 214.481C194.876 204.922 194.594 203.13 192.474 198.075C188.829 189.385 179.724 184.833 169.296 186.489ZM65.1269 240.621V293.644H85.1056H105.084V286.202V278.76H92.4745H79.8649V263.133V247.505H89.8542H99.8435V240.063V232.621H89.8542H79.8649V217.551V202.481H92.4745H105.084V195.039V187.598H85.1056H65.1269V240.621ZM241.657 240.621V293.644H261.635H281.614V286.202V278.76H269.004H256.395V263.133V247.505H266.384H276.373V240.063V232.621H266.384H256.395V217.551V202.481H269.004H281.614V195.039V187.598H261.635H241.657V240.621ZM257.226 317.474C247.092 319.287 241.345 326.368 240.026 338.667C239.245 345.942 239.733 404.869 240.603 408.435C243.843 421.714 254.106 428.179 267.227 425.206C278.964 422.546 283.106 414.837 283.482 394.946L283.666 385.179H276.774H269.881L269.763 394.574C269.593 408.11 268.389 410.547 261.875 410.547C257.2 410.547 254.995 408.023 254.403 401.994C253.783 395.694 254.166 339.563 254.841 337.62C256.564 332.659 261.42 330.666 265.788 333.127C268.931 334.898 269.533 336.949 269.737 346.574L269.891 353.923H276.735H283.578L283.571 348.621C283.555 338.665 282.851 333.913 280.635 328.767C276.973 320.267 267.408 315.653 257.226 317.474ZM169.432 317.8C157.893 319.909 152.173 328.542 152.151 343.877C152.133 356.824 155.714 364.312 168.176 377.392C178.417 388.138 181.012 393.161 180.662 401.551C180.386 408.191 178.167 410.895 172.996 410.895C167.333 410.895 165.626 408.183 165.412 398.853L165.278 392.993H158.39H151.501L151.679 399.412C152.186 417.756 158.931 425.932 173.534 425.902C186.806 425.875 193.895 418.538 195.139 403.543C196.328 389.227 193.408 382.315 179.604 366.76C168.367 354.097 166.67 351.022 166.661 343.285C166.651 335.826 168.876 332.596 174.025 332.596C179.242 332.596 181.394 335.8 181.394 343.564V347.226H188.319H195.243L195.059 342.295C194.404 324.708 184.328 315.076 169.432 317.8ZM63.1624 358.907C63.1624 408.785 63.216 409.53 67.3116 416.529C74.8161 429.354 96.8104 428.76 103.607 415.549C107.051 408.856 107.044 408.944 107.047 359.97L107.049 318.202H100.178H93.3063L93.2183 361.272C93.1206 408.566 93.2421 405.715 91.2308 408.2C88.7082 411.318 82.4817 411.313 79.9855 408.192C77.9214 405.612 78.0728 409.131 77.9769 361.458L77.8897 318.202H70.526H63.1624V358.907Z" fill="#EDF4FC"/>
<path fill-rule="evenodd" clip-rule="evenodd" d="M108.769 179.296C109.084 179.39 109.6 179.39 109.915 179.296C110.23 179.202 109.972 179.126 109.342 179.126C108.711 179.126 108.454 179.202 108.769 179.296ZM172.028 181.362L172.061 182.946L173.534 182.987L175.007 183.028L173.634 182.874C172.303 182.724 172.256 182.674 172.128 181.249L171.996 179.778L172.028 181.362ZM75.0344 187.504C80.5734 187.562 89.6377 187.562 95.1767 187.504C100.716 187.447 96.1836 187.4 85.1055 187.4C74.0275 187.4 69.4953 187.447 75.0344 187.504ZM251.564 187.504C257.103 187.562 266.167 187.562 271.706 187.504C277.245 187.447 272.713 187.4 261.635 187.4C250.557 187.4 246.025 187.447 251.564 187.504ZM151.357 191.133C151.359 192.156 151.423 192.53 151.498 191.965C151.573 191.399 151.571 190.562 151.494 190.104C151.416 189.646 151.354 190.109 151.357 191.133ZM195.244 191.133C195.246 192.156 195.31 192.53 195.385 191.965C195.461 191.399 195.458 190.562 195.38 190.104C195.303 189.646 195.241 190.109 195.244 191.133ZM172.842 204.588C172.047 204.83 171.886 207.798 171.972 220.675C172.035 230.312 172.062 230.856 172.142 224.212L172.237 216.362L173.065 215.933C174.359 215.263 174.475 215.378 174.603 217.458C174.669 218.533 174.75 216.123 174.784 212.103C174.851 203.995 174.847 203.98 172.842 204.588ZM166.157 240.621C166.157 257.402 166.198 264.213 166.247 255.756C166.296 247.299 166.296 233.569 166.247 225.244C166.198 216.92 166.157 223.839 166.157 240.621ZM195.284 216.993C195.284 220.574 195.334 222.039 195.394 220.249C195.453 218.458 195.453 215.528 195.394 213.737C195.334 211.946 195.284 213.412 195.284 216.993ZM191.641 228.342C191.643 229.365 191.707 229.74 191.782 229.174C191.858 228.608 191.855 227.771 191.778 227.313C191.7 226.856 191.639 227.319 191.641 228.342ZM140.531 236.342C140.531 237.058 140.599 237.351 140.681 236.993C140.764 236.635 140.764 236.049 140.681 235.691C140.599 235.333 140.531 235.626 140.531 236.342ZM191.295 241.923C191.295 242.639 191.363 242.933 191.446 242.574C191.528 242.216 191.528 241.63 191.446 241.272C191.363 240.914 191.295 241.207 191.295 241.923ZM62.129 248.249C62.0665 249.272 62.1264 250.11 62.261 250.109C62.3966 250.109 62.5075 249.272 62.5075 248.249C62.5075 245.848 62.276 245.848 62.129 248.249ZM171.972 262.102L171.897 276.142L172.689 276.368C174.745 276.954 174.679 277.269 174.697 266.849C174.706 261.633 174.663 258.998 174.603 260.993C174.496 264.514 174.471 264.621 173.726 264.621C172.352 264.621 172.243 264.016 172.142 255.848C172.084 251.157 172.017 253.643 171.972 262.102ZM140.859 254.946C140.859 255.663 140.926 255.956 141.008 255.598C141.091 255.239 141.091 254.653 141.008 254.295C140.926 253.937 140.859 254.23 140.859 254.946ZM188.266 254.105L195.137 254.217L195.235 262.396L195.333 270.575L195.323 262.296L195.314 254.016L188.354 254.005L181.394 253.993L188.266 254.105ZM61.2603 263.691C61.9389 264.55 62.1695 265.278 62.2637 266.853L62.386 268.9L62.4468 266.83C62.5022 264.927 62.4212 264.672 61.4425 263.667L60.3783 262.574L61.2603 263.691ZM82.4852 268.091V270.135L84.86 272.535C87.8077 275.514 88.261 275.784 90.3242 275.784C92.0679 275.784 92.3619 275.468 91.4104 274.62C90.8814 274.149 90.8743 274.163 91.3259 274.814C91.7836 275.474 91.7624 275.501 90.9984 275.232C88.3376 274.297 85.8828 272.049 84.6364 269.408L83.6946 267.412L84.617 268.342C85.124 268.853 85.4391 269.075 85.3177 268.834C85.1962 268.593 84.5088 267.868 83.7905 267.221L82.4852 266.047V268.091ZM261.023 269.11C258.998 271.282 258.421 273.372 259.506 274.604C259.651 274.77 263.273 271.344 263.273 271.042C263.273 270.939 263.071 271.046 262.822 271.28C262.47 271.612 262.257 271.504 261.84 270.78C261.133 269.554 261.143 269.5 262.354 268.08C264.049 266.095 263.278 266.691 261.023 269.11ZM88.3807 271.807C88.3807 271.871 88.8596 272.415 89.4449 273.016L90.5091 274.109L89.5479 272.9C88.651 271.773 88.3807 271.52 88.3807 271.807ZM205.379 273.179C205.379 273.895 205.446 274.188 205.529 273.83C205.611 273.472 205.611 272.886 205.529 272.528C205.446 272.17 205.379 272.463 205.379 273.179ZM141.186 273.551C141.186 274.267 141.254 274.56 141.336 274.202C141.418 273.844 141.418 273.258 141.336 272.9C141.254 272.542 141.186 272.835 141.186 273.551ZM273.991 275.68C274.573 275.762 275.605 275.764 276.284 275.683C276.964 275.603 276.487 275.535 275.227 275.534C273.966 275.532 273.41 275.598 273.991 275.68ZM193.315 292.9C193.315 295.867 193.366 297.081 193.428 295.598C193.491 294.114 193.491 291.686 193.428 290.202C193.366 288.719 193.315 289.933 193.315 292.9ZM153.3 293.365L153.371 298.667L153.474 293.701C153.569 289.069 153.614 288.767 154.139 289.229C154.577 289.615 154.564 289.54 154.078 288.894C153.735 288.437 153.403 288.063 153.342 288.063C153.279 288.063 153.261 290.449 153.3 293.365ZM191.53 290.202L190.401 291.598L191.629 290.315C192.772 289.122 193.008 288.807 192.757 288.807C192.703 288.807 192.15 289.435 191.53 290.202ZM238.187 291.469C238.046 291.728 238.096 291.798 238.314 291.645C238.554 291.477 238.715 292.047 238.795 293.355L238.916 295.319L238.976 293.179C239.033 291.169 238.719 290.49 238.187 291.469ZM156.265 296.249C156.265 297.17 156.329 297.546 156.407 297.086C156.485 296.626 156.485 295.872 156.407 295.412C156.329 294.951 156.265 295.328 156.265 296.249ZM190.326 296.249C190.326 297.17 190.391 297.546 190.468 297.086C190.546 296.626 190.546 295.872 190.468 295.412C190.391 294.951 190.326 295.328 190.326 296.249ZM70.0807 297.371C70.9142 297.531 72.0928 297.529 72.701 297.366C73.5451 297.139 73.186 297.07 71.1862 297.075C68.8449 297.08 68.7269 297.111 70.0807 297.371ZM274.04 297.366C274.648 297.529 275.826 297.531 276.66 297.371C278.014 297.111 277.896 297.08 275.554 297.075C273.555 297.07 273.196 297.139 274.04 297.366ZM174.593 299.226C174.593 299.942 174.66 300.235 174.743 299.877C174.824 299.519 174.824 298.933 174.743 298.574C174.66 298.216 174.593 298.509 174.593 299.226ZM156.597 311.691C156.599 312.714 156.663 313.088 156.738 312.523C156.814 311.957 156.811 311.12 156.734 310.662C156.656 310.205 156.595 310.667 156.597 311.691ZM190.015 312.249C190.015 313.579 190.074 314.123 190.147 313.458C190.219 312.793 190.219 311.705 190.147 311.039C190.074 310.374 190.015 310.919 190.015 312.249ZM174.561 312.879C174.519 313.996 174.434 314.075 173.125 314.209L171.733 314.351L173.135 314.416C174.651 314.487 175.007 314.077 174.75 312.555C174.639 311.885 174.596 311.958 174.561 312.879ZM189.973 317.846C189.91 320.273 189.914 320.284 191.383 321.923C192.465 323.129 192.858 323.392 192.858 322.909C192.858 322.547 192.734 322.338 192.581 322.445C191.743 323.034 190.27 320.235 190.154 317.83L190.036 315.412L189.973 317.846ZM66.8653 318.108C68.9919 318.173 72.3815 318.173 74.398 318.108C76.4145 318.043 74.6744 317.989 70.5313 317.99C66.3883 317.99 64.7388 318.043 66.8653 318.108ZM93.1171 318.295C93.0308 318.551 92.9991 337.346 93.0466 360.063L93.132 401.365L93.213 359.791L93.2931 318.217L100.253 318.109L107.212 318.001L100.243 317.915C94.9118 317.85 93.2359 317.94 93.1171 318.295ZM153.909 323.364C153.887 324.108 153.96 324.174 154.375 323.784C154.911 323.278 155.047 322.868 154.566 323.206C154.401 323.322 154.192 323.206 154.101 322.949C154.01 322.692 153.923 322.879 153.909 323.364ZM260.104 335.728C258.311 336.317 256.992 343.696 257.119 352.435L257.214 358.946L259.46 347.97C260.696 341.933 261.78 336.616 261.87 336.156C262.051 335.233 261.795 335.171 260.104 335.728ZM172.47 335.947C171.945 336.103 171.897 336.825 171.897 344.415V352.713L173.125 354.615C174.857 357.297 174.844 357.339 174.844 348.956C174.844 335.905 174.729 335.276 172.47 335.947ZM88.3411 346.109C88.2126 351.999 88.2487 352.445 89.2425 357.086L90.2767 361.923L90.2899 355.039C90.3013 348.706 90.23 347.829 89.3894 344.063L88.4758 339.97L88.3411 346.109ZM204.069 347.226C204.069 347.942 204.137 348.235 204.218 347.877C204.301 347.519 204.301 346.933 204.218 346.574C204.137 346.216 204.069 346.509 204.069 347.226ZM142.497 347.598C142.497 348.314 142.564 348.607 142.646 348.249C142.728 347.891 142.728 347.305 142.646 346.946C142.564 346.588 142.497 346.881 142.497 347.598ZM60.1512 354.946C60.0958 357.556 60.1565 359.942 60.2859 360.249C60.4162 360.556 60.5262 358.421 60.5323 355.505C60.5447 348.918 60.2868 348.541 60.1512 354.946ZM286.318 353.737C286.319 355.784 286.374 356.573 286.441 355.492C286.507 354.411 286.506 352.736 286.439 351.771C286.372 350.806 286.317 351.691 286.318 353.737ZM189.307 351.97C189.357 353.311 189.364 353.319 189.49 352.178C189.595 351.225 189.794 350.962 190.502 350.839C191.299 350.701 191.281 350.681 190.319 350.63C189.29 350.576 189.256 350.621 189.307 351.97ZM80.5303 363.383C80.5215 368.386 80.6254 369.436 81.5848 373.988L82.6489 379.039L82.8126 373.272C82.9667 367.86 82.92 367.242 82.053 363.239C80.7099 357.036 80.5418 357.052 80.5303 363.383ZM188.988 367.576C188.954 370.48 189.038 372.934 189.172 373.03C189.308 373.125 189.379 371.586 189.332 369.61C189.172 362.979 189.049 362.256 188.988 367.576ZM157.478 371.336L157.636 373.086L157.747 371.642C157.809 370.847 157.737 370.06 157.589 369.891C157.441 369.723 157.391 370.373 157.478 371.336ZM191.475 375.149C191.395 375.772 191.452 376.368 191.602 376.473C191.752 376.579 191.875 376.069 191.875 375.341C191.875 373.718 191.673 373.621 191.475 375.149ZM82.8593 379.598C82.8593 379.905 82.9852 380.491 83.1401 380.9C83.3179 381.369 83.4217 381.438 83.4217 381.086C83.4217 380.779 83.295 380.193 83.1401 379.784C82.9632 379.315 82.8593 379.246 82.8593 379.598ZM157.814 385.158V389.601L156.421 389.744L155.03 389.886L156.585 389.951L158.141 390.016V385.365C158.141 382.807 158.067 380.714 157.978 380.714C157.887 380.714 157.814 382.714 157.814 385.158ZM154.959 382.76C154.962 383.784 155.025 384.158 155.101 383.593C155.176 383.027 155.174 382.19 155.097 381.732C155.018 381.274 154.957 381.737 154.959 382.76ZM272.835 385.084C274.761 385.15 278.003 385.15 280.04 385.085C282.076 385.02 280.5 384.966 276.537 384.965C272.574 384.965 270.908 385.019 272.835 385.084ZM171.91 396.819C171.895 408.45 171.863 408.247 173.699 407.724L174.516 407.49V398.429V389.368L173.22 387.739L171.923 386.109L171.91 396.819ZM87.9371 391.199C87.696 392.62 86.447 394.744 86.4267 393.768C86.4206 393.478 86.3343 393.333 86.2357 393.445C85.6935 394.061 87.8561 401.227 88.5225 401.024C88.8948 400.91 89.4572 400.815 89.7723 400.812C90.3823 400.807 90.6569 397.66 90.0707 397.396C89.9193 397.328 89.4291 395.598 88.9828 393.551C88.2162 390.044 88.1563 389.909 87.9371 391.199ZM257.764 393.457C256.736 398.343 256.78 400.649 257.908 400.971C258.976 401.275 258.793 401.62 259.797 397.408C260.704 393.607 260.816 392.869 260.361 393.684C260.16 394.045 259.911 393.671 259.493 392.382C258.619 389.685 258.55 389.727 257.764 393.457ZM203.093 392.435C203.096 393.253 203.164 393.545 203.242 393.082C203.321 392.619 203.317 391.949 203.235 391.593C203.153 391.238 203.089 391.616 203.093 392.435ZM165.472 397.458C165.472 400.016 165.525 401.063 165.589 399.784C165.653 398.505 165.653 396.412 165.589 395.133C165.525 393.853 165.472 394.9 165.472 397.458ZM143.806 405.272C143.806 405.988 143.873 406.281 143.956 405.923C144.039 405.565 144.039 404.979 143.956 404.621C143.873 404.263 143.806 404.556 143.806 405.272ZM202.765 405.458C202.769 406.277 202.836 406.568 202.914 406.105C202.992 405.642 202.99 404.972 202.908 404.617C202.826 404.261 202.762 404.639 202.765 405.458ZM237.072 409.365L236.253 409.663L237.153 409.7C237.649 409.72 238.054 409.57 238.054 409.365C238.054 409.16 238.018 409.01 237.972 409.03C237.927 409.05 237.522 409.201 237.072 409.365ZM84.3741 426.007C84.963 426.09 85.8476 426.088 86.3396 426.003C86.8316 425.918 86.3501 425.85 85.2693 425.852C84.1884 425.855 83.7861 425.924 84.3741 426.007ZM174.64 433.365C174.64 435.616 174.694 436.489 174.759 435.305C174.824 434.121 174.824 432.279 174.758 431.212C174.692 430.145 174.639 431.114 174.64 433.365ZM171.684 433.923C171.684 435.663 171.74 436.374 171.809 435.505C171.878 434.635 171.878 433.212 171.809 432.342C171.74 431.472 171.684 432.184 171.684 433.923Z" fill="#EDF4FC"/>
</svg>
