<svg width="705" height="526" viewBox="0 0 705 526" fill="none" xmlns="http://www.w3.org/2000/svg">
<path d="M684.736 320.056C679.274 322.853 673.805 325.637 668.343 328.448C657.989 333.778 647.641 339.12 637.287 344.457C630.89 347.758 624.493 351.066 618.096 354.367C607.742 359.703 597.388 365.032 587.034 370.369C580.538 373.716 574.055 377.077 567.565 380.431C557.311 385.721 547.049 391.004 536.794 396.294C530.298 399.641 523.809 402.989 517.312 406.336L486.827 422.066C480.383 425.394 473.94 428.722 467.49 432.043C457.183 437.352 446.875 442.662 436.574 447.978C430.031 451.352 423.502 454.733 416.959 458.107C406.751 463.377 396.536 468.634 386.328 473.904C381.621 476.33 376.921 478.763 372.221 481.202C371.817 481.414 371.453 481.712 371.068 481.964H370.432C370.147 481.752 369.882 481.5 369.563 481.341C361.794 477.344 354.025 473.353 346.257 469.356C336.181 464.166 326.118 458.969 316.049 453.779C309.507 450.405 302.971 447.03 296.428 443.656C286.22 438.393 276.005 433.13 265.79 427.86C259.293 424.512 252.81 421.152 246.314 417.798C236.152 412.554 225.984 407.324 215.815 402.081C209.273 398.707 202.737 395.326 196.201 391.952C185.992 386.682 175.777 381.419 165.569 376.155C159.073 372.808 152.583 369.46 146.087 366.113C135.826 360.823 125.571 355.533 115.31 350.244C108.866 346.916 102.423 343.582 95.9734 340.254C85.765 334.991 75.5434 329.727 65.3351 324.464C62.4648 322.986 59.6145 321.475 56.605 319.904C56.9563 319.645 57.2016 319.42 57.4866 319.267C62.7101 316.569 67.9336 313.878 73.1571 311.187C84.2669 305.473 95.3834 299.759 106.493 294.038C112.897 290.744 119.287 287.423 125.69 284.128C137.178 278.215 148.672 272.316 160.16 266.409C167.273 262.757 174.379 259.098 181.485 255.439C192.263 249.89 203.042 244.335 213.827 238.787C220.979 235.102 228.138 231.423 235.297 227.744C235.847 227.459 236.398 227.167 237.167 226.762C237.551 233.623 237.922 240.292 238.3 247.08C236.736 247.908 235.165 248.763 233.574 249.579C223.445 254.782 213.316 259.973 203.187 265.17C196.028 268.849 188.876 272.528 181.717 276.213C174.465 279.945 167.22 283.677 159.968 287.409C152.908 291.048 145.848 294.688 138.789 298.32C131.59 302.032 124.384 305.731 117.179 309.443C110.875 312.691 104.571 315.953 98.2669 319.208C97.9554 319.373 97.6703 319.592 97.266 319.851C98.9364 320.726 100.468 321.541 102.019 322.343C109.649 326.267 117.278 330.178 124.901 334.109C134.924 339.273 144.947 344.45 154.963 349.627C161.453 352.981 167.949 356.335 174.438 359.683C184.507 364.88 194.577 370.07 204.646 375.267C211.142 378.615 217.632 381.962 224.128 385.316C234.15 390.487 244.173 395.664 254.189 400.834C260.679 404.189 267.175 407.536 273.665 410.89C282.09 415.239 290.508 419.581 298.934 423.923C307.074 428.119 315.214 432.321 323.354 436.524C333.377 441.694 343.4 446.865 353.416 452.042C358.825 454.839 364.234 457.637 369.616 460.467C370.399 460.878 371.015 460.898 371.81 460.474C376.212 458.147 380.64 455.88 385.068 453.6L416.27 437.512C422.667 434.21 429.063 430.903 435.46 427.602C445.576 422.385 455.698 417.168 465.813 411.951C472.21 408.65 478.607 405.349 485.01 402.041C495.172 396.798 505.334 391.554 515.496 386.304C521.939 382.976 528.389 379.649 534.832 376.321C544.901 371.124 554.971 365.934 565.04 360.737C571.483 357.409 577.926 354.082 584.376 350.754C594.491 345.53 604.607 340.314 614.722 335.097C621.166 331.769 627.615 328.448 634.059 325.114C637.393 323.39 640.721 321.654 644.274 319.811C642.875 319.062 641.642 318.379 640.396 317.736C632.01 313.427 623.625 309.132 615.24 304.823C608.034 301.118 600.835 297.412 593.63 293.7C586.424 289.994 579.225 286.282 572.02 282.577C564.861 278.891 557.708 275.212 550.549 271.533C543.39 267.854 536.238 264.175 529.079 260.49C522.682 257.189 516.285 253.881 509.888 250.573C509.563 250.407 509.265 250.195 508.907 249.977C509.265 243.268 509.616 236.593 509.988 229.726C511.844 230.647 513.508 231.449 515.145 232.291C519.944 234.763 524.737 237.256 529.536 239.728C539.141 244.667 548.753 249.599 558.358 254.537C565.186 258.05 572.007 261.57 578.834 265.083C589.944 270.804 601.061 276.512 612.17 282.232C619.091 285.792 626.005 289.371 632.925 292.931C643.942 298.599 654.966 304.26 665.983 309.927C671.114 312.566 676.244 315.21 681.368 317.869C682.495 318.452 683.582 319.102 684.689 319.725C684.736 319.844 684.736 319.95 684.736 320.056ZM232.719 382.851C234.727 383.905 236.729 384.965 238.744 386.006C248.197 390.898 257.656 395.77 267.102 400.669C272.975 403.718 278.835 406.8 284.702 409.856C293.67 414.53 302.639 419.203 311.608 423.87C317.335 426.852 323.076 429.816 328.81 432.792C337.685 437.412 346.561 442.039 355.431 446.659C360.078 449.079 364.738 451.478 369.371 453.931C370.1 454.316 370.69 454.422 371.433 454.004C372.864 453.202 374.343 452.486 375.801 451.724C384.531 447.176 393.261 442.616 401.998 438.075C406.506 435.728 411.026 433.408 415.541 431.062C424.185 426.567 432.815 422.053 441.453 417.559C447.465 414.43 453.49 411.334 459.503 408.206C469.413 403.048 479.31 397.871 489.22 392.721C495.278 389.572 501.35 386.443 507.416 383.301C507.8 383.102 508.145 382.817 508.708 382.44C507.694 382.32 506.965 382.188 506.229 382.148C503.591 382.015 500.946 381.923 498.308 381.797C496.989 381.73 495.676 381.611 494.357 381.512C492.481 381.366 490.771 381.664 489.047 382.592C482.518 386.105 475.916 389.473 469.34 392.887C463.328 396.009 457.302 399.118 451.283 402.227C439.663 408.226 428.036 414.218 416.422 420.224C412.803 422.093 409.197 424.002 405.578 425.878C404.053 426.667 402.508 427.416 400.666 428.337C366.521 441.976 375.781 442.84 340.775 428.271C340.277 428.072 340.078 428.012 339.9 427.92C329.923 422.776 319.947 417.632 309.971 412.494C302.44 408.617 294.903 404.745 287.366 400.874C275.779 394.922 264.192 388.976 252.612 383.01C251.737 382.559 250.875 382.334 249.887 382.34C245.274 382.373 240.66 382.347 236.053 382.36C234.959 382.367 233.872 382.453 232.778 382.506C232.758 382.619 232.739 382.738 232.719 382.851ZM202.77 282.643V272.302C202.418 272.435 202.18 272.501 201.961 272.614C192.74 277.367 183.52 282.126 174.292 286.879C167.094 290.591 159.888 294.29 152.689 297.995C145.437 301.727 138.192 305.466 130.94 309.185C124.437 312.519 117.928 315.84 111.432 319.174C111.127 319.334 110.855 319.566 110.404 319.877C141.248 335.753 171.913 351.536 202.763 367.412V356.959C178.82 344.636 154.87 332.306 130.589 319.804C154.897 307.289 178.84 294.966 202.77 282.643ZM608.922 320.865C601.962 324.458 594.995 328.044 588.028 331.63C578.801 336.376 569.58 341.122 560.347 345.862C553.758 349.249 547.155 352.617 540.566 356.004C539.917 356.335 539.3 356.727 538.763 357.038V367.319C539.373 367.041 539.85 366.849 540.308 366.61C545.153 364.118 549.999 361.612 554.845 359.113C563.787 354.506 572.722 349.899 581.665 345.298C588.864 341.593 596.062 337.881 603.268 334.182C611.653 329.88 620.039 325.591 628.424 321.289C629.286 320.845 630.121 320.348 631.168 319.758C600.239 303.835 569.58 288.059 538.75 272.19V282.643C562.693 294.966 586.63 307.289 610.851 319.764C610.023 320.242 609.486 320.573 608.922 320.865ZM415.72 183.748C415.998 186.055 416.316 188.349 416.608 190.655C417.112 194.58 417.622 198.497 418.086 202.428C418.166 203.084 418.391 203.489 418.981 203.774C420.121 204.331 421.228 204.947 422.355 205.53C427.24 208.056 432.126 210.588 437.018 213.101C440.538 214.91 444.071 216.687 447.73 218.549C449.904 212.643 452.045 206.823 454.206 200.95C441.307 194.308 428.579 187.752 415.527 181.037C415.614 182.177 415.627 182.966 415.72 183.748ZM297.926 216.448C305.973 212.298 313.855 208.242 321.611 204.244C322.545 196.714 323.453 189.423 324.388 181.859C313.146 187.646 302.208 193.274 291.098 198.994C293.412 204.901 295.659 210.641 297.926 216.448ZM419.259 210.681C419.213 211.079 419.167 211.244 419.186 211.397C419.584 214.592 420.015 217.78 420.366 220.976C420.453 221.778 420.976 222.01 421.54 222.301C427.698 225.483 433.856 228.672 440.014 231.847C440.757 232.231 441.519 232.569 442.42 233C443.501 230.07 444.535 227.26 445.642 224.257C436.773 219.703 428.062 215.215 419.259 210.681ZM305.019 230.017C307.425 228.798 309.825 227.565 312.224 226.332C314.2 225.317 316.168 224.29 318.157 223.289C319.039 222.845 319.483 222.235 319.536 221.194C319.615 219.723 319.914 218.264 320.086 216.799C320.285 215.129 320.444 213.452 320.65 211.51C313.689 215.089 306.948 218.563 300.133 222.069C301.287 225.026 302.381 227.816 303.501 230.693C304.078 230.441 304.555 230.249 305.019 230.017Z" fill="#EDF4FC"/>
<path d="M347.158 139.746C340.94 178.916 334.755 217.893 328.538 257.069H357.757C357.81 265.455 357.737 273.681 357.797 282.252C358.374 281.649 358.672 281.364 358.937 281.052C365.215 273.476 371.512 265.912 377.73 258.289C378.532 257.308 379.334 256.99 380.54 256.99C390.192 257.03 399.837 257.01 409.488 257.01H411.358C410.304 250.275 409.283 243.759 408.249 237.243C407.228 230.773 406.194 224.303 405.153 217.84C404.106 211.317 403.038 204.801 402.004 198.279C400.97 191.756 399.976 185.227 398.949 178.704C397.928 172.234 396.867 165.771 395.859 159.295C394.852 152.812 393.732 146.349 392.81 139.733C402.21 141.105 411.364 142.438 420.797 143.817C403.754 105.807 386.858 68.1224 369.948 30.3979C353.011 68.6925 336.114 106.907 319.105 145.361C328.551 143.472 337.745 141.629 347.158 139.746ZM370.569 442.531L400.895 428.567C405.396 413.195 409.568 397.918 414.029 382.672H409.409C400.447 382.672 391.491 382.652 382.529 382.698C381.528 382.705 380.852 382.433 380.262 381.624C379.234 380.212 378.108 378.873 377.02 377.508C370.988 369.931 364.956 362.354 358.917 354.778C358.652 354.44 358.314 354.161 357.731 353.578V382.672H327.656C331.991 397.944 336.439 412.965 340.774 428.271C340.277 428.072 340.078 428.013 339.899 427.92L370.569 442.531ZM447.087 176.563C455.916 178.949 464.706 181.322 473.602 183.728C471.726 188.806 469.93 193.665 468.14 198.524C466.343 203.389 464.56 208.255 462.77 213.12C460.981 217.986 459.191 222.852 457.395 227.717C455.605 232.583 453.775 237.435 452.019 242.314C450.275 247.166 448.366 251.959 446.689 257.016H448.519C451.753 257.016 454.988 257.049 458.223 256.996C459.164 256.983 459.761 257.262 460.331 258.031C463.394 262.154 466.529 266.224 469.618 270.32C477.394 280.635 485.162 290.956 492.945 301.27C493.177 301.582 493.475 301.847 493.859 302.264C493.966 301.111 494.091 300.17 494.138 299.222C494.297 295.894 494.403 292.566 494.582 289.239C494.834 284.705 495.145 280.171 495.411 275.643C495.563 272.952 495.656 270.254 495.802 267.563C495.981 264.295 496.186 261.027 496.365 257.752C496.511 255.061 496.63 252.37 496.763 249.672C496.948 246.032 497.141 242.393 497.32 238.747C497.472 235.632 497.585 232.516 497.757 229.401C498.016 224.867 498.321 220.333 498.586 215.805C498.738 213.167 498.844 210.529 498.984 207.89C499.163 204.516 499.375 201.142 499.54 197.762C499.706 194.434 499.799 191.106 499.984 187.779C500.23 183.298 500.548 178.817 500.813 174.342C500.972 171.598 501.085 168.853 501.224 166.109C501.41 162.417 501.595 158.725 501.774 155.026C501.927 151.963 502.039 148.901 502.218 145.838C502.477 141.304 502.782 136.77 503.047 132.243C503.199 129.657 503.299 127.066 503.425 124.48C503.498 123.029 503.571 121.577 503.65 120.059C502.424 120.768 447.929 175.224 447.087 176.563ZM272.08 183.722C281.553 181.302 290.846 178.936 300.279 176.523C300.02 176.172 299.921 175.986 299.782 175.847C281.181 157.273 262.581 138.699 243.981 120.132C243.948 120.099 243.881 120.092 243.835 120.099C243.782 120.105 243.735 120.132 243.59 120.191C243.59 120.616 243.563 121.08 243.596 121.544C243.868 125.972 244.16 130.393 244.425 134.821C244.571 137.3 244.663 139.78 244.796 142.265C244.988 145.905 245.194 149.544 245.386 153.183C245.538 156.139 245.658 159.096 245.83 162.052C246.089 166.48 246.394 170.902 246.659 175.33C246.811 177.862 246.911 180.394 247.043 182.926C247.229 186.513 247.434 190.099 247.62 193.685C247.772 196.641 247.885 199.598 248.057 202.554C248.316 206.982 248.621 211.404 248.886 215.832C249.038 218.364 249.125 220.896 249.264 223.428C249.443 226.749 249.668 230.07 249.841 233.391C250.006 236.613 250.099 239.834 250.285 243.056C250.537 247.431 250.848 251.799 251.113 256.174C251.272 258.813 251.365 261.451 251.504 264.089C251.69 267.622 251.889 271.156 252.074 274.689C252.227 277.698 252.353 280.708 252.519 283.717C252.711 287.197 252.923 290.677 253.142 294.151C253.201 295.092 253.307 296.027 253.4 297.014H265.571V256.996H300.63C291.065 232.47 281.599 208.156 272.08 183.722ZM414.626 282.524C404.755 294.257 394.938 305.93 385.094 317.63C394.984 329.973 404.762 342.176 414.745 354.638C415.116 351.556 414.99 283.75 414.626 282.524Z" fill="#EDF4FC"/>
<path d="M504.326 333.976C503.975 333.552 503.617 333.135 503.286 332.697C500.568 329.111 497.85 325.525 495.139 321.932C485.607 309.298 476.068 296.656 466.542 284.015C462.684 278.898 458.833 273.78 454.995 268.656C454.491 267.987 454.001 267.589 453.059 267.596C446.006 267.642 438.96 267.622 431.907 267.629C431.509 267.629 431.105 267.722 430.734 267.762V371.86H454.471V365.775V359.729V353.525V347.479V341.434V335.388V329.343V323.298V317.093C454.471 315.078 454.451 313.063 454.478 311.048C454.498 309.079 454.378 307.097 454.584 304.83C455.048 305.4 455.32 305.705 455.565 306.036C458.919 310.537 462.26 315.045 465.614 319.539C471.003 326.751 476.406 333.95 481.788 341.162C489.199 351.092 496.61 361.022 503.995 370.965C504.532 371.688 505.109 371.946 505.984 371.94C512.877 371.906 519.765 371.926 526.659 371.92C527.063 371.92 527.461 371.84 527.845 371.8V267.695H504.611V333.837C504.525 333.904 504.426 333.943 504.326 333.976ZM237.365 267.709H213.674V371.86H237.418V366.729V361.479V356.388V351.138V346.048V340.798C237.418 339.101 237.405 337.404 237.418 335.707C237.431 333.983 237.358 332.26 237.465 330.602H276.276V371.82H300.073V267.728H276.21V307.607H237.358C237.365 294.237 237.365 281.013 237.365 267.709ZM347.138 311.412V267.709H323.433V371.853H347.204V323.052C347.701 323.616 347.953 323.868 348.172 324.146C360.594 339.757 373.023 355.368 385.432 370.985C385.916 371.595 386.407 371.966 387.262 371.966C396.065 371.933 404.861 371.946 413.664 371.94C413.989 371.94 414.314 371.827 414.785 371.747C407.46 362.593 400.254 353.591 393.042 344.589C385.804 335.548 378.558 326.512 371.306 317.458C376.875 310.835 382.357 304.319 387.832 297.803C395.932 288.165 404.039 278.533 412.14 268.895C412.418 268.564 412.637 268.186 413.035 267.616H401.739C396.171 267.616 390.603 267.636 385.041 267.596C384.206 267.589 383.636 267.828 383.145 268.471C382.536 269.273 381.899 270.048 381.256 270.824C372.546 281.331 363.836 291.844 355.126 302.344C352.593 305.4 350.055 308.442 347.516 311.492C347.39 311.472 347.264 311.439 347.138 311.412Z" fill="#EDF4FC"/>
</svg>
