<svg width="492" height="492" viewBox="0 0 492 492" fill="none" xmlns="http://www.w3.org/2000/svg">
<path fill-rule="evenodd" clip-rule="evenodd" d="M238.161 2.78439C236.189 4.15487 233.857 6.53097 232.319 8.71645C229.244 13.3996 223.402 21.2053 222.172 23.3908L221.25 24.3274C220.635 25.8885 218.691 28.9363 216.455 31.7743C191.842 67.1062 183.227 76.1737 153.383 108.066C124.77 138.396 95.2119 167.518 57.3906 197.803C52.7756 200.93 49.4027 203.526 48.4682 204.369C47.5338 205.213 46.5496 205.9 45.6992 206.558C44.2417 207.686 38.3141 212.501 36.4691 213.749C36.0079 214.062 30.743 218.306 23.547 223.13C9.08661 232.822 3.80492 235.115 1.70255 239.389C-2.29718 247.518 0.77953 253.771 10.6249 260.338C21.701 267.529 19.113 265.74 21.0858 267.216L22.0087 267.842C24.6891 269.846 31.0316 274.016 36.8678 278.437C43.409 283.392 47.2506 286.792 50.2617 289.084C51.9228 290.349 50.3655 289.295 52.7534 290.877C54.5185 292.046 55.0377 292.458 57.6334 294.25C59.6604 296.014 63.8412 299.51 67.2557 302.364L67.2568 302.365L68.0161 303C89.9237 320.606 113.804 342.955 140.176 370.154C165.302 396.088 183.576 416.118 190.013 424.763C192.297 427.82 197.904 435.2 202.473 440.998C213.894 455.546 222.848 469.414 228.454 478.27C233.334 485.966 236.761 488.9 242.299 491.402C246.759 493.416 255.545 489.334 259.071 484.221C260.524 482.113 262.241 479.546 262.761 478.914C263.304 478.361 265.155 475.289 267.373 472.041C267.695 471.568 268.273 470.962 268.603 470.48C271.198 466.685 274.728 461.559 276.598 459.24C277.956 457.631 280.044 454.472 282.44 451.435C283.34 450.293 284.384 448.725 285.207 447.688C296.005 433.773 308.54 417.229 311.344 414.594C311.651 413.969 316.879 408.037 323.336 401.169C335.587 387.042 373.764 348.092 390.676 332.794C403.142 320.699 421.733 305.631 435.57 294.079C437.144 292.861 438.644 291.894 440.182 290.957C447.254 285.65 453.557 280.312 455.284 278.908L455.286 278.906L455.604 278.648C456.642 277.804 459.964 275.59 459.964 275.59L462.56 273.482C467.751 269.792 466.934 270.039 471.546 266.605C474.425 264.46 477.499 262.441 480.156 260.673C482 259.424 483.593 258.138 484.46 257.55C491.225 251.306 493.333 250.332 491.204 240.952C490.281 236.887 483.512 232.51 474.282 226.882C463.513 219.69 461.36 218.127 445.669 205.933C436.576 198.867 421.671 187.798 409.98 177.167C403.958 171.896 397.599 165.62 395.211 163.722C391.577 160.665 358.856 129.171 354.599 124.638C353.769 123.795 349.421 119.377 345.061 114.633C343.099 112.545 341.369 111.193 337.984 107.128C333.985 103.064 331.268 100.103 328.755 97.4354C318.294 86.8045 306.603 72.7343 300.757 65.5429C286.778 48.3459 271.528 25.8336 267.529 19.8928C265.037 16.0976 263.125 13.2281 262.606 12.7014C261.568 11.1197 261.702 11.6827 260.144 9.57464C258.068 6.41161 255.886 3.65905 251.837 1.44518C247.53 -1.05619 241.992 -0.118171 238.161 2.78439ZM271.98 72.5398C268.969 70.0093 263.316 66.6431 255.632 64.2184C242.861 60.1069 230.754 65.4917 218.762 73.6092C214.817 76.7719 211.403 79.4237 209.845 80.4779C206.937 82.3755 204.913 83.9366 197.853 90.1565C195.777 91.9487 191.515 95.2452 190.166 96.0885C179.096 105.143 145.503 137.998 135.432 148.541C116.983 167.853 111.141 175.079 102.799 184.927C98.8527 189.566 96.3891 193.179 95.7662 193.811C95.1432 194.339 92.8191 197.42 90.8464 200.056C88.8736 202.691 85.9385 206.701 85.0041 207.861C77.7361 216.716 68.0122 230.385 66.2472 235.024C63.4798 241.268 61.6348 244.702 65.6322 255.005C66.4869 257.208 67.7846 260.313 69.3221 263.123L72.397 268.43L75.4719 273.114C76.5102 274.8 78.423 277.983 80.0842 279.67C81.5378 281.673 81.9092 282.354 83.4666 284.041C85.619 286.373 115.753 324.316 135.125 341.176C178.481 387.071 224.604 424.977 237.211 426.722C243.976 427.659 248.589 432.654 268.268 418.605C269.721 417.445 276.083 413.042 282.105 408.614C288.127 404.186 292.863 399.982 293.175 399.56C293.486 399.244 295.942 397.687 299.017 394.564C302.443 391.823 305.57 389.265 306.089 388.632C306.712 388 311.983 383.264 315.929 379.89C332.533 365.693 362.975 337.117 386.344 309.33C388.109 307.116 391.947 302.608 394.646 299.339C399.318 294.068 411.842 279.078 413.71 276.548C422.12 264.635 428.051 256.862 428.777 250.01C429.089 245.898 428.92 240.485 426.324 234.897C424.56 231.208 422.067 226.78 420.718 224.988C403.256 198.182 384.168 178.278 378.042 172.269C377.211 171.425 373.773 167.837 370.969 164.463C364.205 156.97 336.584 128.495 327.36 119.441C323.311 115.751 318.375 111.035 315.053 107.872C311.73 104.709 308.284 101.617 307.669 100.68C306.735 100.153 301.034 96.2262 298.439 93.8015C291.794 87.7924 279.787 78.0697 278.749 77.5426C277.191 76.4883 273.641 73.699 271.98 72.5398Z" fill="#EDF4FC"/>
<path d="M237.825 76.1105C234.135 77.0472 224.603 85.1646 212.918 93.5944C205.231 99.5264 204.489 100.333 202.156 102.025C200.063 103.543 199.389 104.21 196.621 106.396C196.006 106.708 192.624 109.518 189.857 112.015C187.089 114.513 185.613 115.536 184.322 117.011C183.492 117.96 178.124 122.687 173.867 126.377C156.955 140.739 125.591 174.146 116.367 184.449C112.941 188.56 109.518 193.171 108.065 194.752C103.184 200.023 86.9076 220.37 82.2354 227.222C73.3182 238.15 72.9756 248.901 79.9321 260.287C85.4349 269.142 110.146 299.187 124.785 314.79C131.119 321.432 141.581 332.535 141.581 332.75C151.42 343.99 193.239 381.768 206.769 392.695C237.589 417.588 234.443 415.799 248.895 416.735C254.737 415.799 257.197 414.55 276.261 399.876C289.483 389.885 291.072 387.935 303.013 377.709C309.163 372.089 316.282 366.003 320.54 361.786C326.074 356.791 332.392 350.579 335.299 348.049C348.521 337.121 373.12 309.646 382.652 298.407C384.314 296.087 387.88 292.162 388.187 291.85C388.802 291.226 397.48 280.55 400.179 277.176C404.177 271.556 409.712 266.249 414.939 255.946C417.743 250.042 417.954 240.522 414.631 234.091C410.997 227.028 387.225 197.436 374.35 182.888C370.509 178.566 363.832 172.317 360.821 168.838C348.88 155.239 331.351 138.119 298.438 108.812C280.285 94.4288 264.594 82.1682 257.518 77.8572C249.831 73.174 244.59 72.9884 237.825 76.1105ZM256.128 115.753C267.34 137.891 272.947 149.488 273.674 151.596C274.193 153.178 273.57 153.494 269.313 153.494C261.318 153.494 262.253 150.437 259.865 188.283C259.242 197.877 258.516 208.103 258.099 211.054C258.099 215.694 257.812 216.943 258.427 218.191C260.192 219.667 276.478 220.332 278.034 219.172C279.592 218.012 285.718 201.988 285.718 199.036C285.718 197.139 285.095 196.717 282.707 196.717C278.658 196.717 273.259 195.557 273.259 194.714C273.259 194.292 275.128 192.605 277.516 190.813C279.8 189.127 283.538 186.28 285.718 184.593C297.762 175.105 308.457 167.304 311.571 165.617C311.571 165.617 314.721 163.549 315.102 163.825C315.481 164.101 315.413 164.563 315.102 166.144C314.79 167.726 314.79 168.253 314.79 168.253C314.374 170.783 313.232 174.367 312.713 176.16C312.194 177.846 310.429 183.855 308.768 189.337C307.107 194.819 304.614 203.359 303.368 208.313C298.593 226.657 293.297 242.787 291.844 243.735C291.324 244.052 285.511 243.525 278.761 242.576C272.117 241.732 264.433 240.994 261.734 240.994C256.958 240.994 256.854 240.994 256.231 244.895C255.92 247.109 255.297 263.028 254.985 280.211L254.57 310.573H258.204C272.739 310.046 297.451 305.197 308.457 299.715C315.62 296.13 321.019 290.016 321.019 285.588C322.057 281.055 314.001 275.402 308.457 272.621C307.625 272.204 306.768 270.761 303.628 272.621C297.478 276.263 298.708 276.263 295.941 276.887C293.788 277.373 291.157 271.04 288.561 265.769C282.331 251.009 286.084 252.428 291.844 253.159C295.997 253.686 321.347 262.408 322.385 263.462C323.206 264.296 321.155 264.399 319.31 265.023C317.465 265.648 318.08 265.336 317.385 265.769C316.691 266.201 319.151 267.245 320.085 267.877C332.441 275.678 335.036 279.473 335.036 287.591C335.036 291.597 334.517 293.705 329.948 298.871C319.462 309.73 300.669 317.425 269.105 321.115C261.318 322.026 254.545 322.783 253.507 322.783C253.507 323.31 253.012 334.188 252.389 348.103C250.432 399.587 249.51 399.587 247.665 400.212C241.822 401.148 243.36 399.587 241.695 378.254C241.383 367.396 240.76 350.106 240.449 339.775L239.67 322.471C239.67 322.471 233.52 322.034 231.209 321.642C228.897 321.251 228.928 321.356 227.055 321.115C225.183 320.874 223.318 320.694 220.203 320.167C217.088 319.639 211.377 318.585 207.328 317.953C200.372 316.688 196.531 315.844 187.601 313.525C179.918 311.522 162.891 303.931 158.634 300.558C152.3 295.709 149.704 291.175 149.704 285.061C149.704 278.208 152.092 273.464 158.01 268.193C166.835 260.497 188.12 250.482 195.7 250.482C195.908 250.482 201.306 252.591 205.252 255.226C209.301 257.862 213.558 260.392 214.908 261.025C216.153 261.552 217.711 262.606 217.192 263.555C216.153 264.714 215.22 265.979 205.771 269.037C197.464 271.567 193.312 273.992 188.431 278.736C176.491 290.543 184.797 299.925 213.558 306.883C217.607 307.832 222.383 308.465 224.459 308.992C226.432 309.413 227.575 309.519 231.728 310.046C235.881 310.573 238.892 310.573 238.892 310.573V298.66C238.788 292.23 238.269 276.627 237.646 264.187C237.646 264.187 237.646 242.576 236.4 241.521C235.155 240.467 231.209 240.99 231.209 240.99C231.209 240.99 220.515 241.627 213.765 242.576C205.771 243.735 200.58 244.157 200.475 243.419C199.022 241.521 193.208 222.44 190.612 211.476C189.781 207.681 188.64 204.096 188.224 202.515C187.191 198.585 181.579 180.693 178.984 171.205C177.219 159.819 176.699 160.667 186.147 167.831C189.85 170.639 193.888 174.051 194.038 174.157C195.388 175.105 196.946 176.16 199.022 177.741C201.098 179.322 202.656 180.482 203.175 180.904C205.829 183.06 205.356 182.696 205.771 183.012C208.366 185.12 219.476 194.714 218.854 195.452C218.542 195.663 215.843 196.19 212.831 196.612C206.394 197.35 206.394 197.35 210.547 209.684C212.727 216.326 213.87 218.118 216.05 219.067C218.854 220.121 231.624 219.699 233.7 218.434C235.155 217.485 235.155 211.16 233.804 190.919C231.936 164.247 230.897 155.286 229.443 154.443C228.717 153.915 226.121 153.494 223.629 153.494H219.061L219.787 150.015C220.203 148.223 221.865 144.217 223.421 141.37C225.809 136.942 236.919 115.331 243.564 102.048C244.602 100.15 245.952 98.674 246.575 98.8848C247.302 99.0956 251.559 106.686 256.128 115.753Z" fill="#EDF4FC"/>
</svg>
