<svg width="132" height="184" viewBox="0 0 132 184" fill="none" xmlns="http://www.w3.org/2000/svg">
<path d="M59.2171 180.288C9.27094 104.589 0 96.8203 0 69C0 30.8922 29.5491 0 66 0C102.451 0 132 30.8922 132 69C132 96.8203 122.729 104.589 72.7829 180.288C69.5052 185.238 62.4944 185.237 59.2171 180.288ZM66 97.75C81.1879 97.75 93.5 84.8783 93.5 69C93.5 53.1217 81.1879 40.25 66 40.25C50.8121 40.25 38.5 53.1217 38.5 69C38.5 84.8783 50.8121 97.75 66 97.75Z" fill="#FF3C3C"/>
<path d="M66 97.75C81.1879 97.75 93.5 84.8783 93.5 69C93.5 53.1217 81.1879 40.25 66 40.25C50.8121 40.25 38.5 53.1217 38.5 69C38.5 84.8783 50.8121 97.75 66 97.75Z" fill="white"/>
</svg>
