<svg width="463" height="552" viewBox="0 0 463 552" fill="none" xmlns="http://www.w3.org/2000/svg">
<path d="M349.143 3.86739C320.053 9.84455 256.611 28.1276 249.802 32.3468C238.042 39.3787 181.409 128.685 184.194 136.068C185.122 139.584 204 135.716 271.775 118.84C295.604 112.863 318.196 105.831 321.91 103.37C328.718 98.0955 375.139 17.5797 377.924 5.97697C379.472 -1.40658 374.52 -1.75817 349.143 3.86739Z" fill="#EDF4FC"/>
<path d="M378.234 40.7852C369.568 55.9039 357.499 78.4061 351.619 90.712L340.478 112.863L344.501 138.178C346.358 151.89 350.072 172.634 352.547 184.237C354.714 195.84 365.236 247.876 375.449 300.264C398.35 415.237 405.467 443.716 410.11 440.552C411.966 439.145 424.345 412.424 437.962 380.78L462.101 323.47L454.364 283.739C449.722 261.94 442.295 223.264 437.343 198.301C407.943 47.4655 400.516 13.7121 396.802 13.7121C395.255 13.7121 386.899 26.0181 378.234 40.7852Z" fill="#EDF4FC"/>
<path d="M199.049 42.1915C191.312 43.9495 164.078 51.3331 138.082 58.365L91.3517 71.0225L65.3559 104.424C37.8127 140.287 10.2696 179.315 10.2696 182.831C10.2696 185.292 23.2675 182.831 64.4275 171.931C79.9012 168.063 101.564 162.438 113.015 159.625C153.865 149.429 154.484 148.726 195.644 80.8672C207.714 60.8262 217.617 42.8947 217.617 41.1367C217.617 37.9723 217.926 37.9723 199.049 42.1915Z" fill="#EDF4FC"/>
<path d="M284.154 131.497C263.729 136.42 264.966 138.881 287.867 139.936C294.366 140.287 301.794 144.155 307.674 150.132L317.577 160.328L317.267 229.945C316.958 304.132 316.03 309.054 300.556 314.68C294.985 316.438 295.295 317.492 303.96 323.47C309.221 326.986 315.101 334.369 316.648 339.292C318.505 344.214 319.743 380.428 319.743 420.159V492.237L331.503 489.775C356.88 484.501 381.638 473.953 386.28 466.218C389.994 459.538 389.994 455.319 386.28 435.629C383.804 422.972 377.615 389.922 372.354 361.794C351.31 249.283 333.051 159.625 328.409 146.264C324.695 135.365 314.792 125.872 307.364 126.575C304.889 126.927 294.366 129.036 284.154 131.497Z" fill="#EDF4FC"/>
<path d="M218.545 148.022C208.642 151.89 208.333 152.242 208.333 172.283V193.027H184.194L182.027 175.447C180.171 161.383 178.933 157.867 174.91 159.274C171.815 159.977 159.745 163.493 147.366 167.009L125.084 173.337L136.535 178.963C157.579 189.863 157.27 188.808 157.27 277.059C157.27 376.912 158.198 374.451 114.872 384.648L106.206 386.406V544.625H113.324C117.038 544.625 134.678 540.757 152.627 536.538L185.122 528.451L186.051 387.109L186.67 245.767H204.31L206.476 381.835C207.714 456.725 208.952 518.606 209.88 519.31C210.499 520.013 216.689 519.31 223.806 517.552L236.804 514.739L236.495 345.972C236.185 185.995 234.638 143.452 230.305 144.155C229.377 144.506 223.806 146.264 218.545 148.022Z" fill="#EDF4FC"/>
<path d="M260.943 306.593L272.394 304.483C278.583 303.077 285.392 300.264 287.558 297.803C290.034 294.639 292.2 273.543 293.438 236.273L295.604 179.666L286.32 174.041C281.059 170.876 273.322 168.415 268.68 168.415H260.943V306.593Z" fill="#EDF4FC"/>
<path d="M36.5748 195.136C-7.06096 208.849 -5.82306 204.278 10.2696 286.903C17.3875 325.228 29.1475 383.241 35.9559 416.291C42.4548 448.99 49.2633 482.392 50.8106 490.127C59.1664 534.78 68.1412 557.282 74.3306 550.25C77.4254 547.086 79.5917 221.858 76.8064 201.114C74.6401 183.182 74.9496 183.182 36.5748 195.136Z" fill="#EDF4FC"/>
<path d="M106.206 279.52V355.817L116.11 353.355C121.68 352.301 127.56 349.488 129.107 347.73C130.655 345.972 132.821 314.68 133.44 278.114L134.987 212.013L126.632 207.794C121.99 205.333 115.491 203.575 112.396 203.575C106.516 203.575 106.206 206.388 106.206 279.52Z" fill="#EDF4FC"/>
<path d="M260.943 484.853H271.156C291.581 484.853 292.2 482.743 292.819 414.533C293.129 380.78 292.51 348.785 290.962 343.159C288.796 334.721 287.249 333.666 274.87 333.666H260.943V484.853Z" fill="#EDF4FC"/>
</svg>
