<svg width="1000" height="314" viewBox="0 0 1000 314" fill="none" xmlns="http://www.w3.org/2000/svg">
<path d="M146.086 1.04231C122.238 4.04157 110.68 18.0138 108.193 46.836C106.73 63.6612 109.29 79.8279 115.362 92.4833C121.287 104.773 131.675 113.332 144.55 116.624C154.279 119.111 174.47 118.453 184.93 115.234L189.1 113.99L189.32 109.821C189.466 107.553 189.393 105.651 189.32 105.651C189.173 105.651 187.198 106.309 185.004 107.114C176.372 110.113 166.423 110.772 157.644 108.943C134.382 104.042 123.848 83.1198 125.896 45.8119C127.286 21.0862 136.869 8.35759 154.279 8.21128C164.082 8.21128 170.958 10.9911 176.81 17.4285C180.249 21.1593 184.345 29.2062 184.345 32.1323C184.345 32.937 185.15 33.2296 186.979 33.2296H189.612L189.1 22.4029C188.807 16.4776 188.369 10.1864 188.076 8.35759L187.637 5.06572L183.614 4.18788C171.031 1.26177 154.938 -0.0549853 146.086 1.04231Z" fill="#EDF4FC"/>
<path d="M248.72 1.11562C234.894 2.79813 225.311 8.57724 221.141 17.6482C218.654 22.9884 218.069 31.7667 219.751 38.2042C222.312 48.153 228.091 53.42 247.549 63.2956C267.666 73.5369 273.811 79.5354 273.811 88.8258C273.811 96.7995 268.983 103.895 260.863 107.626C256.913 109.455 255.596 109.674 249.086 109.601C242.941 109.601 241.039 109.309 237.235 107.699C230.066 104.773 225.604 100.311 223.263 93.8002C222.165 90.5815 221.873 90.2889 219.605 90.2889H217.191L217.63 98.1162C218.508 114.429 218.581 115.015 220.775 115.453C233.285 118.16 253.036 118.818 262.473 116.917C269.568 115.527 277.323 111.869 281.785 107.919C288.515 101.92 291.807 91.4593 290.344 80.9253C288.515 67.9774 280.322 60.15 255.816 48.2993C239.137 40.1061 234.016 35.278 233.504 27.0118C233.285 23.281 233.577 22.0374 235.333 18.5992C237.674 14.1369 242.356 10.4061 247.476 9.01616C251.719 7.84571 259.766 8.06517 264.375 9.38192C271.47 11.5034 277.908 17.7214 279.663 24.232C280.395 27.1581 280.688 27.3775 282.955 27.3775H285.516L284.931 15.4536C284.638 8.94301 284.345 3.52966 284.272 3.52966C284.272 3.45652 281.053 2.87129 277.249 2.28607C268.178 0.749853 255.596 0.237786 248.72 1.11562Z" fill="#EDF4FC"/>
<path d="M0 4.26152C0 5.79774 0.438917 6.0172 4.82809 6.74873C9.58303 7.55336 11.7776 8.79704 13.387 11.65C14.0454 12.6741 14.4111 24.5249 14.7037 51.5183C15.0695 83.7054 15.3621 90.655 16.3131 94.5321C19.6781 107.261 27.1397 114.137 40.7462 116.99C47.2568 118.38 64.594 118.38 71.0315 117.063C80.0293 115.161 87.7103 109.967 90.929 103.676C94.5867 96.6535 94.5867 95.922 95.0256 53.7129C95.4645 17.2096 95.6108 13.6251 96.7813 11.4305C98.2443 8.72388 101.244 7.18764 106.291 6.52927C109.364 6.09034 109.729 5.87089 109.729 4.26152V2.50586H89.9781H70.2268V4.26152C70.2268 5.87089 70.5925 6.09034 73.7381 6.52927C78.7125 7.18764 81.7118 8.72388 83.1748 11.4305C84.3453 13.6251 84.4916 16.7707 84.711 48.2264C84.9305 90.9476 84.3453 95.9951 78.1273 103.091C72.9334 108.943 66.2034 111.211 55.0841 110.626C41.3314 109.967 34.3087 103.237 31.6752 88.3141C30.8705 83.6323 30.7242 75.0734 30.8705 48.0801C31.09 16.7707 31.2363 13.6251 32.4067 11.4305C33.8698 8.72388 36.8691 7.18764 41.9166 6.52927C44.989 6.09034 45.3548 5.87089 45.3548 4.26152V2.50586H22.6774H0V4.26152Z" fill="#EDF4FC"/>
<path d="M457.206 4.18829C457.206 5.79766 457.644 6.01712 462.034 6.74864C464.74 7.18755 467.52 8.13857 468.398 8.8701C471.836 11.9425 471.836 12.0888 471.836 59.7114C471.836 100.969 471.763 104.773 470.519 107.114C468.983 110.333 465.252 112.235 460.717 112.235C457.279 112.235 457.206 112.308 457.206 114.43V116.624H482.297C508.778 116.624 517.118 115.893 525.457 113.04C540.38 107.846 549.744 97.4581 553.841 81.5839C556.84 70.0991 556.913 49.6163 554.06 37.9118C549.817 20.2088 538.991 9.16271 521.361 4.55406C515.801 3.091 513.168 2.94469 486.32 2.72524L457.206 2.43262V4.18829ZM509.656 10.9915C524.14 13.9908 532.553 22.4034 536.65 37.985C538.625 45.3734 538.625 72.001 536.723 80.2672C533.943 92.0448 527.14 101.335 518.361 105.359C511.119 108.65 497.659 110.333 492.538 108.577C488.296 107.041 488.296 107.626 488.076 62.4912C487.93 39.7406 488.076 19.4041 488.296 17.2095C489.027 11.1378 490.783 9.82109 498.171 9.82109C501.39 9.82109 506.584 10.3332 509.656 10.9915Z" fill="#EDF4FC"/>
<path d="M573.592 15.3073C571.105 17.4288 569.495 21.4522 570.227 23.8662C571.69 29.0601 574.323 31.0352 579.664 31.0352C584.345 31.0352 587.418 28.2554 587.93 23.6468C588.588 17.5751 584.931 13.4785 578.713 13.4785C576.664 13.4785 575.201 14.0637 573.592 15.3073Z" fill="#EDF4FC"/>
<path d="M716.459 33.8884C713.46 35.7173 711.412 38.4239 708.998 43.6178C707.974 45.9587 706.73 47.7143 706.291 47.568C701.317 45.3734 697.147 44.7882 688.808 45.0808C677.615 45.5197 673.153 47.056 668.398 52.1767C663.936 57.0048 662.473 61.8328 662.912 70.8307C663.277 78.2922 664.74 82.4619 668.471 86.7779L670.812 89.3383L669.349 91.2402C665.472 96.0683 663.862 103.603 665.764 107.334C666.203 108.212 667.447 109.894 668.544 110.992C670.3 112.967 670.373 113.113 669.13 113.844C663.204 117.136 659.839 122.623 659.839 129.06C659.839 141.569 670.958 148.519 690.929 148.373C708.12 148.299 720.41 142.374 725.677 131.621C727.14 128.621 727.505 126.866 727.505 121.745C727.505 116.405 727.213 115.088 725.677 112.381C723.702 108.87 719.898 106.31 714.704 104.847C712.875 104.408 703.877 103.823 694.148 103.53C678.493 103.164 676.664 102.945 675.274 101.701C673.446 100.019 673.226 95.7757 674.835 93.4348C675.86 91.9718 676.225 91.8986 677.981 92.6301C679.151 93.1422 683.906 93.508 689.466 93.508C697.732 93.508 699.561 93.2885 703.292 91.8255C712.07 88.3141 716.752 81.7304 717.41 71.9279C717.922 65.0516 716.825 60.2235 713.533 54.8102C711.266 50.9331 711.119 50.4941 712.143 48.6653C713.972 45.0808 715.069 44.6419 718.361 45.9587C722.531 47.6412 725.238 47.4217 727.798 45.2271C729.773 43.6178 730.066 42.8862 730.066 39.7407C730.066 34.5468 727.944 32.4985 722.604 32.4985C720.117 32.4985 717.922 33.0106 716.459 33.8884ZM697.366 52.7619C699.342 54.0055 700.805 55.8343 702.121 58.6873C703.804 62.2718 704.023 63.8811 704.097 70.1723C704.097 76.6097 703.877 77.9996 702.268 81.1451C698.098 89.4114 686.759 90.5819 680.541 83.486C677.762 80.2673 676.737 77.1217 676.152 69.8065C675.201 56.7853 681.273 49.2505 691.661 50.5673C693.27 50.7868 695.83 51.7377 697.366 52.7619ZM711.558 116.771C715.728 119.111 717.045 121.526 716.752 126.28C716.24 132.791 711.997 137.4 703.146 140.911C699.854 142.155 697.44 142.52 691.661 142.52C685.077 142.594 683.906 142.374 680.176 140.545C675.274 138.131 672.056 134.547 670.812 130.084C669.422 125.329 670.373 121.964 674.104 118.234L677.323 115.015L693.27 115.308C706.657 115.527 709.583 115.746 711.558 116.771Z" fill="#EDF4FC"/>
<path d="M314.338 45.9583C309.071 47.4945 304.17 50.3475 301.829 53.2736C300.073 55.395 299.634 56.6386 299.634 59.6379C299.561 62.8566 299.854 63.5882 301.61 65.1244C304.389 67.4653 309.291 67.5384 311.997 65.1975C313.46 63.9539 314.046 62.564 314.558 58.9064C314.996 55.9071 315.728 53.7125 316.606 52.7615C318.508 50.9327 324.141 49.9086 327.871 50.7132C334.455 52.1763 337.235 57.9554 337.235 69.8793V76.9751L334.528 77.414C332.992 77.6334 329.481 77.9992 326.628 78.2918C307.389 80.0475 297.513 87.5091 297.513 100.165C297.44 106.236 298.757 109.528 302.487 113.186C306.291 116.843 311.119 118.38 318.142 117.941C324.799 117.502 329.261 115.746 333.797 111.576L337.089 108.504L338.04 111.576C339.576 116.185 342.063 117.648 348.793 117.941C351.866 118.087 355.743 117.868 357.352 117.575C359.839 117.063 360.278 116.624 360.498 114.868C360.717 112.893 360.717 112.82 357.937 113.332C353.987 113.99 351.5 112.82 350.476 109.967C349.964 108.431 349.671 99.7256 349.671 84.4367C349.671 59.199 349.378 56.7118 345.574 51.7374C344.404 50.2012 341.917 48.3724 339.503 47.2019C335.918 45.5925 334.382 45.2999 326.628 45.1536C320.922 45.0805 316.606 45.3731 314.338 45.9583ZM337.089 90.4352C336.796 98.3357 335.479 102.286 331.822 106.236C327.945 110.552 321.288 111.942 317.045 109.382C312.582 106.675 310.242 98.0431 312.656 93.3613C313.972 90.8741 317.191 87.8748 320.117 86.4118C322.678 85.095 331.383 83.1199 334.967 83.0467L337.381 82.9736L337.089 90.4352Z" fill="#EDF4FC"/>
<path d="M372.714 46.6897C364.155 48.0797 363.204 48.3723 362.985 49.7622C362.765 51.1521 363.204 51.4447 366.203 51.8836C368.764 52.2494 370.373 53.0541 372.129 54.8097L374.543 57.2238V81.803C374.543 102.213 374.323 106.821 373.445 108.577C372.056 111.284 369.642 112.966 367.154 112.966C364.228 112.966 362.838 113.698 362.838 115.234C362.838 116.551 363.643 116.624 380.761 116.624C397.879 116.624 398.683 116.551 398.683 115.234C398.683 113.771 397.367 112.966 394.952 112.966C392.392 112.966 389.393 110.918 388.369 108.431C386.686 104.554 386.979 80.2668 388.661 74.634C391.441 65.6363 397.44 56.5654 402.414 54.0782C404.828 52.7614 409.583 52.6151 412.07 53.7856C415.801 55.4681 415.874 55.907 416.094 82.8271L416.313 107.919L413.753 110.479C412.217 112.015 410.534 112.966 409.437 112.966C406.657 112.966 405.267 113.698 405.267 115.234C405.267 116.551 406.072 116.624 422.824 116.624C439.576 116.624 440.38 116.551 440.38 115.234C440.38 113.698 438.991 112.966 436.284 112.966C435.333 112.966 433.504 112.015 432.187 110.845L429.773 108.723L429.334 82.8271C429.042 66.8068 428.53 55.9802 428.018 54.3708C425.896 47.6407 421.287 45.0072 411.851 44.9341C406.803 44.9341 404.901 45.2998 401.829 46.7629C397.074 48.9575 392.392 53.6393 389.32 59.272L387.052 63.5881L386.979 54.2245V44.9341L384.638 45.0072C383.321 45.0804 377.981 45.8119 372.714 46.6897Z" fill="#EDF4FC"/>
<path d="M571.544 46.6166C562.546 48.0797 561.814 48.2991 561.814 49.7622C561.814 51.0789 562.399 51.4447 564.96 51.8105C568.983 52.4688 571.178 54.005 572.495 57.0043C574.104 60.9546 573.958 103.749 572.348 107.845C571.105 110.845 568.325 112.966 565.545 112.966C563.131 112.966 561.814 113.771 561.814 115.234C561.814 116.551 562.619 116.624 579.737 116.624C597.147 116.624 597.659 116.551 597.659 115.161C597.659 114.21 597.001 113.624 595.684 113.332C590.417 112.235 589.32 111.723 587.857 109.821C586.394 107.772 586.32 106.968 586.101 76.3165L585.882 44.9341L583.541 45.0072C582.224 45.0804 576.811 45.8119 571.544 46.6166Z" fill="#EDF4FC"/>
<path d="M616.606 45.8851C603.438 49.6159 596.928 60.5889 596.928 79.3159C596.928 93.0686 600.439 102.652 607.901 109.528C614.996 116.185 623.628 118.526 637.747 117.867C642.429 117.648 647.696 117.063 649.451 116.551C652.377 115.746 652.524 115.6 652.524 112.82C652.524 109.967 652.451 109.894 650.549 110.479C649.378 110.845 645.062 111.137 640.819 111.137C633.943 111.137 632.699 110.918 629.042 109.089C619.239 104.261 612.436 92.9223 610.388 77.6333L609.949 74.1952H632.407H654.865L654.353 68.4894C653.328 57.6627 649.671 51.6642 641.697 47.714C637.162 45.4462 636.284 45.2999 628.383 45.1536C623.336 45.0073 618.654 45.3731 616.606 45.8851ZM632.626 52.03C633.943 52.6883 635.699 54.1514 636.503 55.3219C638.332 57.8091 640.088 63.2955 640.088 66.2948V68.3431H625.091C615.947 68.3431 610.095 68.0505 610.095 67.6115C610.095 67.2458 610.607 65.417 611.266 63.515C614.996 52.3957 623.628 47.7871 632.626 52.03Z" fill="#EDF4FC"/>
<path d="M747.988 46.3972C733.943 51.0058 725.969 66.1484 727.432 85.3875C728.968 105.358 739.429 116.916 757.059 117.941C774.835 118.965 786.686 109.821 790.417 92.0444C792.538 82.0956 791.221 69.4403 787.271 61.0277C784.638 55.4681 778.127 49.177 772.714 47.0556C766.642 44.7147 754.206 44.3489 747.988 46.3972ZM763.423 51.1521C772.933 53.9319 777.469 65.3438 776.737 84.7291C776.445 92.5565 776.006 95.19 774.543 99.2134C770.958 108.723 765.911 112.747 758.083 112.088C747.549 111.21 741.77 100.311 741.77 81.1446C741.77 64.3196 746.745 53.4198 755.669 50.9327C759.181 49.9085 759.327 49.9085 763.423 51.1521Z" fill="#EDF4FC"/>
<path d="M0 144.422V146.617H328.164H656.328L654.572 144.495L652.89 142.301H326.481L0 142.228V144.422Z" fill="#EDF4FC"/>
<path d="M727.14 144.422L724.579 146.544L757.352 146.617H790.051V144.422V142.228H759.839H729.627L727.14 144.422Z" fill="#EDF4FC"/>
<path d="M97.2201 187.29C91.0753 189.119 86.9787 192.557 84.1989 197.897C82.0775 202.213 81.7117 203.53 81.7117 208.504C81.5654 221.525 87.4908 228.841 99.9268 230.962C104.17 231.694 114.192 230.889 115.362 229.718C115.581 229.499 115.508 227.524 115.216 225.256L114.704 221.16L111.704 221.745C106.803 222.696 102.048 222.33 99.0489 220.721C92.2457 217.209 90.4169 206.236 95.4645 199.579C98.6832 195.337 105.852 193.873 113.094 195.995C114.411 196.434 114.704 195.995 115.435 192.703C116.606 187.582 116.752 187.875 113.094 186.924C108.705 185.827 101.317 185.973 97.2201 187.29Z" fill="#EDF4FC"/>
<path d="M133.138 186.924C121.141 190.435 114.996 206.383 120.702 219.55C125.311 230.304 138.332 234.473 149.671 228.914C157.059 225.329 160.644 218.307 160.498 207.699C160.424 198.555 156.694 191.825 149.598 188.094C146.233 186.412 137.308 185.754 133.138 186.924ZM145.574 197.677C149.013 201.116 150.402 206.456 149.232 212.308C148.354 217.063 147.696 218.38 144.77 220.794C140.527 224.378 134.382 222.842 131.529 217.356C130.212 214.942 129.846 213.04 129.846 208.797C129.846 199.799 133.431 194.971 140.015 194.898C142.282 194.898 143.307 195.41 145.574 197.677Z" fill="#EDF4FC"/>
<path d="M214.119 186.997C207.681 188.753 203.146 196.068 204.828 202.213C205.999 206.602 208.339 208.796 215.874 212.454C222.165 215.453 222.751 215.965 222.97 218.014C223.263 220.793 221.946 221.964 218.215 222.403C215.728 222.769 210.315 221.671 206.95 220.208C206.072 219.842 205.633 220.501 204.974 223.427C204.462 225.548 204.097 227.597 204.097 228.109C204.097 230.303 215.728 232.059 221.8 230.815C229.334 229.206 233.431 225.183 233.943 218.892C234.528 211.576 231.602 207.772 222.458 204.115C217.118 201.993 215.069 200.384 215.069 198.482C215.069 195.19 221.287 193.946 227.14 195.995C228.676 196.58 230.066 196.946 230.139 196.873C230.724 196.287 232.553 188.753 232.26 188.314C231.09 186.412 219.386 185.607 214.119 186.997Z" fill="#EDF4FC"/>
<path d="M262.107 187.29C258.303 188.679 254.06 193.215 253.401 196.653C252.158 203.53 255.889 208.943 264.082 212.162C269.715 214.356 272.129 216.185 272.129 218.306C272.129 222.915 264.374 223.793 255.889 220.208C254.938 219.769 254.499 220.208 253.914 222.476C252.377 228.402 252.45 228.84 255.596 229.865C262.838 232.205 272.494 231.547 277.396 228.328C280.907 225.987 283.248 221.013 282.882 216.77C282.37 210.845 280.249 208.431 272.055 204.554C266.35 201.92 264.667 200.75 264.301 199.36C263.35 195.41 269.641 193.654 276.152 195.995C277.761 196.58 279.078 197.092 279.151 197.092C279.151 197.092 279.663 195.263 280.175 193.069C280.834 190.216 280.907 188.753 280.395 188.241C278.2 186.046 267.227 185.534 262.107 187.29Z" fill="#EDF4FC"/>
<path d="M302.56 187.363C297.806 188.753 293.051 192.118 290.783 195.483C288.149 199.506 286.467 206.822 287.052 212.089C287.93 220.794 292.758 227.231 300.293 229.792C304.243 231.182 313.607 231.547 318.508 230.523L321.288 229.938L320.849 226.134C320.556 224.013 320.044 222.111 319.751 221.745C319.459 221.452 317.484 221.599 315.362 222.037C306.73 223.866 300.073 220.062 298.318 212.308C296.855 205.578 299.488 199.36 305.048 196.507C308.34 194.825 309.217 194.751 318.142 195.776C319.678 195.995 320.044 195.556 320.849 192.337C321.434 190.289 321.873 188.46 321.873 188.168C321.873 187.363 314.704 186.119 310.315 186.193C308.047 186.193 304.536 186.705 302.56 187.363Z" fill="#EDF4FC"/>
<path d="M383.833 187.143C379.517 188.753 376.152 191.313 373.738 194.824C370.958 199.067 369.934 202.871 369.861 209.162C369.861 223.427 379.151 232.498 392.538 231.255C398.244 230.669 401.39 229.426 405.121 226.061C409.071 222.476 411.266 217.136 411.705 210.187C412.582 195.995 405.121 186.924 392.1 186.339C388.588 186.192 385.589 186.485 383.833 187.143ZM396.708 197.385C401.171 201.847 402.048 210.918 398.683 217.502C395.904 223.061 389.686 224.378 385.223 220.501C382.151 217.794 380.98 214.503 380.98 208.797C380.98 203.091 382.151 199.799 385.223 197.092C387.271 195.336 388.442 194.898 391.002 194.898C393.709 194.898 394.66 195.336 396.708 197.385Z" fill="#EDF4FC"/>
<path d="M429.92 187.29C421.946 189.777 416.24 198.702 416.24 208.724C416.24 218.307 419.751 225.183 426.628 228.914C430.066 230.816 431.236 231.108 436.723 231.108C444.038 231.108 448.061 229.572 452.304 225.256C456.108 221.306 457.937 215.966 457.937 208.504C457.937 200.457 456.474 196.288 452.085 191.898C446.672 186.485 438.259 184.729 429.92 187.29ZM442.209 196.507C445.209 198.848 446.964 203.31 446.964 208.797C446.964 216.917 443.087 222.696 437.674 222.696C431.822 222.696 428.018 218.233 427.432 210.772C426.92 204.846 428.237 200.311 431.236 197.312C433.211 195.337 434.162 194.898 436.942 194.898C439.137 194.898 440.819 195.41 442.209 196.507Z" fill="#EDF4FC"/>
<path d="M520.848 187.217C510.314 190.508 504.535 203.676 508.047 216.624C511.119 227.963 522.531 233.961 534.528 230.377C540.307 228.694 543.745 225.695 546.525 220.062C548.793 215.527 549.012 214.503 548.939 208.504C548.939 200.75 547.33 196.288 542.941 191.752C538.039 186.705 528.749 184.803 520.848 187.217ZM533.577 197.092C536.576 199.799 537.893 203.31 537.893 208.797C537.893 214.283 536.576 217.795 533.577 220.501C529.042 224.451 522.97 223.062 519.971 217.356C517.63 213.04 517.63 204.627 519.971 200.238C522.97 194.532 529.042 193.142 533.577 197.092Z" fill="#EDF4FC"/>
<path d="M700.073 186.778C692.173 188.241 686.54 192.191 683.467 198.409C681.639 202.066 681.419 203.383 681.419 209.528C681.419 215.6 681.639 216.917 683.394 220.135C685.662 224.451 687.564 226.353 691.88 228.475C697.513 231.328 708.998 231.767 717.264 229.426L719.459 228.84L719.678 216.99L719.824 205.139H711.412H702.999V209.528V213.917H706.291H709.583V217.868C709.583 222.476 708.632 223.134 703.365 222.33C694.367 221.013 689.466 211.211 693.416 202.505C695.977 196.873 702.56 194.166 710.241 195.702C712.509 196.141 714.777 196.507 715.362 196.58C716.021 196.653 716.752 195.41 717.337 193.069C717.922 191.02 718.361 189.192 718.361 188.899C718.361 187.216 705.779 185.753 700.073 186.778Z" fill="#EDF4FC"/>
<path d="M980.249 186.778C972.348 188.241 966.716 192.191 963.643 198.409C961.814 202.066 961.595 203.383 961.595 209.528C961.595 215.6 961.814 216.917 963.57 220.135C965.838 224.451 967.74 226.353 972.056 228.475C977.688 231.328 989.173 231.767 997.44 229.426L999.634 228.84L999.854 216.99L1000 205.139H991.587H983.175V209.528V213.917H986.467H989.759V217.868C989.759 222.476 988.808 223.134 983.541 222.33C974.543 221.013 969.642 211.211 973.592 202.505C976.152 196.873 982.736 194.166 990.417 195.702C992.685 196.141 994.952 196.507 995.538 196.58C996.196 196.653 996.928 195.41 997.513 193.069C998.098 191.02 998.537 189.192 998.537 188.899C998.537 187.216 985.955 185.753 980.249 186.778Z" fill="#EDF4FC"/>
<path d="M26.1887 203.017L25.9693 219.184L23.8478 221.013C21.9459 222.622 21.2143 222.769 18.2882 222.403C14.85 221.964 14.7769 221.964 14.338 224.232C14.1185 225.475 13.899 227.45 13.899 228.621C13.899 230.45 14.1917 230.669 17.1909 231.181C25.0914 232.352 31.7484 229.938 34.6745 224.89C36.0644 222.549 36.2107 220.94 36.4301 204.554L36.6496 186.851H31.5289H26.4082L26.1887 203.017Z" fill="#EDF4FC"/>
<path fill-rule="evenodd" clip-rule="evenodd" d="M40.2341 230.011C40.2341 229.133 52.6701 188.314 53.1822 187.363C53.4016 187.07 56.5472 186.924 60.2048 186.997L66.8617 187.217L71.8361 203.31C73.9539 210.053 76.199 217.348 77.5684 221.8C77.9971 223.191 78.3394 224.305 78.5662 225.037L80.3219 230.743H74.616H68.91L67.2275 225.256L65.6181 219.697L59.6928 219.916L53.7674 220.135L52.3043 225.402L50.8413 230.743H45.5743C42.3555 230.743 40.2341 230.45 40.2341 230.011ZM54.8647 214.649L64.7403 214.283L59.6196 197.458L54.8647 214.649Z" fill="#EDF4FC"/>
<path d="M167.74 187.363C167.008 187.582 166.789 192.703 166.789 209.089V230.523L172.568 230.962C175.786 231.181 180.834 231.035 183.906 230.669C194.514 229.499 199.049 225.914 199.561 218.38C199.854 213.625 198.244 210.406 194.514 208.138C192.246 206.748 192.246 206.748 193.782 205.87C196.05 204.7 198.244 200.823 198.244 197.97C198.244 193.727 196.269 190.728 192.173 188.679C188.734 186.997 187.783 186.851 178.566 186.924C173.08 186.924 168.178 187.143 167.74 187.363ZM185.077 195.263C187.564 196.507 188.369 198.628 187.271 200.677C186.174 202.798 184.199 203.676 180.761 203.676H177.762V198.921V194.166H180.322C181.785 194.166 183.906 194.678 185.077 195.263ZM185.808 212.82C189.393 214.649 189.612 219.404 186.247 221.598C185.369 222.183 183.102 222.915 181.2 223.134L177.762 223.647V217.648V211.723H180.688C182.37 211.723 184.638 212.235 185.808 212.82Z" fill="#EDF4FC"/>
<path d="M326.993 208.796V230.742H332.114H337.235V221.598V212.454H344.916H352.597V221.598V230.742H358.083H363.57V208.796V186.851H358.083H352.597V195.263V203.676H344.916H337.235V195.263V186.851H332.114H326.993V208.796Z" fill="#EDF4FC"/>
<path d="M464.521 208.796V230.742H478.42H492.319V226.353V221.964H483.541H474.762V204.407V186.851H469.642H464.521V208.796Z" fill="#EDF4FC"/>
<path d="M555.23 208.796V230.742H560.717H566.203V221.964V213.186H573.884H581.565V208.796V204.407H573.884H566.203V200.018V195.629H574.25H582.297V191.24V186.851H568.764H555.23V208.796Z" fill="#EDF4FC"/>
<path d="M603.511 208.796V230.742H617.41H631.309V226.353V221.964H622.531H613.753V217.209V212.454H621.8H629.846V208.065V203.676H621.8H613.753V199.652V195.629H622.165H630.578V191.24V186.851H617.045H603.511V208.796Z" fill="#EDF4FC"/>
<path d="M638.625 208.796V230.742H643.38H648.135V216.112V201.481L651.646 208.211C653.621 211.942 657.132 218.526 659.546 222.842L663.862 230.742H669.568H675.201V208.796V186.851H670.007H664.74L665.106 200.75L665.472 214.649L663.716 210.772C662.765 208.723 659.4 202.432 656.328 196.946L650.695 186.851H644.696H638.625V208.796Z" fill="#EDF4FC"/>
<path d="M727.14 208.796V230.742H732.626H738.113V208.796V186.851H732.626H727.14V208.796Z" fill="#EDF4FC"/>
<path d="M746.159 208.796V230.742H750.914H755.669V215.892V201.115L759.547 208.431C761.668 212.454 765.326 219.111 767.666 223.208L771.836 230.742H777.323H782.736V208.796V186.851H777.981H773.226L773.153 200.53V214.283L771.69 211.064C770.885 209.309 767.593 203.164 764.375 197.385L758.449 186.851H752.304H746.159V208.796Z" fill="#EDF4FC"/>
<path d="M790.783 208.796V230.742H805.048H819.312V226.353V221.964H810.534H801.756V217.209V212.454H809.437H817.118V208.065V203.676H809.437H801.756V199.652V195.629H810.168H818.581V191.24V186.851H804.682H790.783V208.796Z" fill="#EDF4FC"/>
<path d="M825.896 208.796V230.742H840.161H854.426V226.353V221.964H845.647H836.869V217.209V212.454H844.55H852.231V208.065V203.676H844.55H836.869V199.652V195.629H845.282H853.694V191.24V186.851H839.795H825.896V208.796Z" fill="#EDF4FC"/>
<path d="M861.961 187.363C861.229 187.582 861.01 192.703 861.01 209.235V230.742H866.13H871.251V222.33V213.917H874.031C877.981 213.917 879.59 215.965 881.639 223.793L883.321 230.377L889.1 230.596C894.367 230.815 894.806 230.669 894.367 229.499C894.075 228.767 892.977 225.11 891.953 221.306C890.636 216.624 889.32 213.625 887.93 212.015C885.882 209.747 885.882 209.601 887.345 209.162C888.149 208.87 889.612 207.48 890.636 206.017C892.1 203.895 892.465 202.432 892.465 199.067C892.465 193.508 890.929 190.947 886.32 188.679C882.955 186.997 881.931 186.851 872.787 186.924C867.301 186.924 862.399 187.143 861.961 187.363ZM880.176 195.702C880.907 196.068 881.712 197.238 881.931 198.189C883.102 202.725 879.956 205.87 874.177 205.87H871.251V200.457C871.251 195.922 871.47 194.971 872.568 194.678C874.104 194.166 878.493 194.824 880.176 195.702Z" fill="#EDF4FC"/>
<path d="M899.781 208.796V230.742H904.901H910.022V208.796V186.851H904.901H899.781V208.796Z" fill="#EDF4FC"/>
<path d="M918.8 208.796V230.742H923.555H928.31V216.112V201.481L931.822 208.211C933.797 211.942 937.308 218.526 939.722 222.842L944.038 230.742H949.744H955.377V208.796V186.851H950.183H944.916L945.282 200.75L945.647 214.649L943.892 210.772C942.941 208.723 939.576 202.432 936.503 196.946L930.871 186.851H924.872H918.8V208.796Z" fill="#EDF4FC"/>
<path d="M49.744 276.463V299.506H52.6701H55.5962V276.463V253.42H52.6701H49.744V276.463Z" fill="#EDF4FC"/>
<path d="M243.599 276.463V299.506H246.891H250.183V276.463V253.42H246.891H243.599V276.463Z" fill="#EDF4FC"/>
<path d="M358.449 261.979C358.449 270.026 358.376 270.391 357.205 269.294C356.474 268.709 354.352 267.758 352.524 267.319C345.428 265.49 338.186 269.952 336.064 277.414C333.87 284.803 335.918 293.581 340.6 297.239C345.208 300.896 352.524 300.823 356.693 297.092L359.181 294.971V297.239C359.181 299.433 359.327 299.506 362.107 299.506H365.033V276.463V253.42H361.741H358.449V261.979ZM355.889 274.707C357.791 276.536 358.083 277.414 358.303 281.95C358.815 290.07 356.035 294.386 350.402 294.386C341.77 294.386 338.332 280.486 345.355 274.122C348.647 271.196 352.45 271.416 355.889 274.707Z" fill="#EDF4FC"/>
<path d="M399.342 255.907C389.905 259.272 384.784 266.953 384.784 277.926C384.784 287.436 389.1 294.825 396.635 298.043C401.024 299.945 409.949 300.311 415.289 298.848C418.215 298.043 418.288 297.97 417.703 295.702C416.825 292.703 416.825 292.703 413.533 293.581C399.122 297.604 388.076 286.266 392.099 271.635C394.514 262.857 404.097 258.102 413.46 260.955C416.825 261.979 416.898 261.979 417.264 260.369C417.484 259.418 417.922 258.175 418.142 257.59C419.093 255.102 405.048 253.859 399.342 255.907Z" fill="#EDF4FC"/>
<path d="M18.2882 277.56V299.506H30.7242H43.1602V296.58V293.654H34.0161H24.872V286.338V279.023H33.2845H41.6971V276.463V273.902H33.2845H24.872V267.319V260.735H33.6503H42.4287V258.175V255.614H30.3584H18.2882V277.56Z" fill="#EDF4FC"/>
<path d="M669.349 277.56V299.506H681.785H694.221V296.58V293.654H685.077H675.933V286.338V279.023H684.345H692.758V276.463V273.902H684.345H675.933V267.319V260.735H684.711H693.489V258.175V255.614H681.419H669.349V277.56Z" fill="#EDF4FC"/>
<path d="M131.163 259.345C128.822 260.004 128.749 260.223 128.749 263.661V267.319H126.189C123.775 267.319 123.628 267.465 123.628 269.879C123.628 272.293 123.775 272.44 126.116 272.44H128.676L128.895 284.071C129.115 294.239 129.261 295.922 130.505 297.239C132.334 299.214 135.991 300.238 139.722 299.726C142.502 299.36 142.648 299.141 142.648 296.873C142.648 294.532 142.502 294.459 139.576 294.239C135.187 293.947 134.601 292.41 134.601 281.364V272.44H138.625H142.648V269.879V267.319H138.625H134.601V262.93C134.601 260.516 134.382 258.541 134.089 258.614C133.723 258.614 132.407 258.98 131.163 259.345Z" fill="#EDF4FC"/>
<path d="M587.271 259.418C584.565 260.15 584.492 260.223 584.492 263.734C584.492 267.246 584.418 267.319 582.297 267.319C580.249 267.319 580.102 267.538 580.102 269.879C580.102 272.22 580.249 272.44 582.297 272.44H584.492V282.096C584.565 292.41 585.516 296.946 587.93 298.336C589.978 299.579 593.27 300.165 595.977 299.726C598.171 299.36 598.391 299.067 598.391 296.873C598.391 294.532 598.244 294.386 595.903 294.386C591.514 294.386 591.075 293.288 591.075 282.242V272.44H595.099H599.122V269.879V267.319H595.099H591.075V262.93C591.075 260.516 590.856 258.541 590.563 258.614C590.197 258.687 588.734 259.053 587.271 259.418Z" fill="#EDF4FC"/>
<path d="M73.5187 267.246C68.3247 268.562 65.0328 272.001 63.2772 277.707C61.0826 285.095 62.6188 291.898 67.3006 296.141C68.91 297.604 70.4462 298.775 70.8119 298.775C71.1045 298.848 72.7871 299.14 74.616 299.506C78.0541 300.164 86.8325 299.213 88.0761 298.043C88.3687 297.75 88.4419 296.434 88.1492 295.19C87.7103 293.142 87.564 293.069 85.7352 293.727C82.5165 294.971 76.0059 294.824 73.3724 293.434C70.8851 292.118 68.7636 288.899 68.7636 286.339C68.7636 284.949 69.1294 284.876 79.3709 284.876C89.7586 284.876 89.9781 284.876 90.3438 283.193C90.9291 280.998 89.5391 274.854 87.7835 272.074C85.2231 267.977 78.932 265.856 73.5187 267.246ZM80.395 272.732C82.3702 273.756 84.1258 276.609 84.1258 278.658C84.1258 279.535 82.6628 279.755 76.4448 279.755C72.2018 279.755 68.7636 279.535 68.7636 279.316C68.7636 279.096 69.2757 277.78 69.9341 276.39C71.9824 272.147 76.2985 270.684 80.395 272.732Z" fill="#EDF4FC"/>
<path d="M107.535 267.392C100.073 268.855 95.6838 274.342 95.2449 282.9C94.5865 294.532 102.56 301.408 114.484 299.506C116.825 299.14 119.02 298.555 119.385 298.189C119.678 297.897 119.751 296.507 119.532 295.19C119.166 293.361 118.8 292.996 117.849 293.361C117.191 293.654 114.996 294.02 112.948 294.239C105.925 294.751 101.682 290.801 101.682 283.559C101.682 278.877 103.145 275.805 106.291 273.903C108.851 272.293 114.704 271.928 117.118 273.171C118.288 273.829 118.654 273.683 119.239 272.074C120.702 268.197 120.336 267.977 113.387 267.026C111.997 266.88 109.363 267.026 107.535 267.392Z" fill="#EDF4FC"/>
<path d="M159.693 267.1C158.815 267.246 157.059 268.563 155.816 269.953L153.621 272.513V269.879C153.621 267.392 153.548 267.319 150.622 267.319H147.55L148.062 270.026C148.281 271.562 148.501 278.804 148.501 286.119V299.506H151.427H154.353V290.509C154.353 285.607 154.719 280.34 155.084 278.877C156.035 275.439 158.888 273.171 162.18 273.171C164.667 273.171 164.667 273.171 164.448 270.026C164.228 266.807 163.497 266.295 159.693 267.1Z" fill="#EDF4FC"/>
<path d="M193.709 267.612C186.101 269.733 182.151 275.22 182.151 283.778C182.151 292.557 186.394 298.116 194.148 299.579C197.44 300.165 205.34 299.287 206.364 298.263C206.657 297.897 206.73 296.58 206.511 295.263C206.218 293.361 205.852 292.923 204.901 293.361C204.243 293.654 201.902 294.02 199.707 294.166C194.952 294.532 191.734 292.923 189.759 289.119C187.052 283.925 188.734 276.683 193.343 273.903C195.903 272.293 201.756 271.928 204.097 273.171C205.633 273.976 205.925 273.756 206.584 270.538C207.023 268.563 206.876 268.197 205.413 267.831C201.097 266.807 196.854 266.734 193.709 267.612Z" fill="#EDF4FC"/>
<path d="M217.776 267.612C213.387 268.855 212.655 269.514 213.314 272.001C213.826 274.269 214.045 274.269 217.703 272.732C223.116 270.465 228.968 272.806 228.968 277.195C228.968 278.658 228.53 278.877 224.36 279.17C218.8 279.609 214.045 281.877 212.07 285.095C210.022 288.314 210.461 294.386 212.875 296.946C216.24 300.457 222.238 300.896 227.286 298.043C229.554 296.727 229.627 296.727 230.066 298.116C230.431 299.141 231.236 299.506 233.211 299.506H235.918L235.699 287.656C235.406 273.976 234.455 270.465 230.431 268.416C227.286 266.807 221.946 266.441 217.776 267.612ZM229.7 285.607C229.7 289.119 227.871 292.703 225.384 293.947C222.604 295.41 220.922 295.41 218.873 293.947C217.045 292.703 216.679 288.899 218.215 286.851C219.312 285.242 224.14 283.486 227.359 283.413C229.48 283.413 229.7 283.632 229.7 285.607Z" fill="#EDF4FC"/>
<path d="M275.567 267.611C271.032 268.855 270.3 269.587 271.397 271.781C271.909 272.732 272.348 273.61 272.421 273.683C272.495 273.756 273.885 273.39 275.421 272.805C281.492 270.684 286.101 272.293 287.198 276.975C287.637 278.95 287.564 279.023 284.419 279.023C273.738 279.023 266.569 286.046 269.203 293.946C271.251 300.238 280.322 301.993 286.32 297.238L288.222 295.775V297.604C288.222 299.287 288.515 299.506 291.002 299.506H293.782L293.489 287.216C293.197 273.537 292.465 270.903 288.442 268.562C285.37 266.807 279.883 266.368 275.567 267.611ZM287.491 286.631C287.491 292.995 280.834 297.385 276.811 293.581C272.348 289.411 277.03 283.705 285.15 283.486C287.418 283.412 287.491 283.486 287.491 286.631Z" fill="#EDF4FC"/>
<path d="M313.533 267.319C312.363 267.685 310.461 268.855 309.364 269.953L307.242 272.001V269.66C307.242 267.392 307.096 267.319 304.316 267.319H301.39V283.413V299.506H304.682H307.974V289.265C307.974 278.219 308.559 275.878 311.778 273.61C313.68 272.22 316.971 272.074 319.093 273.245C321.8 274.708 322.604 278.292 322.604 289.265V299.506H325.969H329.334L329.042 287.583C328.749 273.464 327.871 270.977 322.604 268.197C319.239 266.515 317.045 266.295 313.533 267.319Z" fill="#EDF4FC"/>
<path d="M432.48 267.245C425.384 269.074 421.215 274.853 421.215 283.266C421.141 291.971 424.945 297.531 432.261 299.506C437.381 300.823 444.697 298.921 447.769 295.409C454.719 287.509 452.67 272.878 444.038 268.416C441.478 267.099 435.552 266.514 432.48 267.245ZM442.356 274.926C449.817 283.046 442.209 298.847 433.138 293.946C429.481 291.971 427.579 288.387 427.652 283.412C427.725 273.317 436.284 268.343 442.356 274.926Z" fill="#EDF4FC"/>
<path d="M469.934 267.392C468.69 267.758 466.788 268.928 465.691 269.952L463.789 271.928V269.587C463.789 267.392 463.643 267.319 460.79 267.319C458.01 267.319 457.791 267.465 458.23 268.928C458.449 269.879 458.669 277.121 458.669 285.022V299.506H461.521H464.448L464.667 288.606C464.887 278.877 465.033 277.414 466.423 275.585C469.422 271.562 474.543 271.489 476.591 275.366C477.396 276.975 477.688 280.047 477.688 288.533V299.506H480.98H484.272V288.094V276.682L486.393 274.561C490.344 270.684 495.391 272.293 496.708 277.926C497.074 279.535 497.44 285.022 497.44 290.143V299.506H500.366H503.292V287.802C503.292 274.854 502.487 271.342 498.976 268.855C494.587 265.783 488.369 266.368 484.711 270.172L482.589 272.366L481.126 270.464C479.517 268.489 475.713 266.514 473.519 266.66C472.787 266.66 471.178 267.026 469.934 267.392Z" fill="#EDF4FC"/>
<path d="M523.555 267.612C521.946 268.197 519.898 269.367 518.947 270.318L517.191 271.928V269.66C517.191 267.392 517.045 267.319 514.265 267.319H511.339V289.631V311.942H514.631H517.922V304.261V296.653L520.629 298.263C523.921 300.165 530.285 300.384 533.65 298.629C538.99 295.776 541.331 291.094 541.331 282.901C541.331 278.658 540.966 276.536 539.795 274.049C536.942 268.27 529.7 265.344 523.555 267.612ZM532.334 275C537.527 280.926 535.406 291.972 528.676 294.166C522.677 296.141 517.922 291.606 517.922 283.925C517.922 278.146 519.605 274.781 523.263 273.171C526.774 271.562 529.92 272.22 532.334 275Z" fill="#EDF4FC"/>
<path d="M612.29 267.465C605.852 269.294 602.048 275.292 602.048 283.559C602.048 294.459 607.242 299.799 617.849 299.726C620.775 299.652 624.214 299.287 625.677 298.848C628.018 298.043 628.164 297.824 627.652 295.629C627.359 294.239 626.774 293.361 626.189 293.508C618.581 295.263 614.192 294.971 611.412 292.41C609.949 291.167 607.901 287.143 607.901 285.607C607.901 285.168 611.851 284.876 618.873 284.876H629.846V281.73C629.846 270.976 622.092 264.685 612.29 267.465ZM620.702 273.317C621.726 274.268 622.824 276.097 623.189 277.341L623.921 279.755H615.947H607.974L608.705 277.56C610.607 272.293 616.898 270.025 620.702 273.317Z" fill="#EDF4FC"/>
<path d="M647.623 267.1C646.745 267.246 644.989 268.563 643.745 269.953L641.551 272.513V269.879C641.551 267.392 641.478 267.319 638.552 267.319H635.479L635.991 270.684C636.211 272.586 636.43 279.828 636.43 286.778V299.506H639.356H642.282V290.509C642.282 285.607 642.648 280.34 643.014 278.877C643.965 275.439 646.818 273.171 650.11 273.171C652.597 273.171 652.597 273.171 652.377 270.026C652.158 266.807 651.426 266.295 647.623 267.1Z" fill="#EDF4FC"/>
<path d="M712.07 267.319C710.827 267.758 708.925 268.855 707.9 269.806L705.925 271.635V269.514C705.925 267.465 705.779 267.319 702.999 267.319H700.073V283.413V299.506H703.292H706.584L706.803 288.094L707.023 276.683L709.437 274.561C713.68 270.757 719.093 272.147 720.556 277.414C720.922 278.877 721.287 284.51 721.287 289.777V299.506H724.214H727.14V287.436C727.14 276.756 726.993 275 725.677 272.44C723.409 267.977 717.337 265.71 712.07 267.319Z" fill="#EDF4FC"/>
<path d="M744.55 267.246C737.601 269.513 733.723 275.293 733.723 283.412C733.723 287.948 734.894 291.752 737.162 294.385C739.868 297.604 742.575 298.775 747.476 298.775C750.914 298.775 752.377 298.409 754.572 296.946L757.279 295.044L756.767 298.189C755.962 302.798 754.426 305.358 751.646 306.529C748.427 307.846 745.794 307.846 741.478 306.383C739.576 305.724 737.82 305.358 737.674 305.578C737.454 305.797 737.162 307.041 737.162 308.358C737.015 310.552 737.235 310.845 739.941 311.65C743.672 312.82 749.378 312.893 753.109 311.869C756.84 310.845 761.156 306.529 762.18 302.798C762.619 301.042 762.985 293.215 762.985 283.559V267.319H760.424C758.376 267.319 757.864 267.611 757.864 268.782C757.864 270.611 757.791 270.611 754.792 268.855C751.939 267.099 747.257 266.441 744.55 267.246ZM751.573 272.732C755.523 274.342 756.401 276.317 756.401 283.12C756.401 289.996 755.23 292.264 750.914 293.654C748.72 294.385 747.915 294.312 745.574 293.142C737.601 289.265 738.844 274.415 747.257 272.22C748.061 272.074 748.793 271.854 748.939 271.781C749.012 271.781 750.256 272.147 751.573 272.732Z" fill="#EDF4FC"/>
<path d="M797.732 267.465C796.562 267.904 794.66 269.074 793.563 270.098L791.514 272V269.66C791.514 267.392 791.368 267.319 788.515 267.319H785.443L785.955 270.025C786.174 271.562 786.394 278.804 786.394 286.119V299.506H789.32H792.246V289.63C792.246 278.877 792.977 275.731 795.977 273.61C797.952 272.293 801.171 272.074 803.292 273.171C806.218 274.78 806.877 277.633 806.877 288.899V299.506H810.242H813.607L813.387 287.216C813.095 273.976 812.436 271.708 808.34 268.709C806.072 267.026 800.659 266.368 797.732 267.465Z" fill="#EDF4FC"/>
<path d="M830.578 267.246C825.092 268.636 821.288 273.171 819.971 279.974C818.581 286.924 821.214 294.385 826.189 297.677C828.822 299.433 834.748 300.238 839.795 299.506C842.356 299.14 844.696 298.555 845.062 298.189C845.94 297.311 845.062 292.776 844.184 293.288C842.429 294.385 835.699 295.044 833.285 294.385C829.92 293.508 826.774 290.362 826.189 287.216L825.75 284.875H836.869H848.062L847.549 280.413C847.037 275.073 844.697 270.464 841.551 268.636C838.917 267.099 833.724 266.441 830.578 267.246ZM837.674 272.439C839.21 273.317 841.258 276.829 841.258 278.657C841.258 279.608 840.015 279.755 833.577 279.755C829.334 279.755 825.896 279.608 825.896 279.389C825.896 279.096 826.408 277.999 826.994 276.829C829.261 272.513 834.016 270.537 837.674 272.439Z" fill="#EDF4FC"/>
<path d="M862.18 267.684C855.596 270.025 851.792 276.755 852.377 285.168C852.743 291.166 854.791 294.97 859.107 297.604C862.034 299.433 863.277 299.725 867.813 299.725C870.739 299.725 874.323 299.36 875.859 298.847C878.493 297.97 878.639 297.75 878.127 295.629C877.908 294.312 877.615 293.215 877.542 293.142C877.542 293.068 875.64 293.507 873.445 294.093C865.764 296.068 860.644 293.507 858.522 286.485L858.01 284.875H868.983H880.029V280.998C879.956 274.195 876.445 268.928 870.885 267.392C867.154 266.368 865.691 266.441 862.18 267.684ZM870.446 272.878C871.836 273.902 874.177 277.926 874.177 279.389C874.177 279.608 870.739 279.755 866.496 279.755C861.595 279.755 858.815 279.462 858.815 279.023C858.815 277.487 861.009 273.976 862.619 272.878C864.74 271.342 868.252 271.415 870.446 272.878Z" fill="#EDF4FC"/>
<path d="M897.147 267.612C895.903 268.197 894.221 269.514 893.343 270.611L891.734 272.659V269.953C891.734 267.392 891.661 267.319 889.173 267.319H886.613V283.413V299.506H889.905H893.197V289.265C893.197 275.951 894.44 273.171 900.512 273.171C902.707 273.171 902.78 273.098 902.56 270.026C902.341 266.514 901.024 265.929 897.147 267.612Z" fill="#EDF4FC"/>
<path d="M933.797 267.465C932.626 267.904 930.724 269.075 929.627 270.099L927.579 272.001V269.66C927.579 267.392 927.433 267.319 924.58 267.319H921.507L922.019 270.026C922.239 271.562 922.458 278.804 922.458 286.119V299.506H925.384H928.31V289.631C928.31 278.877 929.042 275.731 932.041 273.61C934.016 272.293 937.235 272.074 939.356 273.171C942.283 274.78 942.941 277.633 942.941 288.899V299.506H946.306H949.671L949.378 287.216C949.086 273.83 948.501 271.708 944.477 268.855C941.917 267.026 936.796 266.295 933.797 267.465Z" fill="#EDF4FC"/>
<path d="M965.399 267.685C959.108 269.879 955.816 275.219 955.816 283.413C955.743 289.996 957.571 294.093 961.741 296.946C965.691 299.579 972.275 299.579 976.225 296.873L979.005 295.044L978.566 298.482C978.127 302.871 976.152 305.432 972.275 306.822C969.568 307.772 968.764 307.773 964.667 306.675C959.766 305.358 959.4 305.505 958.669 308.358C958.083 310.699 960.205 311.796 966.35 312.454C975.128 313.332 982.151 309.748 983.76 303.53C984.199 301.92 984.638 293.142 984.784 283.925L985.077 267.319H982.297C979.737 267.319 979.517 267.465 979.517 269.294V271.196L977.835 269.66C976.006 267.977 972.202 266.587 969.642 266.587C968.837 266.661 966.935 267.099 965.399 267.685ZM976.225 274.707C978.2 276.609 978.42 277.341 978.639 282.096C978.932 288.387 977.396 291.606 973.372 293.288C967.081 295.922 961.229 289.777 962.18 281.511C962.619 277.487 964.448 274.707 967.813 273.025C970.885 271.416 973.372 271.928 976.225 274.707Z" fill="#EDF4FC"/>
<path d="M168.983 283.412V299.506H172.275H175.567V283.412V267.319H172.275H168.983V283.412Z" fill="#EDF4FC"/>
<path d="M547.915 278.072C547.915 284.071 548.281 290.216 548.72 291.825C550.841 299.652 559.034 302.359 566.423 297.604L569.129 295.848V297.677C569.129 299.36 569.422 299.506 572.056 299.506H574.982V283.412V267.319H571.69H568.398V278.365V289.411L565.911 291.898C562.765 295.044 559.254 295.263 556.62 292.483C554.938 290.728 554.865 290.143 554.645 278.95L554.426 267.319H551.134H547.915V278.072Z" fill="#EDF4FC"/>
<path d="M771.763 283.412V299.506H774.689H777.615V283.412V267.319H774.689H771.763V283.412Z" fill="#EDF4FC"/>
<path d="M907.827 283.412V299.506H910.754H913.68V283.412V267.319H910.754H907.827V283.412Z" fill="#EDF4FC"/>
<path d="M774.689 262.198C776.709 262.198 778.347 260.561 778.347 258.54C778.347 256.52 776.709 254.883 774.689 254.883C772.669 254.883 771.031 256.52 771.031 258.54C771.031 260.561 772.669 262.198 774.689 262.198Z" fill="#EDF4FC"/>
<path d="M910.753 262.198C912.774 262.198 914.411 260.561 914.411 258.54C914.411 256.52 912.774 254.883 910.753 254.883C908.733 254.883 907.096 256.52 907.096 258.54C907.096 260.561 908.733 262.198 910.753 262.198Z" fill="#EDF4FC"/>
</svg>
