<svg width="1200" height="1200" viewBox="0 0 1200 1200" fill="none" xmlns="http://www.w3.org/2000/svg">
<g id="logo">
<g id="Group 8">
<path id="Vector 73" d="M203.066 661.904L215.643 513.349L288.741 442.608L449.872 394.662L672.312 428.46L857.024 553.435L904.184 767.229L857.024 892.204L672.312 901.636L358.696 837.184L203.066 661.904Z" fill="#F4D3A8"/>
<path id="Vector 76" d="M201.495 525.138L132.326 515.706L103.244 491.34L94.5977 436.32L118.178 393.089L201.495 297.982L320.967 312.917L416.074 376.583L401.926 431.604L282.453 440.25L201.495 525.138Z" fill="#F4D3A8"/>
<path id="Vector 75" d="M203.069 525.923L132.328 516.491L245.513 384.442L416.862 378.154L401.928 432.389L284.813 443.393L203.069 525.923Z" fill="#ECC799"/>
<path id="Vector 74" d="M959.99 591.949L893.18 616.315L882.176 712.994L948.986 824.607L1063.74 808.101L1105.4 676.052L1042.52 599.023L959.99 591.949Z" fill="#E8BB84"/>
<path id="Vector 82" d="M959.99 591.949L893.18 616.315L882.176 712.994L955.274 779.019L1059.03 763.299L1105.4 676.052L1042.52 599.023L959.99 591.949Z" fill="#F4D3A8"/>
<path id="Vector 95" d="M308.165 692.611H231.148L359.084 837.096L672.241 902.019L856.825 890.562L878.466 833.277L825.001 854.282H793.176L725.07 806.544L667.786 793.178L579.313 761.353L533.485 719.981L410.641 738.439L308.165 692.611Z" fill="#E8BB84"/>
</g>
</g>
</svg>
